<svg width="44" height="17" viewBox="0 0 44 17" fill="none" xmlns="http://www.w3.org/2000/svg">
    <mask id="path-1-outside-1_15_106" maskUnits="userSpaceOnUse" x="-1.55059" y="-16.8115" width="47.9499" height="47.6409" fill="black">
    <rect fill="white" x="-1.55059" y="-16.8115" width="47.9499" height="47.6409"/>
    <path d="M1.5576 5.16462C1.76844 4.94392 2.09948 4.86554 2.40074 4.94648C2.68888 4.99254 2.98273 5.01568 3.2746 5.03864C3.36999 5.04616 3.46517 5.05365 3.55987 5.06192C3.70451 5.07645 3.84878 5.09052 3.9928 5.10456C4.17204 5.12201 4.35085 5.1394 4.52949 5.15764C4.62584 5.16747 4.72212 5.1775 4.81839 5.18794C5.57938 5.26786 6.34463 5.33797 7.10359 5.40022C8.03993 5.45156 8.97391 5.4766 9.9084 5.50163C10.8148 5.52588 11.7217 5.55018 12.6318 5.59852C14.3526 5.68581 16.0791 5.81196 17.7984 5.93759L18.2637 5.97155C19.7644 6.08161 21.2683 6.15024 22.7723 6.21885C23.1074 6.23416 23.4425 6.24946 23.7775 6.2652C25.6437 6.35548 27.5104 6.43897 29.3777 6.51546C30.4181 6.5584 31.4648 6.60921 32.5072 6.66984C33.3079 6.71596 34.107 6.78266 34.9076 6.8495C35.1098 6.86639 35.3119 6.88325 35.5143 6.89981L35.5397 6.90115C35.5492 6.90171 35.5586 6.90233 35.5679 6.90306C35.5831 6.90423 35.5978 6.90571 35.612 6.90768C36.323 6.96218 37.0322 7.00143 37.7428 7.04072C38.0496 7.05766 38.3566 7.07463 38.6641 7.09284C39.0902 7.11896 39.5129 7.148 39.9354 7.17702L39.9569 7.1785C39.6518 6.88128 39.3431 6.58695 39.0339 6.29957C38.9358 6.20897 38.8372 6.11883 38.7386 6.0286C38.4836 5.79554 38.2282 5.56197 37.9807 5.31871C37.5859 4.93222 37.1905 4.55256 36.7841 4.18182C36.4564 3.90923 36.1319 3.64053 35.8005 3.37089C35.7331 3.31572 35.6644 3.26115 35.5954 3.20643C35.4119 3.06072 35.2267 2.91375 35.0611 2.75114C34.7146 2.40976 34.6784 1.85826 34.9915 1.52328C35.3009 1.19127 35.8581 1.18318 36.2045 1.52456C36.2365 1.55693 36.2722 1.58633 36.3074 1.62261C36.5345 1.81333 36.7636 2.0003 36.9923 2.18704C37.4363 2.54952 37.8792 2.91112 38.3051 3.29755C38.4904 3.46363 38.6671 3.63877 38.8442 3.81443L38.8453 3.81547C38.9765 3.94556 39.1079 4.07586 39.2433 4.20296C39.5447 4.48623 39.8465 4.76421 40.1505 5.04421L40.2808 5.16422C40.6578 5.51505 41.0291 5.87224 41.4004 6.2294C41.7111 6.52832 42.0219 6.82719 42.3357 7.12215C42.6124 7.38406 42.8964 7.6853 42.9135 8.08444C42.9301 8.43832 42.7372 8.71557 42.4581 8.87704C42.4431 8.93396 42.4213 8.98992 42.3923 9.04417C42.2223 9.3611 41.9851 9.60937 41.7405 9.8636C41.605 10.0045 41.4764 10.1464 41.3378 10.2833C40.9968 10.6212 40.6556 10.9594 40.3116 11.2934C39.6833 11.9004 39.0813 12.525 38.5213 13.187C38.1532 13.6499 37.7867 14.0921 37.3126 14.453C37.2026 14.5354 37.0886 14.6143 36.9745 14.6933C36.8373 14.7883 36.6999 14.8834 36.5693 14.9846C36.5355 15.0633 36.488 15.1401 36.4205 15.2071C36.119 15.5264 35.5429 15.5561 35.2044 15.2019C35.1823 15.1744 35.1597 15.1539 35.1409 15.1303C34.9368 14.8682 34.8333 14.5125 34.9618 14.1967C35.0522 13.9694 35.1966 13.8019 35.3842 13.6579C35.5364 13.5385 35.6931 13.4274 35.8493 13.3165C36.075 13.1565 36.2996 12.9971 36.5079 12.8149C36.6692 12.6532 36.8136 12.4858 36.9624 12.3085C37.5024 11.6367 38.0707 11.0003 38.6885 10.3953C38.8406 10.2465 38.9938 10.0984 39.1472 9.95016C39.4954 9.61344 39.8442 9.27616 40.1832 8.92903C40.0793 8.92242 39.9754 8.91579 39.8716 8.90916L39.8615 8.90847C39.0865 8.85904 38.3122 8.80968 37.5371 8.77071C36.2666 8.70445 34.9991 8.59766 33.7384 8.49143L33.6987 8.48807L33.6967 8.48778C33.695 8.48748 33.6934 8.48723 33.6918 8.4871C33.6892 8.48674 33.6871 8.48696 33.6852 8.48711C33.6823 8.48738 33.6801 8.4876 33.6782 8.48515L33.6714 8.48423L33.6508 8.48132C31.8184 8.35754 29.979 8.27799 28.1497 8.20334C26.7548 8.14669 25.3609 8.07844 23.9669 8.01019L23.9395 8.00882C23.4834 7.98648 23.0272 7.96414 22.5711 7.94226C20.7254 7.85485 18.8809 7.75372 17.0358 7.61422C15.1529 7.47282 13.2652 7.34815 11.3838 7.27659C11.1651 7.26866 10.9465 7.26199 10.728 7.25605C10.4432 7.24829 10.1585 7.24176 9.8739 7.23525C8.79374 7.21058 7.71429 7.18589 6.63201 7.09433C6.01405 7.04335 5.39697 6.98071 4.77993 6.91812C4.57404 6.89724 4.36816 6.87635 4.16224 6.85589L4.14997 6.85463C3.74596 6.81467 3.34186 6.77471 2.93421 6.73767L2.85685 6.72954L2.79834 6.72316C2.65969 6.70812 2.52203 6.69316 2.38198 6.68382C2.12165 6.65392 1.83877 6.60344 1.64401 6.39835C1.63381 6.38905 1.62437 6.37914 1.61504 6.36855C1.60816 6.36072 1.60134 6.35249 1.59433 6.34386L1.58051 6.32671C1.28978 5.97929 1.2629 5.48481 1.5576 5.16462Z"/>
    <path d="M33.6403 8.4833C33.654 8.48525 33.6608 8.48622 33.6714 8.48423C33.6645 8.48326 33.654 8.48525 33.6403 8.4833Z"/>
    <path d="M33.6813 8.48908C33.6813 8.48908 33.6881 8.49006 33.6918 8.4871C33.6876 8.48678 33.6837 8.48716 33.6813 8.48908Z"/>
    </mask>
    <path d="M1.5576 5.16462C1.76844 4.94392 2.09948 4.86554 2.40074 4.94648C2.68888 4.99254 2.98273 5.01568 3.2746 5.03864C3.36999 5.04616 3.46517 5.05365 3.55987 5.06192C3.70451 5.07645 3.84878 5.09052 3.9928 5.10456C4.17204 5.12201 4.35085 5.1394 4.52949 5.15764C4.62584 5.16747 4.72212 5.1775 4.81839 5.18794C5.57938 5.26786 6.34463 5.33797 7.10359 5.40022C8.03993 5.45156 8.97391 5.4766 9.9084 5.50163C10.8148 5.52588 11.7217 5.55018 12.6318 5.59852C14.3526 5.68581 16.0791 5.81196 17.7984 5.93759L18.2637 5.97155C19.7644 6.08161 21.2683 6.15024 22.7723 6.21885C23.1074 6.23416 23.4425 6.24946 23.7775 6.2652C25.6437 6.35548 27.5104 6.43897 29.3777 6.51546C30.4181 6.5584 31.4648 6.60921 32.5072 6.66984C33.3079 6.71596 34.107 6.78266 34.9076 6.8495C35.1098 6.86639 35.3119 6.88325 35.5143 6.89981L35.5397 6.90115C35.5492 6.90171 35.5586 6.90233 35.5679 6.90306C35.5831 6.90423 35.5978 6.90571 35.612 6.90768C36.323 6.96218 37.0322 7.00143 37.7428 7.04072C38.0496 7.05766 38.3566 7.07463 38.6641 7.09284C39.0902 7.11896 39.5129 7.148 39.9354 7.17702L39.9569 7.1785C39.6518 6.88128 39.3431 6.58695 39.0339 6.29957C38.9358 6.20897 38.8372 6.11883 38.7386 6.0286C38.4836 5.79554 38.2282 5.56197 37.9807 5.31871C37.5859 4.93222 37.1905 4.55256 36.7841 4.18182C36.4564 3.90923 36.1319 3.64053 35.8005 3.37089C35.7331 3.31572 35.6644 3.26115 35.5954 3.20643C35.4119 3.06072 35.2267 2.91375 35.0611 2.75114C34.7146 2.40976 34.6784 1.85826 34.9915 1.52328C35.3009 1.19127 35.8581 1.18318 36.2045 1.52456C36.2365 1.55693 36.2722 1.58633 36.3074 1.62261C36.5345 1.81333 36.7636 2.0003 36.9923 2.18704C37.4363 2.54952 37.8792 2.91112 38.3051 3.29755C38.4904 3.46363 38.6671 3.63877 38.8442 3.81443L38.8453 3.81547C38.9765 3.94556 39.1079 4.07586 39.2433 4.20296C39.5447 4.48623 39.8465 4.76421 40.1505 5.04421L40.2808 5.16422C40.6578 5.51505 41.0291 5.87224 41.4004 6.2294C41.7111 6.52832 42.0219 6.82719 42.3357 7.12215C42.6124 7.38406 42.8964 7.6853 42.9135 8.08444C42.9301 8.43832 42.7372 8.71557 42.4581 8.87704C42.4431 8.93396 42.4213 8.98992 42.3923 9.04417C42.2223 9.3611 41.9851 9.60937 41.7405 9.8636C41.605 10.0045 41.4764 10.1464 41.3378 10.2833C40.9968 10.6212 40.6556 10.9594 40.3116 11.2934C39.6833 11.9004 39.0813 12.525 38.5213 13.187C38.1532 13.6499 37.7867 14.0921 37.3126 14.453C37.2026 14.5354 37.0886 14.6143 36.9745 14.6933C36.8373 14.7883 36.6999 14.8834 36.5693 14.9846C36.5355 15.0633 36.488 15.1401 36.4205 15.2071C36.119 15.5264 35.5429 15.5561 35.2044 15.2019C35.1823 15.1744 35.1597 15.1539 35.1409 15.1303C34.9368 14.8682 34.8333 14.5125 34.9618 14.1967C35.0522 13.9694 35.1966 13.8019 35.3842 13.6579C35.5364 13.5385 35.6931 13.4274 35.8493 13.3165C36.075 13.1565 36.2996 12.9971 36.5079 12.8149C36.6692 12.6532 36.8136 12.4858 36.9624 12.3085C37.5024 11.6367 38.0707 11.0003 38.6885 10.3953C38.8406 10.2465 38.9938 10.0984 39.1472 9.95016C39.4954 9.61344 39.8442 9.27616 40.1832 8.92903C40.0793 8.92242 39.9754 8.91579 39.8716 8.90916L39.8615 8.90847C39.0865 8.85904 38.3122 8.80968 37.5371 8.77071C36.2666 8.70445 34.9991 8.59766 33.7384 8.49143L33.6987 8.48807L33.6967 8.48778C33.695 8.48748 33.6934 8.48723 33.6918 8.4871C33.6892 8.48674 33.6871 8.48696 33.6852 8.48711C33.6823 8.48738 33.6801 8.4876 33.6782 8.48515L33.6714 8.48423L33.6508 8.48132C31.8184 8.35754 29.979 8.27799 28.1497 8.20334C26.7548 8.14669 25.3609 8.07844 23.9669 8.01019L23.9395 8.00882C23.4834 7.98648 23.0272 7.96414 22.5711 7.94226C20.7254 7.85485 18.8809 7.75372 17.0358 7.61422C15.1529 7.47282 13.2652 7.34815 11.3838 7.27659C11.1651 7.26866 10.9465 7.26199 10.728 7.25605C10.4432 7.24829 10.1585 7.24176 9.8739 7.23525C8.79374 7.21058 7.71429 7.18589 6.63201 7.09433C6.01405 7.04335 5.39697 6.98071 4.77993 6.91812C4.57404 6.89724 4.36816 6.87635 4.16224 6.85589L4.14997 6.85463C3.74596 6.81467 3.34186 6.77471 2.93421 6.73767L2.85685 6.72954L2.79834 6.72316C2.65969 6.70812 2.52203 6.69316 2.38198 6.68382C2.12165 6.65392 1.83877 6.60344 1.64401 6.39835C1.63381 6.38905 1.62437 6.37914 1.61504 6.36855C1.60816 6.36072 1.60134 6.35249 1.59433 6.34386L1.58051 6.32671C1.28978 5.97929 1.2629 5.48481 1.5576 5.16462Z" fill="black"/>
    <path d="M33.6403 8.4833C33.654 8.48525 33.6608 8.48622 33.6714 8.48423C33.6645 8.48326 33.654 8.48525 33.6403 8.4833Z" fill="black"/>
    <path d="M33.6813 8.48908C33.6813 8.48908 33.6881 8.49006 33.6918 8.4871C33.6876 8.48678 33.6837 8.48716 33.6813 8.48908Z" fill="black"/>
    <path d="M2.40074 4.94648L2.14127 5.91223L2.19151 5.92573L2.24288 5.93394L2.40074 4.94648ZM1.5576 5.16462L0.834533 4.47384L0.828108 4.48057L0.821809 4.48741L1.5576 5.16462ZM3.2746 5.03864L3.35318 4.04174L3.35302 4.04172L3.2746 5.03864ZM3.55987 5.06192L3.65981 4.06685L3.64688 4.06572L3.55987 5.06192ZM3.9928 5.10456L3.89581 6.09984L3.8959 6.09985L3.9928 5.10456ZM4.52949 5.15764L4.42787 6.15247L4.42807 6.15249L4.52949 5.15764ZM4.81839 5.18794L4.7106 6.18212L4.71395 6.18247L4.81839 5.18794ZM7.10359 5.40022L7.02183 6.39687L7.03532 6.39798L7.04883 6.39872L7.10359 5.40022ZM9.9084 5.50163L9.88163 6.50128L9.88166 6.50128L9.9084 5.50163ZM12.6318 5.59852L12.5787 6.59712L12.5811 6.59724L12.6318 5.59852ZM17.7984 5.93759L17.7255 6.93493L17.7256 6.93493L17.7984 5.93759ZM18.2637 5.97155L18.3369 4.97423L18.3365 4.9742L18.2637 5.97155ZM22.7723 6.21885L22.8179 5.21989L22.8179 5.21989L22.7723 6.21885ZM23.7775 6.2652L23.8258 5.26637L23.8244 5.2663L23.7775 6.2652ZM29.3777 6.51546L29.4189 5.51631L29.4186 5.5163L29.3777 6.51546ZM32.5072 6.66984L32.4492 7.66816L32.4497 7.66819L32.5072 6.66984ZM34.9076 6.8495L34.991 5.85297L34.9908 5.85296L34.9076 6.8495ZM35.5143 6.89981L35.4327 7.89648L35.4472 7.89766L35.4617 7.89842L35.5143 6.89981ZM35.5397 6.90115L35.5986 5.90286L35.5923 5.90253L35.5397 6.90115ZM35.612 6.90768L35.4739 7.8981L35.5046 7.90238L35.5355 7.90475L35.612 6.90768ZM37.7428 7.04072L37.6876 8.0392L37.6877 8.0392L37.7428 7.04072ZM38.6641 7.09284L38.7252 6.09472L38.7232 6.0946L38.6641 7.09284ZM39.9354 7.17702L40.0041 6.17938L40.004 6.17937L39.9354 7.17702ZM39.9569 7.1785L39.8882 8.17614L42.6054 8.36303L40.6548 6.46229L39.9569 7.1785ZM39.0339 6.29957L39.7146 5.56704L39.7126 5.56519L39.0339 6.29957ZM38.7386 6.0286L38.0638 6.76664L38.0638 6.76664L38.7386 6.0286ZM37.9807 5.31871L38.6816 4.60551L38.6802 4.60414L37.9807 5.31871ZM36.7841 4.18182L37.4581 3.44306L37.4412 3.42766L37.4237 3.41305L36.7841 4.18182ZM35.8005 3.37089L35.1671 4.1447L35.1693 4.14655L35.8005 3.37089ZM35.5954 3.20643L34.9737 3.98966L34.9737 3.9897L35.5954 3.20643ZM35.0611 2.75114L34.3593 3.46347L34.3605 3.46472L35.0611 2.75114ZM34.9915 1.52328L35.722 2.20618L35.723 2.20509L34.9915 1.52328ZM36.2045 1.52456L36.9157 0.821396L36.9064 0.812227L36.2045 1.52456ZM36.3074 1.62261L35.5893 2.31854L35.625 2.35541L35.6644 2.38843L36.3074 1.62261ZM36.9923 2.18704L37.6247 1.41242L37.6247 1.4124L36.9923 2.18704ZM38.3051 3.29755L37.6331 4.03815L37.6378 4.04236L38.3051 3.29755ZM38.8442 3.81443L38.1401 4.52453L38.1424 4.52676L38.8442 3.81443ZM38.8453 3.81547L39.5494 3.10543L39.5471 3.10314L38.8453 3.81547ZM39.2433 4.20296L39.9281 3.47428L39.9277 3.47386L39.2433 4.20296ZM40.1505 5.04421L40.828 4.30869L40.8279 4.30865L40.1505 5.04421ZM40.2808 5.16422L40.962 4.43214L40.9583 4.4287L40.2808 5.16422ZM41.4004 6.2294L40.7071 6.95008L40.7071 6.95009L41.4004 6.2294ZM42.3357 7.12215L43.0231 6.39591L43.0205 6.39346L42.3357 7.12215ZM42.9135 8.08444L41.9144 8.12721L41.9146 8.13153L42.9135 8.08444ZM42.4581 8.87704L41.9573 8.01145L41.5972 8.21977L41.4911 8.62203L42.4581 8.87704ZM42.3923 9.04417L43.2735 9.51698L43.2745 9.51517L42.3923 9.04417ZM41.7405 9.8636L41.0198 9.17034L41.0198 9.17036L41.7405 9.8636ZM41.3378 10.2833L40.6348 9.57207L40.6338 9.57308L41.3378 10.2833ZM40.3116 11.2934L41.0064 12.0126L41.0081 12.0109L40.3116 11.2934ZM38.5213 13.187L37.7579 12.5412L37.7481 12.5527L37.7386 12.5646L38.5213 13.187ZM37.3126 14.453L37.9121 15.2534L37.9183 15.2487L37.3126 14.453ZM36.9745 14.6933L36.4054 13.871L36.4053 13.8711L36.9745 14.6933ZM36.5693 14.9846L35.9568 14.1941L35.7526 14.3523L35.6506 14.5896L36.5693 14.9846ZM36.4205 15.2071L35.7158 14.4977L35.7045 14.5089L35.6936 14.5204L36.4205 15.2071ZM35.2044 15.2019L34.4242 15.8275L34.4514 15.8615L34.4815 15.8929L35.2044 15.2019ZM35.1409 15.1303L34.3519 15.7448L34.3563 15.7504L34.3607 15.7559L35.1409 15.1303ZM34.9618 14.1967L35.8881 14.5734L35.891 14.5663L34.9618 14.1967ZM35.3842 13.6579L35.9931 14.4512L36.0013 14.4448L35.3842 13.6579ZM35.8493 13.3165L36.4278 14.1322L36.428 14.1321L35.8493 13.3165ZM36.5079 12.8149L37.1664 13.5675L37.1919 13.5452L37.2158 13.5212L36.5079 12.8149ZM36.9624 12.3085L37.7285 12.9511L37.7352 12.9431L37.7417 12.935L36.9624 12.3085ZM38.6885 10.3953L37.9893 9.68036L37.9888 9.6809L38.6885 10.3953ZM39.1472 9.95016L39.8422 10.6691L39.8423 10.669L39.1472 9.95016ZM40.1832 8.92903L40.8986 9.62771L42.4204 8.06936L40.2467 7.93105L40.1832 8.92903ZM39.8716 8.90916L39.8031 9.90682L39.8078 9.90712L39.8716 8.90916ZM39.8615 8.90847L39.93 7.9108L39.9252 7.9105L39.8615 8.90847ZM37.5371 8.77071L37.485 9.76935L37.4869 9.76945L37.5371 8.77071ZM33.7384 8.49143L33.654 9.48787L33.6544 9.4879L33.7384 8.49143ZM33.6987 8.48807L33.5533 9.47744L33.5837 9.48191L33.6143 9.48451L33.6987 8.48807ZM33.6967 8.48778L33.5201 9.47206L33.5356 9.47485L33.5513 9.47715L33.6967 8.48778ZM33.6852 8.48711L33.6042 7.49037L33.596 7.49111L33.6852 8.48711ZM33.6782 8.48515L34.4583 7.85954L34.2083 7.5478L33.8123 7.49419L33.6782 8.48515ZM33.6508 8.48132L33.7916 7.49127L33.755 7.48608L33.7182 7.48359L33.6508 8.48132ZM28.1497 8.20334L28.1904 7.20417L28.1902 7.20416L28.1497 8.20334ZM23.9669 8.01019L23.9171 9.00895L23.918 9.00899L23.9669 8.01019ZM23.9395 8.00882L23.9894 7.01006L23.9884 7.01002L23.9395 8.00882ZM22.5711 7.94226L22.619 6.94341L22.6184 6.94338L22.5711 7.94226ZM17.0358 7.61422L17.1112 6.61706L17.1107 6.61703L17.0358 7.61422ZM11.3838 7.27659L11.4218 6.27731L11.42 6.27724L11.3838 7.27659ZM10.728 7.25605L10.7007 8.25568L10.7008 8.25568L10.728 7.25605ZM9.8739 7.23525L9.89674 6.23552L9.89673 6.23552L9.8739 7.23525ZM6.63201 7.09433L6.71631 6.09789L6.71424 6.09772L6.63201 7.09433ZM4.77993 6.91812L4.67901 7.91302L4.67901 7.91302L4.77993 6.91812ZM4.16224 6.85589L4.0601 7.85066L4.06335 7.85099L4.16224 6.85589ZM4.14997 6.85463L4.25212 5.85985L4.2484 5.85948L4.14997 6.85463ZM2.93421 6.73767L2.82967 7.7323L2.84373 7.73357L2.93421 6.73767ZM2.85685 6.72954L2.74836 7.72365L2.75233 7.72407L2.85685 6.72954ZM2.79834 6.72316L2.90683 5.72906L2.90617 5.72899L2.79834 6.72316ZM2.38198 6.68382L2.26787 7.67729L2.29159 7.68001L2.31542 7.6816L2.38198 6.68382ZM1.64401 6.39835L2.36914 5.70974L2.34446 5.68374L2.31798 5.65959L1.64401 6.39835ZM1.61504 6.36855L0.864303 7.02914L0.864518 7.02939L1.61504 6.36855ZM1.59433 6.34386L0.815415 6.97102L0.818268 6.97452L1.59433 6.34386ZM1.58051 6.32671L2.35941 5.69956L2.35348 5.69219L2.34741 5.68493L1.58051 6.32671ZM33.6813 8.48908L33.0557 7.70895L31.2562 9.15206L33.5396 9.47899L33.6813 8.48908ZM2.66021 3.98073C2.04482 3.81539 1.32471 3.96075 0.834533 4.47384L2.28066 5.8554C2.24528 5.89244 2.21001 5.90697 2.19011 5.912C2.17111 5.9168 2.15556 5.91607 2.14127 5.91223L2.66021 3.98073ZM3.35302 4.04172C3.05431 4.01822 2.80057 3.9977 2.5586 3.95902L2.24288 5.93394C2.57719 5.98739 2.91115 6.01314 3.19617 6.03556L3.35302 4.04172ZM3.64688 4.06572C3.54722 4.05701 3.44772 4.04919 3.35318 4.04174L3.19601 6.03555C3.29226 6.04314 3.38312 6.05029 3.47286 6.05813L3.64688 4.06572ZM4.08979 4.10927C3.94561 4.09522 3.80275 4.08129 3.6598 4.06693L3.45994 6.05692C3.60626 6.07161 3.75195 6.08582 3.89581 6.09984L4.08979 4.10927ZM4.63111 4.16282C4.44969 4.14429 4.26844 4.12666 4.0897 4.10926L3.8959 6.09985C4.07563 6.11735 4.25202 6.13451 4.42787 6.15247L4.63111 4.16282ZM4.92618 4.19377C4.82721 4.18304 4.72871 4.17277 4.63091 4.1628L4.42807 6.15249C4.52297 6.16216 4.61703 6.17197 4.71061 6.18211L4.92618 4.19377ZM7.18534 4.40357C6.43267 4.34183 5.67509 4.27241 4.92283 4.19341L4.71395 6.18247C5.48367 6.2633 6.25659 6.33411 7.02183 6.39687L7.18534 4.40357ZM9.93518 4.50199C8.99842 4.4769 8.07839 4.45217 7.15833 4.40172L7.04883 6.39872C8.00146 6.45096 8.94941 6.47631 9.88163 6.50128L9.93518 4.50199ZM12.6848 4.59993C11.7595 4.55078 10.8394 4.52618 9.93514 4.50199L9.88166 6.50128C10.7902 6.52558 11.684 6.54959 12.5787 6.59711L12.6848 4.59993ZM17.8712 4.94024C16.1538 4.81476 14.4162 4.68776 12.6824 4.5998L12.5811 6.59724C14.289 6.68387 16.0043 6.80917 17.7255 6.93493L17.8712 4.94024ZM18.3365 4.9742L17.8711 4.94024L17.7256 6.93493L18.191 6.9689L18.3365 4.9742ZM22.8179 5.21989C21.3116 5.15117 19.8215 5.08311 18.3369 4.97423L18.1906 6.96887C19.7073 7.08011 21.2251 7.1493 22.7267 7.21781L22.8179 5.21989ZM23.8244 5.2663C23.4886 5.25053 23.1529 5.23519 22.8179 5.21989L22.7267 7.21781C23.0618 7.23312 23.3963 7.2484 23.7306 7.2641L23.8244 5.2663ZM29.4186 5.5163C27.5539 5.43991 25.6895 5.35653 23.8258 5.26637L23.7292 7.26403C25.5978 7.35443 27.467 7.43802 29.3367 7.51463L29.4186 5.5163ZM32.5653 5.67153C31.5165 5.61052 30.4641 5.55945 29.4189 5.51631L29.3364 7.51461C30.372 7.55735 31.413 7.60789 32.4492 7.66816L32.5653 5.67153ZM34.9908 5.85296C34.1923 5.78631 33.3804 5.71848 32.5647 5.6715L32.4497 7.66819C33.2354 7.71344 34.0216 7.77902 34.8245 7.84603L34.9908 5.85296ZM35.5958 5.90314C35.3944 5.88666 35.193 5.86986 34.991 5.85297L34.8243 7.84602C35.0265 7.86293 35.2294 7.87984 35.4327 7.89648L35.5958 5.90314ZM35.4617 7.89842L35.4871 7.89976L35.5923 5.90253L35.5669 5.90119L35.4617 7.89842ZM35.6455 5.90607C35.6285 5.90475 35.6127 5.90372 35.5986 5.90288L35.4808 7.89941C35.4857 7.8997 35.4887 7.89992 35.4904 7.90005L35.6455 5.90607ZM35.75 5.91725C35.71 5.91168 35.6741 5.90829 35.6455 5.90607L35.4904 7.90005C35.491 7.90009 35.4898 7.9 35.4872 7.89974C35.4847 7.89947 35.4801 7.89896 35.4739 7.8981L35.75 5.91725ZM37.7981 6.04225C37.0857 6.00286 36.387 5.96416 35.6884 5.9106L35.5355 7.90475C36.2589 7.9602 36.9787 8 37.6876 8.0392L37.7981 6.04225ZM38.7232 6.0946C38.4134 6.07624 38.1044 6.05916 37.798 6.04224L37.6877 8.0392C37.9947 8.05615 38.2997 8.07301 38.6049 8.09109L38.7232 6.0946ZM40.004 6.17937C39.582 6.15039 39.1557 6.1211 38.7252 6.09472L38.6029 8.09097C39.0248 8.11683 39.4438 8.1456 39.8669 8.17467L40.004 6.17937ZM40.0255 6.18085L40.0041 6.17938L39.8668 8.17466L39.8882 8.17614L40.0255 6.18085ZM38.3531 7.0321C38.6561 7.31368 38.9591 7.60253 39.259 7.8947L40.6548 6.46229C40.3446 6.16002 40.0301 5.86023 39.7146 5.56705L38.3531 7.0321ZM38.0638 6.76664C38.1629 6.8572 38.2594 6.9455 38.3551 7.03396L39.7126 5.56519C39.6123 5.47244 39.5116 5.38045 39.4133 5.29055L38.0638 6.76664ZM37.2797 6.03191C37.5422 6.28993 37.8111 6.53558 38.0638 6.76664L39.4133 5.29056C39.1562 5.05549 38.9141 4.83401 38.6816 4.60551L37.2797 6.03191ZM36.1102 4.92058C36.5044 5.28023 36.8905 5.65086 37.2811 6.03329L38.6802 4.60414C38.2813 4.21358 37.8766 3.82489 37.4581 3.44306L36.1102 4.92058ZM35.1693 4.14655C35.4966 4.41281 35.8179 4.67885 36.1446 4.95058L37.4237 3.41305C37.0949 3.13961 36.7672 2.86824 36.4316 2.59523L35.1693 4.14655ZM34.9737 3.9897C35.0436 4.04512 35.1064 4.09507 35.1671 4.1447L36.4339 2.59709C36.3598 2.53638 36.2852 2.47719 36.2171 2.42317L34.9737 3.9897ZM34.3605 3.46472C34.5702 3.67052 34.7975 3.84982 34.9737 3.98966L36.2172 2.42321C36.0262 2.27162 35.8833 2.15698 35.7617 2.03755L34.3605 3.46472ZM34.261 0.840394C33.5293 1.62311 33.6792 2.79341 34.3593 3.46347L35.7629 2.0388C35.7691 2.04486 35.776 2.05567 35.7772 2.07544C35.7785 2.09701 35.772 2.15268 35.722 2.20618L34.261 0.840394ZM36.9064 0.812227C36.1827 0.099216 34.9759 0.0733061 34.26 0.84148L35.723 2.20509C35.6723 2.25949 35.6165 2.27128 35.588 2.27139C35.5579 2.27151 35.5263 2.26013 35.5027 2.23689L36.9064 0.812227ZM37.0255 0.926691C36.9859 0.885749 36.9491 0.852032 36.9317 0.836063C36.9082 0.814434 36.9112 0.817014 36.9156 0.821457L35.4934 2.22766C35.5133 2.24774 35.5313 2.26492 35.5451 2.27788C35.5581 2.29 35.5714 2.30224 35.5779 2.30817C35.5951 2.32406 35.5938 2.32319 35.5893 2.31854L37.0255 0.926691ZM37.6247 1.4124C37.3951 1.22496 37.1714 1.04233 36.9505 0.8568L35.6644 2.38843C35.8976 2.58432 36.132 2.77565 36.3599 2.96168L37.6247 1.4124ZM38.977 2.55698C38.5286 2.1501 38.0654 1.77219 37.6247 1.41242L36.3599 2.96166C36.8072 3.32685 37.2297 3.67214 37.6331 4.03813L38.977 2.55698ZM39.5483 3.10434C39.3742 2.93167 39.1797 2.73854 38.9724 2.55275L37.6378 4.04236C37.8012 4.18873 37.9599 4.34587 38.1401 4.52452L39.5483 3.10434ZM39.5471 3.10314L39.5461 3.1021L38.1424 4.52676L38.1434 4.5278L39.5471 3.10314ZM39.9277 3.47386C39.8039 3.3577 39.6822 3.23707 39.5494 3.10543L38.1411 4.52551C38.2707 4.65405 38.4118 4.79402 38.5588 4.93206L39.9277 3.47386ZM40.8279 4.30865C40.5233 4.0281 40.2252 3.75352 39.9281 3.47428L38.5584 4.93164C38.8641 5.21894 39.1696 5.50032 39.473 5.77976L40.8279 4.30865ZM40.9583 4.4287L40.828 4.30869L39.473 5.77973L39.6033 5.89974L40.9583 4.4287ZM42.0937 5.50871C41.7234 5.15251 41.3461 4.78956 40.962 4.43215L39.5995 5.89629C39.9695 6.24054 40.3349 6.59198 40.7071 6.95008L42.0937 5.50871ZM43.0205 6.39346C42.7116 6.10314 42.4051 5.80829 42.0936 5.50871L40.7071 6.95009C41.0172 7.24835 41.3321 7.55125 41.6508 7.85084L43.0205 6.39346ZM43.9125 8.04167C43.8761 7.1902 43.2735 6.63293 43.0231 6.39591L41.6482 7.84838C41.7803 7.97335 41.8527 8.05216 41.8958 8.11529C41.9317 8.16801 41.916 8.16527 41.9144 8.12721L43.9125 8.04167ZM42.9588 9.74263C43.4982 9.43059 43.9498 8.83249 43.9123 8.03736L41.9146 8.13153C41.9141 8.12223 41.9149 8.10612 41.92 8.08612C41.9251 8.06633 41.9329 8.04873 41.9415 8.03463C41.9582 8.00702 41.9704 8.00391 41.9573 8.01145L42.9588 9.74263ZM41.4911 8.62203C41.4958 8.60437 41.5024 8.5878 41.5102 8.57318L43.2745 9.51517C43.3402 9.39204 43.3903 9.26356 43.425 9.13205L41.4911 8.62203ZM41.5112 8.57137C41.4159 8.74892 41.2761 8.90387 41.0198 9.17034L42.4612 10.5569C42.694 10.3149 43.0287 9.97328 43.2735 9.51698L41.5112 8.57137ZM41.0198 9.17036C40.8548 9.34189 40.764 9.44442 40.6349 9.57207L42.0407 10.9946C42.1887 10.8483 42.3552 10.6671 42.4612 10.5568L41.0198 9.17036ZM40.6338 9.57308C40.2924 9.91151 39.9547 10.2461 39.615 10.5759L41.0081 12.0109C41.3565 11.6727 41.7013 11.3309 42.0417 10.9936L40.6338 9.57308ZM39.6168 10.5742C38.972 11.1971 38.3453 11.8466 37.7579 12.5412L39.2848 13.8328C39.8172 13.2034 40.3946 12.6036 41.0064 12.0126L39.6168 10.5742ZM37.7386 12.5646C37.3707 13.0273 37.0717 13.3796 36.7069 13.6573L37.9183 15.2487C38.5018 14.8045 38.9358 14.2725 39.304 13.8094L37.7386 12.5646ZM36.7131 13.6526C36.6206 13.7219 36.5222 13.7902 36.4054 13.871L37.5437 15.5155C37.655 15.4384 37.7846 15.3489 37.9121 15.2534L36.7131 13.6526ZM36.4053 13.8711C36.2719 13.9635 36.1122 14.0737 35.9568 14.1941L37.1818 15.7751C37.2876 15.6931 37.4027 15.6131 37.5438 15.5154L36.4053 13.8711ZM35.6506 14.5896C35.6577 14.573 35.6767 14.5365 35.7158 14.4977L37.1253 15.9166C37.2993 15.7438 37.4132 15.5536 37.488 15.3796L35.6506 14.5896ZM35.6936 14.5204C35.7487 14.4621 35.7974 14.4574 35.8126 14.4572C35.8356 14.4568 35.8842 14.466 35.9272 14.5109L34.4815 15.8929C35.2298 16.6757 36.4673 16.6139 37.1475 15.8938L35.6936 14.5204ZM35.9845 14.5763C35.9472 14.5299 35.9124 14.493 35.9024 14.4822C35.8949 14.4742 35.8962 14.4756 35.8981 14.4777C35.901 14.4809 35.9097 14.4906 35.921 14.5047L34.3607 15.7559C34.3815 15.7818 34.4001 15.803 34.4132 15.8175C34.4253 15.8309 34.4372 15.8436 34.4404 15.847C34.4519 15.8593 34.4394 15.8465 34.4242 15.8275L35.9845 14.5763ZM35.9298 14.5159C35.9206 14.5041 35.9135 14.4923 35.9087 14.4824C35.9039 14.4724 35.903 14.4677 35.9034 14.4696C35.9039 14.4717 35.9061 14.4829 35.9049 14.5021C35.9036 14.5221 35.8988 14.5471 35.8881 14.5734L34.0355 13.8199C33.7301 14.5707 34.0069 15.3017 34.3519 15.7448L35.9298 14.5159ZM35.891 14.5663C35.8986 14.547 35.9064 14.5344 35.9164 14.522C35.9277 14.5079 35.9496 14.4846 35.993 14.4512L34.7753 12.8646C34.4782 13.0927 34.2037 13.397 34.0326 13.8271L35.891 14.5663ZM36.0013 14.4448C36.1315 14.3427 36.2686 14.2452 36.4278 14.1322L35.2709 12.5009C35.1176 12.6095 34.9413 12.7344 34.767 12.8711L36.0013 14.4448ZM36.428 14.1321C36.6467 13.9769 36.9134 13.7888 37.1664 13.5675L35.8495 12.0622C35.6858 12.2054 35.5033 12.336 35.2707 12.501L36.428 14.1321ZM37.2158 13.5212C37.4089 13.3277 37.576 13.133 37.7285 12.9511L36.1962 11.6658C36.0513 11.8385 35.9296 11.9787 35.8001 12.1085L37.2158 13.5212ZM37.7417 12.935C38.2601 12.2902 38.8021 11.6838 39.3882 11.1098L37.9888 9.6809C37.3393 10.3169 36.7446 10.9833 36.183 11.6819L37.7417 12.935ZM39.3876 11.1103C39.5374 10.9638 39.6886 10.8176 39.8422 10.6691L38.4521 9.23121C38.2991 9.37917 38.1438 9.52924 37.9893 9.68036L39.3876 11.1103ZM39.8423 10.669C40.1888 10.334 40.548 9.98678 40.8986 9.62771L39.4677 8.23036C39.1404 8.56553 38.802 8.8929 38.452 9.2313L39.8423 10.669ZM39.8078 9.90712C39.9117 9.91376 40.0157 9.9204 40.1197 9.92701L40.2467 7.93105C40.1429 7.92445 40.0391 7.91783 39.9353 7.91119L39.8078 9.90712ZM39.793 9.90612L39.8031 9.90681L39.94 7.9115L39.93 7.91082L39.793 9.90612ZM37.4869 9.76945C38.2542 9.80802 39.0217 9.85694 39.7979 9.90644L39.9252 7.9105C39.1512 7.86114 38.3703 7.81133 37.5873 7.77197L37.4869 9.76945ZM33.6544 9.4879C34.9126 9.59391 36.1959 9.70212 37.485 9.76935L37.5892 7.77206C36.3373 7.70678 35.0857 7.60141 33.8223 7.49496L33.6544 9.4879ZM33.6143 9.48451L33.654 9.48787L33.8227 7.49499L33.783 7.49163L33.6143 9.48451ZM33.5513 9.47715L33.5533 9.47744L33.8441 7.4987L33.8421 7.4984L33.5513 9.47715ZM33.6101 9.48375C33.5653 9.48008 33.531 9.47402 33.5201 9.47206L33.8733 7.5035C33.859 7.50093 33.8216 7.49438 33.7736 7.49045L33.6101 9.48375ZM33.7663 9.48382C33.7857 9.48224 33.679 9.49475 33.5556 9.47778L33.8281 7.49643C33.6995 7.47874 33.5885 7.49168 33.6042 7.4904L33.7663 9.48382ZM32.898 9.11077C32.9596 9.18755 33.0447 9.27049 33.1586 9.34001C33.2742 9.41064 33.3911 9.45002 33.4958 9.46978C33.5936 9.48826 33.6731 9.48804 33.7137 9.4868C33.75 9.48569 33.7831 9.48235 33.7745 9.48312L33.596 7.49111C33.5859 7.49201 33.6176 7.4888 33.6527 7.48773C33.6919 7.48653 33.7702 7.48626 33.8669 7.50452C33.9704 7.52406 34.0862 7.56306 34.2008 7.63305C34.3136 7.70192 34.3977 7.78398 34.4583 7.85954L32.898 9.11077ZM33.5372 9.47519L33.544 9.47611L33.8123 7.49419L33.8055 7.49327L33.5372 9.47519ZM33.5101 9.47136L33.5306 9.47428L33.8121 7.49418L33.7916 7.49127L33.5101 9.47136ZM28.1089 9.2025C29.9381 9.27715 31.7656 9.35625 33.5834 9.47904L33.7182 7.48359C31.8712 7.35882 30.0199 7.27883 28.1904 7.20417L28.1089 9.2025ZM23.918 9.00899C25.3113 9.07721 26.7094 9.14567 28.1091 9.20251L28.1902 7.20416C26.8002 7.14771 25.4105 7.07967 24.0158 7.01139L23.918 9.00899ZM23.8896 9.00757L23.9171 9.00894L24.0168 7.01143L23.9894 7.01006L23.8896 9.00757ZM22.5232 8.94111C22.9787 8.96296 23.4343 8.98528 23.8906 9.00762L23.9884 7.01002C23.5324 6.98768 23.0757 6.96531 22.619 6.94341L22.5232 8.94111ZM16.9604 8.61137C18.8187 8.75188 20.6737 8.85352 22.5238 8.94114L22.6184 6.94338C20.7772 6.85618 18.943 6.75557 17.1112 6.61706L16.9604 8.61137ZM11.3458 8.27586C13.2094 8.34675 15.0832 8.4704 16.961 8.61141L17.1107 6.61703C15.2226 6.47524 13.3211 6.34955 11.4218 6.27731L11.3458 8.27586ZM10.7008 8.25568C10.9171 8.26156 11.1326 8.26814 11.3476 8.27593L11.42 6.27724C11.1975 6.26918 10.9758 6.26242 10.7551 6.25642L10.7008 8.25568ZM9.85106 8.23499C10.1359 8.2415 10.4184 8.24799 10.7007 8.25568L10.7552 6.25642C10.4679 6.24859 10.1811 6.24201 9.89674 6.23552L9.85106 8.23499ZM6.54771 8.09077C7.66573 8.18536 8.77588 8.21043 9.85106 8.23499L9.89673 6.23552C8.81159 6.21073 7.76284 6.18643 6.71631 6.09789L6.54771 8.09077ZM4.67901 7.91302C5.29442 7.97544 5.92089 8.03906 6.54979 8.09095L6.71424 6.09772C6.10721 6.04764 5.49951 5.98598 4.88084 5.92323L4.67901 7.91302ZM4.06335 7.85099C4.26808 7.87133 4.47295 7.89211 4.67901 7.91302L4.88085 5.92323C4.67513 5.90236 4.46824 5.88137 4.26114 5.86079L4.06335 7.85099ZM4.04782 7.8494L4.0601 7.85066L4.26439 5.86112L4.25212 5.85986L4.04782 7.8494ZM2.84373 7.73357C3.24676 7.77019 3.64691 7.80975 4.05155 7.84977L4.2484 5.85948C3.84501 5.81959 3.43696 5.77923 3.02468 5.74177L2.84373 7.73357ZM2.75233 7.72407L2.82968 7.7322L3.03873 5.74315L2.96138 5.73502L2.75233 7.72407ZM2.68985 7.71726L2.74836 7.72364L2.96534 5.73545L2.90683 5.72906L2.68985 7.71726ZM2.31542 7.6816C2.43134 7.68933 2.54839 7.70191 2.69052 7.71733L2.90617 5.72899C2.771 5.71433 2.61272 5.69699 2.44853 5.68603L2.31542 7.6816ZM0.918881 7.08696C1.38808 7.58105 2.01849 7.64864 2.26787 7.67729L2.49609 5.69035C2.44091 5.68401 2.39936 5.67822 2.36471 5.67186C2.33043 5.66557 2.31072 5.66009 2.301 5.65689C2.28349 5.65113 2.32298 5.66113 2.36914 5.70974L0.918881 7.08696ZM0.864518 7.02939C0.890525 7.05892 0.925758 7.09671 0.970046 7.13711L2.31798 5.65959C2.34187 5.68138 2.35822 5.69936 2.36557 5.70771L0.864518 7.02939ZM0.818268 6.97452C0.82852 6.98714 0.84478 7.00696 0.864303 7.02914L2.36579 5.70795C2.36894 5.71153 2.37099 5.71398 2.37166 5.71477C2.37228 5.71551 2.37204 5.71523 2.37038 5.7132L0.818268 6.97452ZM0.801614 6.95385L0.815424 6.97101L2.37323 5.71672L2.35941 5.69956L0.801614 6.95385ZM0.821809 4.48741C0.124616 5.24491 0.263497 6.31111 0.813621 6.96849L2.34741 5.68493C2.34057 5.67676 2.3483 5.67992 2.34907 5.70541C2.34948 5.7193 2.34763 5.74082 2.33832 5.76706C2.32865 5.79428 2.313 5.82052 2.29339 5.84183L0.821809 4.48741ZM33.4993 9.47331C33.5031 9.47384 33.6632 9.50335 33.8565 9.46695L33.4862 7.50152C33.5184 7.49545 33.5555 7.49024 33.5967 7.48746C33.6381 7.48467 33.6753 7.4849 33.7072 7.4865C33.7372 7.48801 33.7603 7.49065 33.7708 7.49194C33.7798 7.49304 33.7873 7.49413 33.7813 7.49329L33.4993 9.47331ZM33.8116 7.49411C33.7707 7.48832 33.7363 7.486 33.7123 7.48495C33.6881 7.48389 33.6685 7.48389 33.6567 7.48399C33.6451 7.48409 33.6357 7.48437 33.6331 7.48445C33.6323 7.48447 33.6296 7.48455 33.6306 7.48452C33.6306 7.48452 33.6309 7.48451 33.6313 7.4845C33.6317 7.48449 33.6324 7.48447 33.6332 7.48445C33.647 7.4841 33.7059 7.48255 33.7813 7.49329L33.4993 9.47331C33.5884 9.48599 33.6595 9.48442 33.6836 9.48381C33.6865 9.48374 33.6888 9.48367 33.69 9.48364C33.6906 9.48362 33.6912 9.4836 33.6913 9.4836C33.6916 9.48359 33.6914 9.4836 33.6912 9.4836C33.691 9.48361 33.6839 9.48383 33.6744 9.48391C33.6648 9.484 33.6472 9.48401 33.625 9.48304C33.6029 9.48208 33.5703 9.4799 33.5311 9.47435L33.8116 7.49411ZM33.6813 8.48908C33.5396 9.47899 33.5398 9.47902 33.5401 9.47906C33.5402 9.47907 33.5404 9.4791 33.5406 9.47913C33.5409 9.47917 33.5412 9.47922 33.5415 9.47927C33.5422 9.47936 33.5428 9.47945 33.5435 9.47954C33.5448 9.47973 33.5462 9.47991 33.5475 9.4801C33.5503 9.48046 33.5531 9.48083 33.5559 9.48119C33.5617 9.48192 33.5678 9.48264 33.5742 9.48333C33.5869 9.48471 33.6014 9.48603 33.6175 9.48708C33.6481 9.48907 33.6913 9.49052 33.743 9.48753C33.8022 9.48411 34.0663 9.46868 34.3175 9.26723L33.0662 7.70697C33.2008 7.59905 33.334 7.54948 33.4191 7.52568C33.5064 7.50123 33.5802 7.49361 33.6274 7.49087C33.6769 7.48801 33.7182 7.4894 33.7474 7.4913C33.7627 7.4923 33.7767 7.49357 33.789 7.49491C33.7953 7.49558 33.8012 7.49628 33.8069 7.49699C33.8097 7.49735 33.8124 7.49771 33.8151 7.49808C33.8165 7.49826 33.8178 7.49844 33.8191 7.49863C33.8198 7.49872 33.8205 7.49881 33.8211 7.4989C33.8214 7.49895 33.8218 7.49899 33.8221 7.49904C33.8222 7.49906 33.8225 7.4991 33.8226 7.49911C33.8228 7.49914 33.823 7.49918 33.6813 8.48908ZM33.7677 7.48998C33.7411 7.48796 33.3827 7.44676 33.0557 7.70895L34.3069 9.26922C34.1285 9.41234 33.9471 9.45781 33.8475 9.47412C33.7438 9.49108 33.6602 9.48759 33.6159 9.48422L33.7677 7.48998Z" fill="black" mask="url(#path-1-outside-1_15_106)"/>
    </svg>
    