<svg width="891" height="908" viewBox="0 0 891 908" fill="none" xmlns="http://www.w3.org/2000/svg">
    <path d="M876.061 862.799L850.937 868.69C850.937 868.69 841.347 841.744 832.699 818.984C824.057 796.224 762 680.522 762 680.522C745.019 631.354 802.544 565.638 802.544 565.638L860.567 603.385C860.567 603.385 835.423 640.177 836.203 642.284C837.487 645.713 838.906 649.395 840.46 653.398C846.673 669.605 854.091 690.64 855.772 720.307C856.808 737.762 865.039 792.664 870.729 828.945C873.768 848.617 876.061 862.799 876.061 862.799Z" fill="#B3702D"/>
    <path d="M855.782 720.297C854.101 690.63 846.684 669.602 840.47 653.395C837.443 652.181 833.953 651.69 829.938 652.188C828.143 650.803 825.103 651.554 824.626 653.96C824.014 655.004 824.148 656.381 824.841 657.479C828.109 684.18 836.098 709.224 845.002 734.52C855.486 764.515 861.055 795 865.601 826.474C865.984 829.317 868.849 830.067 870.739 828.942C865.049 792.654 856.818 737.759 855.782 720.297Z" fill="#B3702D"/>
    <path d="M753.516 658.508C753.584 658.774 733.9 881.253 733.9 881.253L710.853 877.087C710.853 877.087 707.585 853.597 703.469 829.569C699.347 805.534 679.253 672.486 679.253 672.486C672.091 620.939 753.012 655.89 753.516 658.508Z" fill="#B3702D"/>
    <path d="M699.925 666.005C697.148 666.073 696.347 669.271 697.477 671.358C699.024 673.962 700.315 676.649 701.606 679.322C696.173 676.042 690.194 673.049 683.604 670.376C679.663 668.712 676.825 674.958 680.833 676.594C689.636 680.208 698.513 684.081 705.991 689.767C722.898 736.106 712.951 789.419 729.824 836.398C730.47 838.266 734.633 854.112 736.146 854.535C736.085 853.567 753.045 683.29 750.712 667.601C739.824 664.007 710.013 665.644 699.925 666.005Z" fill="#B3702D"/>
    <path d="M873.671 842.623C873.671 842.623 894.067 856.212 890.604 874.772C890.604 874.772 835.944 897.15 814.236 902.182C814.236 902.182 794.236 888.9 810.913 879.668C827.585 870.429 846.287 855.742 846.287 855.742C846.287 855.742 866.448 861.769 873.671 842.623Z" fill="#1F0D52"/>
    <path d="M734.982 860.426C734.982 860.426 747.82 879.313 738.338 895.146C738.338 895.146 680.571 896.612 658.923 893.652C658.923 893.652 645.077 874.493 663.523 871.827C681.97 869.161 708.499 863.89 708.499 863.89C708.499 863.89 721.848 875.481 734.982 860.426Z" fill="#1F0D52"/>
    <path d="M379.284 220.503C378.639 218.619 356.742 211.354 356.742 211.354C355.304 211.968 271.065 291.394 264.868 287.606C242.701 274.053 235.463 185.336 197.439 174.627C188.087 171.984 178.998 169.702 172.688 174.306C171.632 175.063 170.7 175.908 169.814 177.036C155.588 194.974 164.761 230.838 177.413 263.71C179.801 285.951 194.296 307.437 212.831 322.758C237.569 343.315 255.516 353.403 278.602 345.497C302.688 337.249 382.493 219.764 379.284 220.503Z" fill="#E2EFF0"/>
    <path d="M197.917 293.887C202.514 294.853 236.154 284.663 235.811 282.405C232.172 258.146 229.117 203.18 216.678 189.941C211.384 184.303 204.767 178.874 197.443 174.624C188.377 171.101 179.001 169.706 172.691 174.31C179.194 178.428 191.545 187.607 197.454 190.97C208.695 203.278 215.855 220.458 217.483 236.903C217.318 240.254 197.668 290.596 197.917 293.887Z" fill="#D2E7EB"/>
    <path d="M171.503 850.256C171.503 850.256 159.418 869.225 168.053 884.13C168.053 884.13 230.972 887.383 249.969 884.13C249.969 884.13 250.474 858.657 234.186 856.488C217.905 854.327 199.559 854.634 199.559 854.634C199.559 854.634 183.332 864.343 171.503 850.256Z" fill="#B0A6FF"/>
    <path d="M201.705 827.05C199.29 823.736 173.15 826.511 172.888 828.23C172.081 833.507 170.851 853.751 173.345 856.431C175.766 859.022 198.329 864.674 198.833 859.547C199.277 855.115 204.038 830.255 201.705 827.05Z" fill="#FF505C"/>
    <path d="M172.199 581.385C175.158 622.036 172.434 703.994 169.475 744.646C169.294 747.38 169.294 841.795 169.294 841.795L204.082 845.456C223.019 783.395 259.186 644.217 259.186 582.421C259.186 520.639 254.337 417.681 233.665 368.841C214.008 322.407 136.463 386.541 127.344 397.921C123.14 403.192 131.096 450.205 142.105 481.358C154.902 517.455 170.598 559.532 172.199 581.385Z" fill="#11B1D7"/>
    <path d="M169.29 841.802L190.75 844.059C188.799 829.228 190.729 796.152 191.496 781.056C192.922 754.778 198.84 729.093 204.408 703.592C213.171 663.145 221.523 620.284 211.099 579.176C205.713 558.045 193.931 543.345 184.334 524.676C177.939 512.062 174.738 497.879 175.686 483.438C176.217 475.57 180.662 465.621 178.235 457.753C175.215 447.798 148.12 414.169 141.194 419.242C132.848 425.427 137.058 449.312 133.682 460.426C146.473 496.523 170.595 559.539 172.196 581.392C175.155 622.043 169.035 703.653 167.011 744.373C164.986 784.915 169.29 841.802 169.29 841.802Z" fill="#0091C1"/>
    <path d="M58.8164 827.166C56.4021 823.845 33.9946 826.511 33.7324 828.23C32.9321 833.514 31.6947 853.758 34.1897 856.437C36.6039 859.035 56.2676 867.456 56.772 862.329C57.2159 857.903 61.1499 830.371 58.8164 827.166Z" fill="#FF505C"/>
    <path d="M31.0524 841.791L61.9401 845.446C78.0598 786.91 121.133 686.904 127.468 625.504C137.3 530.161 149.169 428.055 149.701 402.956C149.761 398.92 149.822 396.772 149.822 396.772C128.564 368.353 92.5318 356.768 76.4794 354.689C70.1445 353.843 65.5245 355.207 63.5137 358.848C56.9972 370.821 51.9065 381.874 47.9387 392.279C22.0612 459.795 43.85 500.569 43.3792 588.37C43.3792 593.443 43.3187 598.646 43.2044 603.787C42.3705 640.075 51.2878 684.783 41.7854 722.694C23.1506 797.056 31.0524 841.791 31.0524 841.791Z" fill="#11B1D7"/>
    <path d="M31.0525 841.802L38.0868 842.552C37.9119 822.649 38.3423 794.495 40.2993 774.715C43.3793 743.5 51.3147 714.229 61.1466 684.834C76.8964 637.487 87.4949 590.726 84.4754 539.799C82.8211 512.096 74.8251 486.39 71.3281 459.212C69.082 441.641 72.3907 424.813 74.9394 407.767C76.3046 398.078 77.4882 388.321 77.2528 378.304C77.0107 370.109 47.9522 376.668 47.9522 390.169C22.0747 457.678 43.85 500.58 43.3793 588.381C43.3793 593.454 43.3188 598.656 43.2044 603.797C42.4311 640.085 41.234 681.377 35.8608 720.256C22.9489 813.751 31.0525 841.802 31.0525 841.802Z" fill="#0091C1"/>
    <path d="M32.3369 850.256C32.3369 850.256 20.2522 869.225 28.887 884.13C28.887 884.13 91.8056 887.383 110.804 884.13C110.804 884.13 111.308 858.657 95.0201 856.488C78.739 854.327 57.8446 853.352 57.8446 853.352C57.8446 853.352 44.1661 864.343 32.3369 850.256Z" fill="#B0A6FF"/>
    <path d="M114.265 101.152C104.368 84.0662 74.7403 67.4408 58.5877 86.1273C49.3424 96.8305 50.7223 114.65 51.5504 127.739C52.1671 137.518 54.1315 147.285 54.044 157.093C53.9715 164.395 53.3618 172.251 49.8654 178.827C46.3324 185.472 27.6063 201.956 29.8577 184.421C30.2216 181.589 26.881 180.579 24.8576 181.422C12.0143 186.811 17.642 207.32 25.6542 214.839C38.0965 226.503 63.8889 222.071 78.7763 218.772C96.1024 214.92 104.469 202.795 106.965 185.336C108.873 172.017 107.141 158.486 107.866 145.096C108.611 131.247 115.501 118.091 114.828 104.444C114.814 104.108 114.696 103.844 114.609 103.562C114.81 102.83 114.766 102.015 114.265 101.152Z" fill="#31177C"/>
    <path d="M159.541 78.5888C159.541 78.5888 172.824 97.3887 178.415 116.038C182.383 129.279 160.844 151.223 137.837 135.494C114.83 119.765 115.624 89.6743 115.624 89.6743L159.541 78.5888Z" fill="#B3702D"/>
    <path d="M150.99 65.8525C132.966 58.3775 108.392 63.6425 101.207 88.3475C98.0068 99.3387 108.192 117.192 116 125.803C122.129 132.558 132.348 137.22 135.657 126.349C138.177 118.043 136.39 111.003 134.451 102.896C133.735 99.9199 133.238 97.3701 133.181 95.0093C136.22 88.9309 140.93 84.2385 146.921 83.1947C148.678 84.4833 166.485 98.5391 172.127 86.0891C186.46 54.4594 153.804 67.0196 150.99 65.8525Z" fill="#31177C"/>
    <path d="M136.732 104.643C136.732 104.643 128.109 102.209 127.577 108.987C127.045 115.773 133.51 118.644 136.41 116.943C139.308 115.235 139.041 107.062 136.732 104.643Z" fill="#B3702D"/>
    <path d="M274.475 631.412C274.475 631.412 252.343 635.796 218.369 639.519C223.964 599.951 204.959 546.338 199.31 546.863C192.276 547.497 201.274 604.083 192.686 641.748C151.846 644.449 89.9899 645.921 42.7337 638.844C30.0236 636.935 17.5152 634.473 5.27579 631.412C5.27579 631.412 12.8077 440.905 40.2455 385.675C42.1285 381.993 74.2064 338.287 81.5366 283.324C81.8056 281.073 81.2676 278.83 80.9986 276.58C80.4606 272.148 79.6536 267.58 78.7121 262.868V262.8C70.575 221.76 52.8884 173.144 99.8957 158.144C105.679 156.235 112.539 154.932 120.474 154.189H120.541C123.097 153.916 125.854 153.705 128.678 153.644C135.202 153.371 142.397 153.5 150.333 153.978C150.333 153.978 159.68 157.326 171.987 163.053C174.879 164.349 177.905 165.849 180.998 167.41C186.58 170.274 192.498 173.553 198.147 177.167C215.094 187.94 222.088 206.146 221.483 220.873C221.079 231.101 214.22 245.277 213.144 266.005C212.74 273.028 243.54 374.697 243.54 374.697C243.54 374.697 296.869 543.045 274.475 631.412Z" fill="#EDF9FA"/>
    <path d="M180.067 213.51C180.067 213.51 174.169 190.756 147.855 177.508C136.772 171.924 130.699 159.098 128.682 153.644C135.205 153.371 142.401 153.5 150.336 153.985C150.336 153.985 159.684 157.326 171.99 163.053C185.272 183.508 180.067 213.51 180.067 213.51Z" fill="#11B1D7"/>
    <path d="M166.395 264.876C154.553 289.579 90.6657 276.386 81.5871 283.341C81.5131 281.09 81.3181 278.84 81.0491 276.597C80.5111 272.158 79.6974 267.59 78.7626 262.885C81.6476 257.362 86.2273 250.817 93.6247 243.862C113.127 225.179 83.6516 166.438 83.6516 166.438C120.168 164.938 173.288 250.496 166.395 264.876Z" fill="#D2E7EB"/>
    <path d="M161.513 139.281V158.515C161.513 158.515 166.611 168 161.513 169.036C150.303 171.307 134.129 153.579 134.129 153.579V127.778L161.513 139.281Z" fill="#B3702D"/>
    <path d="M134.122 144.156V129.482C134.122 129.482 148.056 142.976 161.506 143.747C161.506 143.747 145.299 151.717 134.122 144.156Z" fill="#B3702D"/>
    <path d="M78.7154 262.807V262.875C79.6568 267.58 80.4638 272.148 81.0018 276.587C81.2708 278.837 81.8088 281.08 81.5398 283.33C74.2096 338.287 42.1317 381.993 40.2487 385.682C12.8109 440.905 5.279 631.419 5.279 631.419C17.5184 634.48 30.0268 636.935 42.7369 638.844C45.0234 631.207 43.6246 513.657 48.5607 480.949C54.5459 441.314 60.3697 415.533 77.256 378.304C93.1067 343.36 91.3246 285.458 107.054 249.456C108.197 246.865 84.9023 258.852 78.7154 262.807Z" fill="#D2E7EB"/>
    <path d="M187.219 246.439C187.219 249.883 184.462 252.678 181.066 252.678C177.67 252.678 174.912 249.883 174.912 246.439C174.912 242.996 177.67 240.2 181.066 240.2C184.462 240.2 187.219 242.996 187.219 246.439Z" fill="#D2E7EB"/>
    <path d="M200.02 390.018C200.02 393.462 197.263 396.257 193.867 396.257C190.471 396.257 187.713 393.462 187.713 390.018C187.713 386.575 190.471 383.78 193.867 383.78C197.263 383.78 200.02 386.575 200.02 390.018Z" fill="#D2E7EB"/>
    <path d="M203.799 431.516C203.799 434.959 201.042 437.754 197.646 437.754C194.25 437.754 191.493 434.959 191.493 431.516C191.493 428.072 194.25 425.277 197.646 425.277C201.042 425.277 203.799 428.072 203.799 431.516Z" fill="#D2E7EB"/>
    <path d="M190.165 283.337C190.165 286.78 187.407 289.583 184.011 289.583C180.615 289.583 177.858 286.78 177.858 283.337C177.858 279.894 180.615 277.105 184.011 277.105C187.407 277.105 190.165 279.894 190.165 283.337Z" fill="#D2E7EB"/>
    <path d="M147.917 374.514C149.113 376.403 150.593 376.944 152.247 376.876C151.51 379.81 151.36 382.77 152.618 385.057C154.448 388.392 156.567 388.251 159.195 387.164C159.652 386.983 160.097 386.713 160.545 386.416C160.663 386.633 160.713 386.846 160.843 387.055C161.358 387.884 162.328 388.319 163.143 388.224C167.733 387.679 171.386 383.879 174.422 380.476C183.452 370.389 189.694 368.825 194.411 369.109C192.778 373.773 192.665 374.98 190.079 376.468C188.815 377.204 187.565 378.874 187.764 380.967C187.999 383.467 189.622 384.064 191.198 384.268C193.915 384.621 198.522 382.173 201.057 381.058C202.869 380.258 204.026 378.6 204.665 376.28C210.628 354.502 206.637 347.101 201.116 339.881C198.806 336.855 154.527 349.636 156.136 357.243C149.396 361.707 143.712 367.879 147.917 374.514Z" fill="#B3702D"/>
    <path d="M430.729 849.363C430.729 849.363 441.953 870.807 430.339 885.099C430.339 885.099 359.008 879.658 337.999 873.616C337.999 873.616 340.655 847.031 359.283 847.065C377.918 847.093 396.203 850.025 396.203 850.025C396.203 850.025 415.618 862.366 430.729 849.363Z" fill="#1F0D52"/>
    <path d="M233.422 369.95C180.295 375.669 144.539 337.872 113.939 333.108C107.551 332.108 134.574 226.118 117.258 198.927C109.383 186.554 89.6195 160.022 73.5451 168.954C47.7967 183.273 25.0968 367.271 85.952 385.248C97.1172 388.556 257.147 393.61 257.147 393.61C258.001 391.823 233.422 369.95 233.422 369.95Z" fill="#E2EFF0"/>
    <path d="M620.645 845.927C620.645 845.927 635.522 864.94 626.67 881.135C626.67 881.135 555.546 888.927 533.806 886.852C533.806 886.852 531.652 860.23 549.977 856.825C568.301 853.42 586.82 852.944 586.82 852.944C586.82 852.944 608.116 861.503 620.645 845.927Z" fill="#1F0D52"/>
    <path d="M399.606 820.988C402.747 817.872 431.846 824.425 431.926 826.252C432.168 831.864 431.012 853.096 427.864 855.53C424.811 857.896 395.41 854.133 395.484 848.726C395.544 844.062 396.573 823.988 399.606 820.988Z" fill="#B3702D"/>
    <path d="M526.146 444.661C523.96 449.646 521.553 454.903 519.139 460.283C502.367 497.157 481.923 540.086 478.735 562.846C440.174 607.343 444.297 698.273 441.472 748.512C439.26 789.709 436.704 834.731 435.608 838.42C435.527 838.549 393.133 842.443 393.133 842.443C383.463 788.188 361.714 614.441 361.714 576.707C361.714 537.651 395.951 385.777 422.461 336.119C447.673 288.901 531.291 382.75 540.907 395.303C544.592 400.11 537.074 419.856 526.146 444.661Z" fill="#D2E7EB"/>
    <path d="M525.114 443.86C524.085 443.042 522.935 443.042 521.899 443.39C513.641 430.653 494.959 417.541 483.627 434.601C477.252 444.174 483.123 456.29 483.11 466.6C483.137 487.444 469.061 505.288 459.976 522.968C427.615 585.991 446.398 658.873 434.535 726.11C428.375 761.32 406.896 804.754 407.468 841.13C425.107 842.691 431.953 840.571 435.598 838.423C446.775 789.398 455.336 641.554 478.732 562.849C485.268 540.846 502.363 497.167 519.135 460.293C521.549 454.913 523.95 449.663 526.136 444.672C525.813 444.378 525.436 444.153 525.114 443.86Z" fill="#B8DAE0"/>
    <path d="M412.316 127.663C391.508 141.274 346.108 251.64 344.057 256.473C339.684 267.149 315.861 316.082 315.861 316.082C315.861 316.082 315.95 316.283 316.13 316.656C275.141 334.013 187.208 342.875 187.208 342.875L188.529 365.338C188.529 365.338 316.666 395.413 354.923 365.638C383.292 343.559 428.299 255.237 428.373 246.49C428.446 233.675 426.367 225.019 426.367 225.019C426.367 225.019 433.009 114.207 412.316 127.663Z" fill="#B3702D"/>
    <path d="M426.363 225.016C426.363 225.016 428.436 233.679 428.363 246.488C428.292 261.388 425.367 281.856 413.005 300.648C400.39 319.826 337.827 243.877 349.628 220.903C367.608 185.918 391.85 141.022 412.304 127.654C432.998 114.198 426.363 225.016 426.363 225.016Z" fill="#B0A6FF"/>
    <path d="M409.501 129.689C409.501 129.689 395.829 139.097 395.631 162.359C395.433 185.622 399.609 248.918 408.553 271.564C415.665 289.567 417.31 292.893 417.464 292.879C417.477 292.877 417.489 292.861 417.496 292.86L427.877 271.312C427.877 271.312 438.895 247.437 436.016 242.543C433.139 237.662 409.501 129.689 409.501 129.689Z" fill="#9E89FF"/>
    <path d="M581.65 827.643C583.446 823.572 612.894 818.827 613.627 820.497C615.88 825.625 622.504 845.807 620.46 849.251C618.476 852.585 589.767 860.037 587.871 854.992C586.237 850.621 579.922 831.57 581.65 827.643Z" fill="#B3702D"/>
    <path d="M620.847 827.647C610.295 839.865 581.351 846.111 581.351 846.111C555.608 788.904 529.905 677.279 526.011 612.62C519.986 512.205 502.992 414.217 503.732 387.905C503.88 383.677 503.933 381.427 503.933 381.427C529.569 352.94 560.793 337.517 579.105 336.296C586.341 335.791 591.506 337.503 593.59 341.437C600.335 354.358 605.52 366.229 609.461 377.363C609.878 378.475 610.221 379.586 610.571 380.698C634.922 450.737 627.477 488.238 623.375 578.76C621.391 621.47 605.534 803.782 620.847 827.647Z" fill="#D2E7EB"/>
    <path d="M613.375 735.311C613.611 688.182 621.385 621.477 623.375 578.767C627.477 488.245 634.922 450.737 610.571 380.698C603.261 380.036 595.305 381.468 586.818 385.532C584.404 386.63 584.801 389.248 586.415 390.7C585.978 391.362 585.87 392.241 586.287 393.285C599.993 430.609 607.928 470.278 604.061 510.214C602.138 530.663 596.482 550.381 592.414 570.509C588.264 591.122 585.716 611.945 583.772 632.803C580.531 668.409 575.87 705.44 580.638 741.134C585.547 777.988 586.052 806.168 594.297 842.449C594.781 844.727 618.015 833.258 620.847 827.647C618.701 822.819 612.985 813.539 613.375 735.311Z" fill="#B8DAE0"/>
    <path d="M408.029 364.617C409.465 367.657 421.509 371.8 438.854 375.477C458.213 379.489 484.203 382.839 509.853 383.216C544.554 383.745 578.706 378.79 596.473 372.7C603.737 370.221 608.254 367.518 609.053 364.934C611.525 356.729 609.631 309.846 604.248 259.801C603.186 250.099 602.041 240.286 600.723 230.689C594.103 180.543 584.192 134.111 571.805 126.98C568.995 125.312 565.775 123.619 562.205 121.851C556.879 119.161 550.737 116.463 543.879 113.99C533.154 110.066 520.753 106.785 507.168 105.262C486.253 102.778 462.501 104.351 437.483 114.005C437.483 114.005 437.491 114.066 437.425 114.075C431.359 116.385 425.224 119.172 419.04 122.593C417.583 123.35 416.135 124.181 414.62 125.014C393.998 137.015 403.756 184.797 412.844 224.743C417.023 243.298 421.035 260.142 421.835 270.906C422.06 274.516 422.152 278.152 421.969 281.757C421.132 312.235 408.714 342.429 408.029 364.617Z" fill="#B0A6FF"/>
    <path d="M453.252 86.5052L456.228 108.163C456.228 108.163 452.47 118.27 457.66 118.583C469.072 119.263 483.353 104.352 483.353 104.352L478.808 71.2811L453.252 86.5052Z" fill="#B3702D"/>
    <path d="M481.052 87.5829L479.044 72.9689C479.044 72.9689 469.157 90.1582 455.942 92.8099C455.942 92.8099 471.011 96.636 481.052 87.5829Z" fill="#B3702D"/>
    <path d="M586.07 307.399C591.574 327.687 587.055 353.102 596.471 372.707C603.735 370.229 608.252 367.525 609.051 364.941C611.522 356.737 609.629 309.854 604.246 259.808C603.184 250.106 602.039 240.293 600.72 230.696C595.803 222.586 589.99 214.871 583.113 206.824C564.015 184.456 546.415 161.126 530.208 136.574C528.929 134.682 543.31 123.219 544.569 122.497C542.887 122.115 531.603 123.503 524.866 135.256C505.082 169.657 504.409 216.145 531.214 245.679C549.52 265.749 578.377 279.083 586.07 307.399Z" fill="#9E89FF"/>
    <path d="M438.955 31.8773C438.955 31.8773 431.787 53.8319 431.919 73.3166C432.008 87.1553 459.009 101.619 476.361 79.6573C493.714 57.7027 484.138 29.2258 484.138 29.2258L438.955 31.8773Z" fill="#B3702D"/>
    <path d="M421.397 26.5441C423.603 43.7806 442.569 42.609 454.975 40.0508C456.019 39.8346 456.489 38.4188 457.387 38.2301C459.015 37.8761 459.883 38.7586 461.711 38.817C465.845 38.9559 468.659 38.9301 472.746 38.2839C474.541 38.0029 476.381 38.1491 478.217 38.3716C477.463 40.7912 477.66 43.9026 477.521 46.0978C477.096 52.746 474.22 61.0625 477.122 67.461C479.061 71.7376 483.731 73.9005 488.1 71.8995C493.363 69.4831 492.08 64.3911 493.359 59.8664C494.122 57.17 494.729 55.26 493.617 52.505C493.279 51.6784 492.677 50.9994 492.185 50.2841C492.307 50.136 492.313 49.3366 492.532 48.4107C493.462 44.4103 492.382 40.3083 490.039 37.0871C494.386 33.9395 495.241 28.2012 492.659 23.499C489.461 17.6655 483.462 16.5028 477.577 17.0105C472.413 10.904 464.4 12.1391 458.413 16.3445C455.123 13.6012 451.409 12.6663 447.841 13.432C438.409 1.02336 419.308 10.2549 421.397 26.5441Z" fill="#D2E7EB"/>
    <path d="M483.667 63.3076C483.931 62.9055 484.237 62.5594 484.487 62.1591C486.829 58.3999 480.962 54.7884 478.622 58.5611C475.841 63.0294 472.49 66.6559 467.696 69.1231C461.365 72.365 457.95 70.8372 452.81 67.178C451.303 66.0966 448.947 66.7874 448.011 68.2759C444.646 73.6322 432.181 68.6051 431.764 76.1954C431.437 82.2104 439.29 91.6272 446.634 92.8476C466.2 96.0868 477.873 81.6192 486.556 68.4689C488.18 66.0022 486.07 63.3951 483.667 63.3076Z" fill="#D2E7EB"/>
    <path d="M728.932 316.16C718.743 335.674 704.869 359.884 688.239 378.865C676.823 391.915 664.092 402.455 650.377 407.223C649.831 407.406 649.286 407.588 648.676 407.7L648.673 407.762L648.606 407.759C605.632 420.632 569.439 354.495 569.439 354.495C569.987 352.538 573.836 328.264 573.836 328.264C577.19 328.536 608.717 362.686 623.742 358.857C628.701 357.693 671.558 243.351 692.964 219.309C693.95 218.189 695.143 216.941 696.406 215.627C701.109 210.699 707.471 204.678 714.238 200.305C723.429 194.2 733.318 190.915 740.826 196.807C764 215.076 755.285 265.569 728.932 316.16Z" fill="#D2E7EB"/>
    <path d="M714.305 201.949C714.393 201.406 714.35 200.79 714.235 200.308C707.467 204.675 701.106 210.696 696.403 215.624C691.375 223.677 687.836 232.89 686.996 242.634C685.017 265.571 681.202 283.862 680.63 305.266C680.023 327.555 670.369 350.571 660.09 370.627C654.109 382.395 644.644 393.757 648.672 407.697C649.282 407.592 649.828 407.402 650.374 407.22C664.089 402.458 676.819 391.918 688.236 378.861C696.249 363.354 700.203 344.953 703.173 327.604C707.357 303.343 711.34 279.075 715.457 254.812C718.454 236.782 722.244 219.124 714.305 201.949Z" fill="#B8DAE0"/>
    <path d="M881.61 764.412C881.61 764.412 862.988 767.665 840.937 775.908C786.795 796.302 733.042 798.647 642.303 759.298C642.303 759.298 689.384 655.174 678.886 585.285C665.504 495.902 670.184 381.986 721.892 363.917C773.674 345.78 841.125 363.917 841.125 363.917C841.125 363.917 855.792 372.918 867.891 393.578C876.431 408.169 883.755 428.624 883.755 455.762C883.755 509.627 842.403 647.339 881.61 764.412Z" fill="#B0A6FF"/>
    <path d="M883.768 455.762C883.768 428.625 876.438 408.176 867.898 393.585C859.357 395.494 850.883 399.032 843.284 402.714C842.276 403.192 841.738 403.942 841.469 404.828C839.451 405.449 838.039 407.692 839.72 409.737C878.456 457.262 840.662 516.514 825.799 565.402C819.074 587.494 816.25 609.927 821.361 632.775C824.32 645.867 829.095 658.413 834.206 670.747C835.618 674.157 839.061 772.09 840.944 775.908C863.002 767.658 881.616 764.412 881.616 764.412C842.41 647.34 883.768 509.621 883.768 455.762Z" fill="#9E89FF"/>
    <path d="M798.396 117.547C797.817 109.775 791.044 107.946 784.134 108.013C785.11 105.107 784.817 101.751 782.483 98.4112C778.585 92.8159 772.676 92.0929 766.982 93.4741C768.64 80.8972 750.335 72.1247 740.751 84.5675C737.34 80.3959 731.797 79.0547 726.004 83.3529C715.608 91.0589 717.911 106.07 723.745 115.749C716.296 123.058 719.324 132.27 724.943 140.247C716.967 146.265 709.888 156.229 715.966 166.356C718.95 171.341 724.022 173.328 728.792 172.567C729.992 174.505 731.86 176.221 734.454 177.173C744.153 180.725 756.572 175.176 762.686 166.682C769.218 173.753 782.967 166.424 781.28 153.484C788.671 153.249 796.314 144.95 795.444 136.302C795.172 133.601 794.145 131.105 792.666 129.028C796.277 126.45 798.784 122.721 798.396 117.547Z" fill="#D2E7EB"/>
    <path d="M723.623 108.053C723.623 108.053 714.864 129.406 713.566 148.854C712.646 162.66 738.505 179.114 757.42 158.528C776.335 137.943 768.867 108.81 768.867 108.81L723.623 108.053Z" fill="#B3702D"/>
    <path d="M713.869 107.959C715.19 106.999 716.979 106.835 718.233 105.892C722.172 102.951 720.387 101.796 722.595 98.995C724.505 96.5753 726.342 94.9459 729.12 93.6927C736.287 90.4463 744.825 90.9779 752.349 92.3066C754.707 92.7273 755.147 94.8919 754.381 96.6293C761.79 97.6374 770.209 104.182 773.634 108.797C780.446 117.954 782.236 133.908 776.545 144.089C772.076 152.073 763.158 158.952 757.522 149.11C753.213 141.601 753.381 134.334 753.467 125.993C753.502 122.923 753.426 120.338 752.957 118.025C748.644 112.799 743.005 109.305 736.949 109.664C735.517 111.308 734.369 113.719 733.037 115.357C731.042 117.809 728.582 119.828 725.761 121.248C721.404 123.43 715.208 124.236 711.811 119.851C708.758 115.902 710.08 110.706 713.869 107.959Z" fill="#D2E7EB"/>
    <path d="M751.651 128.229C751.651 128.229 759.51 123.886 761.537 130.368C763.564 136.857 757.898 141.133 754.695 140.138C751.498 139.137 749.933 131.115 751.651 128.229Z" fill="#B3702D"/>
    <path d="M560.225 907.836C560.03 907.839 559.828 907.836 559.639 907.832C554.067 907.595 549.741 902.837 549.968 897.194L566.916 475.983C567.785 454.331 581.99 435.164 602.267 428.288L618.671 423.126C624.004 421.444 629.648 424.468 631.294 429.863C632.946 435.258 629.963 440.987 624.642 442.655L608.459 447.752C596.284 451.891 587.604 463.591 587.072 476.815L570.125 898.026C569.908 903.471 565.537 907.75 560.225 907.836Z" fill="#796CEC"/>
    <path d="M654.889 435.676C654.198 440.501 650.319 439.746 646.953 442.133C642.856 445.043 635.909 460.015 630.035 460.294C622.205 460.66 634.51 449.379 629.815 448.05C628.133 447.58 612.845 466.772 613.609 454.642C613.775 451.959 621.727 441.451 617.14 442.712C613.138 446.521 605.289 456.345 601.546 452.253C599.78 450.324 603.804 444.054 606.315 441.64C618.763 429.64 610.813 433.043 602.971 441.571C598.905 446.001 594.973 444.47 597.12 438.181C601.589 425.145 618.571 418.31 630.6 417.214C635.677 416.757 656.42 424.911 654.889 435.676Z" fill="#B3702D"/>
    <path d="M626.741 420.509C624.755 420.392 622.669 419.464 620.66 419.169C618.442 418.844 615.614 418.242 613.808 416.757C610.831 414.31 613.792 412.291 616.422 411.88C621.239 411.12 631.594 416.059 635.81 418.112C636.365 418.382 628.787 420.633 626.741 420.509Z" fill="#B3702D"/>
    <path d="M680.579 340.035C675.17 350.575 663.555 357.461 649.084 361.846C602.862 375.811 526.979 364.157 526.979 364.157L525.658 341.694C525.658 341.694 600.425 337.321 611.721 310.329C613.764 305.428 598.803 254.863 583.246 243.436C576.3 238.352 569.034 233.403 562.761 229.257C547.521 219.156 535.521 204.466 529.98 186.868C524.608 170.01 525.066 155.061 527.627 143.065C531.174 126.386 550.26 118.527 564.648 127.371C588.166 141.879 625.933 178.063 637.449 189.234C639.487 191.218 640.663 192.36 640.825 192.551C682.793 234.599 703.462 295.572 680.579 340.035Z" fill="#B3702D"/>
    <path d="M640.829 192.554C640.667 192.37 639.491 191.221 637.453 189.237C626.475 190.382 618.868 200.743 616.637 211.186C615.312 211.923 614.365 213.427 615.167 215.31C618.922 224.356 624.875 230.124 631.699 236.795C641.5 246.356 648.227 256.765 653.119 269.636C658.473 283.894 664.844 300.611 662.814 315.981C661.113 329.295 652.435 339.271 648.903 351.611C647.739 355.493 647.897 359.119 649.086 361.842C663.557 357.458 675.173 350.578 680.583 340.038C703.466 295.575 682.798 234.608 640.829 192.554Z" fill="#B3702D"/>
    <path d="M584.716 254.512C578.308 249.827 537.868 219.494 527.584 185.121C522.908 169.479 522.486 130.188 541.481 122.803C571.918 110.979 620.299 151.322 654.102 182.173C644.969 214.484 618.713 239.885 584.716 254.512Z" fill="#B0A6FF"/>
    <path d="M541.439 353.368C541.334 358.236 537.393 357.966 534.34 360.752C530.624 364.148 525.535 379.881 519.738 380.886C512.01 382.212 522.864 369.492 518.045 368.761C516.318 368.496 503.463 389.436 502.754 377.31C502.595 374.62 509.222 363.206 504.821 365.026C501.307 369.301 494.701 380.024 490.492 376.426C488.508 374.731 491.753 368.008 493.96 365.293C504.864 351.85 497.377 356.212 490.62 365.648C487.117 370.542 483.031 369.515 484.405 363.008C487.27 349.516 503.302 340.629 515.108 338.052C520.093 336.969 541.662 342.486 541.439 353.368Z" fill="#B3702D"/>
    <path d="M511.671 341.794C509.678 341.917 507.503 341.261 505.474 341.217C503.233 341.169 500.361 340.92 498.382 339.665C495.132 337.604 497.829 335.241 500.388 334.5C505.079 333.156 515.95 336.77 520.383 338.292C520.974 338.49 513.71 341.664 511.671 341.794Z" fill="#B3702D"/>
    <path d="M668.621 428.029C772.378 466.116 877.964 400.914 878.421 400.672C876.309 397.12 853.858 361.759 846.793 348.068C843.339 341.391 841.069 333.197 839.731 324.818C837.402 311.434 837.201 297.578 837.568 288.467C837.691 284.018 837.951 280.66 838.054 279.088C838.107 278.873 838.161 278.658 838.153 278.522C843.684 237.031 858.265 187.307 810.407 175.385C804.515 173.855 797.588 173.007 789.622 172.773L789.555 172.777C780.98 172.514 771.11 173.087 759.811 174.504C759.811 174.504 745.902 180.464 730.055 189.898C724.666 193.117 718.966 196.76 713.557 200.733C697.324 212.583 693.13 234.719 696.529 249.051C712.297 315.477 690.979 333.97 677.92 397.103C676.639 403.274 675.52 413.506 668.621 428.029Z" fill="#D2E7EB"/>
    <path d="M726.546 375.131C714.123 389.261 656.688 426.143 674.29 431.695C689.765 436.634 766.555 410.014 803.794 337.091C796.213 323.338 837.2 297.574 837.568 288.463C837.421 288.275 837.2 288.084 837.057 287.95C837.346 285.061 837.638 282.111 838.053 279.085C838.04 278.881 838.024 278.732 838.079 278.53C834.844 273.199 829.868 266.963 822.047 260.509C801.407 243.129 812.326 183.681 812.326 183.681C780.69 183.598 769.731 234.863 767.711 264.845C767.014 275.139 750.429 347.957 726.546 375.131Z" fill="#B8DAE0"/>
    <path d="M733.876 163.601L735.089 182.796C735.089 182.796 730.6 192.592 735.752 193.295C747.083 194.835 762.105 176.094 762.105 176.094L760.478 150.346L733.876 163.601Z" fill="#B3702D"/>
    <path d="M761.508 166.698L760.582 152.054C760.582 152.054 747.528 166.424 734.154 168.065C734.154 168.065 750.831 174.968 761.508 166.698Z" fill="#B3702D"/>
    <path d="M579.612 326.369C579.342 328.603 579.067 330.845 578.796 333.079C578.261 337.437 584.936 338.325 585.464 333.968C585.733 331.727 586.01 329.492 586.28 327.258C586.815 322.9 580.148 322.011 579.612 326.369Z" fill="#B3702D"/>
    <path d="M575.759 325.846C575.546 325.731 575.329 325.734 575.122 325.66C573.538 324.803 571.418 325.137 570.191 326.24C569.169 326.068 568.061 326.204 567.161 326.723C566.212 326.933 565.348 327.461 564.716 328.149C563.286 328.021 561.711 328.519 560.795 329.708C558.766 328.529 555.276 329.125 554.681 332.011C554.15 334.564 553.735 337.129 553.423 339.706C552.983 343.369 558.097 344.464 560.126 342.181C561.342 344.804 565.555 344.636 566.941 342.464C567.102 342.848 567.165 343.252 567.345 343.626C568.252 345.48 571.282 346.436 573.157 344.863C575.033 343.29 575.505 341.592 575.155 339.583C575.249 339.68 575.325 339.786 575.419 339.876C577.468 341.893 581.788 341.214 582.189 338.1C582.823 333.13 580.563 328.341 575.759 325.846Z" fill="#B3702D"/>
    <path d="M848.295 251.237C848.074 267.129 845.862 284.63 841.843 302.691C833.742 339.169 818.892 391.237 789.483 411.429C764.731 428.394 710.272 438.218 675.507 442.935C657.052 445.553 644.089 446.649 644.089 446.649C644.057 444.604 641.519 420.164 641.519 420.164C644.805 419.565 737.795 379.459 751.261 371.808C755.794 369.286 767.663 247.635 782.138 218.759C788.656 205.56 805.627 177.121 822.555 184.348C840.837 192.105 848.914 218.017 848.295 251.237Z" fill="#D2E7EB"/>
    <path d="M821.701 313.523C811.376 336.876 807.343 362.582 791.391 383.162C761.791 421.149 712.001 411.386 677.066 439.435C675.937 440.34 675.353 441.713 675.507 442.938C710.272 438.221 764.731 428.398 789.483 411.425C818.892 391.24 833.742 339.173 841.842 302.694C845.862 284.626 848.074 267.133 848.294 251.24C841.101 272.77 830.988 292.505 821.701 313.523Z" fill="#B8DAE0"/>
    <path d="M293.557 377.305C293.713 374.543 291.395 372.936 288.882 373.725C288.855 373.728 288.844 373.744 288.817 373.748C289.454 371.661 289.254 369.514 287.618 367.494C286.89 366.592 285.676 366.006 284.517 366.225C279.752 367.125 277.403 372.31 272.574 373.936C267.078 375.786 261.419 375.071 255.936 373.615C260.465 371.096 265.117 369.075 270.489 368.296C274.257 367.75 274.227 362.095 270.463 361.532C261.156 360.169 254.041 364.864 246.167 368.689C245.338 368.483 230.518 372.407 228.347 372.865C232.447 376.41 240.677 382.097 243.382 387.106C243.587 387.07 243.81 387.059 244.015 387.023C254.044 396.359 282.042 391.248 290.885 386.425C292.95 385.294 293.057 382.959 292.151 381.359C292.901 380.144 293.476 378.845 293.557 377.305Z" fill="#B3702D"/>
    <path d="M372.066 196.595C375.588 194.06 373.36 188.523 369.399 190.335C367.432 191.233 365.592 192.278 363.851 193.439C363.073 192.964 362.097 192.785 361.005 193.187C358.111 194.264 355.776 196.095 353.763 198.293C352.432 197.056 350.287 196.718 348.905 198.621C348.466 199.227 348.06 199.883 347.631 200.515C346.596 199.801 345.231 199.698 344.002 200.835C339.574 204.882 337.764 209.991 336.763 215.847C335.596 222.627 335.181 228.696 337.212 233.104C340.475 236.34 342.05 236.193 347.016 235.12C349.192 234.654 359.113 230.409 360.979 228.969C363.276 227.205 365.374 224.83 367.327 222.688C369.989 219.779 375.021 214.249 374.104 209.794C373.017 204.557 366.962 207.484 365.557 210.795C363.238 216.306 359.684 217.125 356.433 220.049C358.633 215.304 363.933 202.439 372.066 196.595Z" fill="#B3702D"/>
    </svg>
    