<svg width="48" height="48" viewBox="0 0 48 48" fill="none" xmlns="http://www.w3.org/2000/svg">
    <path d="M30.726 10.2161C27.7646 8.73001 24.4031 8.23794 21.14 8.81292C17.8769 9.3879 14.8861 10.9993 12.611 13.4081M39.207 23.8611C39.1905 21.4242 38.595 19.0261 37.4698 16.8645C36.3445 14.7028 34.7217 12.8395 32.735 11.4281M37.008 31.9111C37.8943 30.4407 38.5268 28.8315 38.879 27.1511M28.356 38.6921C30.9596 37.8858 33.3027 36.403 35.146 34.3951M11.587 14.6101C9.83972 16.8908 8.76533 19.6149 8.48531 22.4743C8.20529 25.3337 8.7308 28.2144 10.0024 30.7908C11.2741 33.3671 13.2411 35.5363 15.6811 37.0532C18.1212 38.57 20.9369 39.374 23.81 39.3741C24.5852 39.3744 25.3594 39.3166 26.126 39.2011" stroke="black" stroke-linecap="round" stroke-linejoin="round"/>
    <path d="M28.519 20.492C29.5291 20.492 30.348 19.6731 30.348 18.663C30.348 17.6529 29.5291 16.834 28.519 16.834C27.5089 16.834 26.69 17.6529 26.69 18.663C26.69 19.6731 27.5089 20.492 28.519 20.492Z" stroke="black" stroke-linecap="round" stroke-linejoin="round"/>
    <path d="M19.502 17.8879C20.247 17.8879 20.851 17.284 20.851 16.5389C20.851 15.7939 20.247 15.1899 19.502 15.1899C18.757 15.1899 18.153 15.7939 18.153 16.5389C18.153 17.284 18.757 17.8879 19.502 17.8879Z" stroke="black" stroke-linecap="round" stroke-linejoin="round"/>
    <path d="M19.247 28.2558C20.1439 28.2558 20.871 27.5287 20.871 26.6318C20.871 25.7349 20.1439 25.0078 19.247 25.0078C18.3501 25.0078 17.623 25.7349 17.623 26.6318C17.623 27.5287 18.3501 28.2558 19.247 28.2558Z" stroke="black" stroke-linecap="round" stroke-linejoin="round"/>
    <path d="M24.757 31.5029C25.6539 31.5029 26.381 30.7758 26.381 29.8789C26.381 28.982 25.6539 28.2549 24.757 28.2549C23.8601 28.2549 23.133 28.982 23.133 29.8789C23.133 30.7758 23.8601 31.5029 24.757 31.5029Z" stroke="black" stroke-linecap="round" stroke-linejoin="round"/>
    <path d="M33.988 29.1552C34.8159 29.1552 35.487 28.4841 35.487 27.6562C35.487 26.8284 34.8159 26.1572 33.988 26.1572C33.1601 26.1572 32.489 26.8284 32.489 27.6562C32.489 28.4841 33.1601 29.1552 33.988 29.1552Z" stroke="black" stroke-linecap="round" stroke-linejoin="round"/>
    <path d="M38.806 27.138C39.7245 27.138 40.469 26.3935 40.469 25.475C40.469 24.5566 39.7245 23.812 38.806 23.812C37.8876 23.812 37.143 24.5566 37.143 25.475C37.143 26.3935 37.8876 27.138 38.806 27.138Z" stroke="black" stroke-linecap="round" stroke-linejoin="round"/>
    <path d="M32.185 40.114C32.187 40.09 32.192 40.068 32.192 40.044C32.1919 39.8106 32.1099 39.5846 31.9603 39.4055C31.8107 39.2263 31.603 39.1053 31.3734 39.0635C31.1438 39.0218 30.9068 39.0619 30.7037 39.1769C30.5006 39.2919 30.3443 39.4746 30.262 39.693C30.0089 39.7041 29.7617 39.7731 29.5393 39.8945C29.317 40.0159 29.1254 40.1867 28.9792 40.3936C28.833 40.6005 28.7361 40.8382 28.696 41.0883C28.6558 41.3385 28.6735 41.5945 28.7476 41.8368C28.8217 42.0791 28.9502 42.3012 29.1234 42.4861C29.2966 42.671 29.5098 42.8139 29.7467 42.9036C29.9837 42.9934 30.238 43.0278 30.4902 43.0041C30.7425 42.9804 30.9859 42.8993 31.202 42.767C31.3787 42.844 31.5692 42.8841 31.7619 42.8849C31.9547 42.8857 32.1455 42.8472 32.3229 42.7717C32.5002 42.6963 32.6603 42.5854 32.7933 42.446C32.9263 42.3065 33.0295 42.1414 33.0965 41.9607C33.1635 41.78 33.193 41.5875 33.1831 41.395C33.1732 41.2026 33.1241 41.0141 33.0389 40.8413C32.9536 40.6684 32.8341 40.5148 32.6874 40.3897C32.5408 40.2647 32.3692 40.1708 32.185 40.114ZM29.529 4.99298C29.536 4.97098 29.547 4.94998 29.553 4.92798C29.6105 4.70145 29.5867 4.4619 29.4855 4.25118C29.3844 4.04046 29.2125 3.87197 28.9997 3.77514C28.787 3.6783 28.547 3.65929 28.3217 3.7214C28.0964 3.78352 27.9001 3.92282 27.767 4.11498C27.5189 4.06416 27.2624 4.07079 27.0173 4.13436C26.7721 4.19792 26.5447 4.31675 26.3526 4.48172C26.1604 4.6467 26.0086 4.85347 25.9086 5.08618C25.8087 5.3189 25.7633 5.5714 25.776 5.82435C25.7887 6.0773 25.8591 6.32399 25.9818 6.54554C26.1045 6.7671 26.2763 6.95763 26.484 7.10256C26.6917 7.24749 26.9298 7.34297 27.1801 7.3817C27.4304 7.42043 27.6862 7.40137 27.928 7.32598C28.0805 7.44458 28.2557 7.53074 28.4428 7.57916C28.6298 7.62757 28.8248 7.63722 29.0157 7.60751C29.2066 7.5778 29.3894 7.50937 29.5529 7.40641C29.7164 7.30344 29.8571 7.16814 29.9664 7.00879C30.0757 6.84945 30.1512 6.66945 30.1884 6.47984C30.2255 6.29023 30.2235 6.09503 30.1825 5.90623C30.1414 5.71743 30.0622 5.53902 29.9496 5.38197C29.8371 5.22492 29.6946 5.09255 29.529 4.99298ZM7.303 31.333C7.30305 31.0443 7.21711 30.7622 7.05614 30.5225C6.89517 30.2829 6.66647 30.0966 6.39921 29.9875C6.13195 29.8784 5.83824 29.8514 5.55555 29.9099C5.27286 29.9684 5.01401 30.1098 4.812 30.316C4.64745 30.1962 4.45952 30.1123 4.26044 30.0699C4.06136 30.0274 3.85557 30.0273 3.65645 30.0696C3.45734 30.1119 3.26935 30.1956 3.1047 30.3153C2.94005 30.435 2.80243 30.588 2.70078 30.7644C2.59912 30.9407 2.53572 31.1365 2.51467 31.339C2.49363 31.5414 2.51542 31.7461 2.57863 31.9396C2.64184 32.133 2.74506 32.3111 2.88157 32.4621C3.01808 32.6131 3.18484 32.7336 3.371 32.816C3.38926 33.0546 3.45586 33.287 3.56675 33.4991C3.67764 33.7112 3.8305 33.8985 4.01604 34.0497C4.20158 34.2008 4.41593 34.3127 4.64605 34.3784C4.87617 34.4442 5.11725 34.4624 5.35465 34.4321C5.59204 34.4017 5.82078 34.3234 6.02696 34.2019C6.23315 34.0804 6.41247 33.9182 6.55402 33.7253C6.69558 33.5323 6.79641 33.3125 6.85038 33.0794C6.90436 32.8462 6.91035 32.6045 6.868 32.369C7.00588 32.234 7.11539 32.0728 7.19009 31.8949C7.26479 31.717 7.30318 31.5259 7.303 31.333ZM9.986 7.62898C9.69831 7.60551 9.41014 7.66826 9.15826 7.80922C8.90637 7.95019 8.70218 8.16298 8.57172 8.42046C8.44126 8.67795 8.39045 8.96846 8.42576 9.25494C8.46108 9.54142 8.58092 9.81089 8.77 10.029C8.63703 10.1832 8.538 10.3637 8.47936 10.5587C8.42072 10.7537 8.40378 10.9588 8.42964 11.1608C8.4555 11.3628 8.52358 11.5571 8.62946 11.731C8.73533 11.9049 8.87663 12.0546 9.04417 12.1704C9.21171 12.2861 9.40173 12.3653 9.60187 12.4027C9.80202 12.4402 10.0078 12.4351 10.2059 12.3879C10.4039 12.3406 10.5898 12.2521 10.7514 12.1283C10.9131 12.0044 11.0468 11.8479 11.144 11.669C11.3822 11.6683 11.6178 11.6194 11.8366 11.5253C12.0553 11.4311 12.2528 11.2937 12.4171 11.1212C12.5813 10.9487 12.709 10.7448 12.7924 10.5217C12.8757 10.2985 12.913 10.0608 12.9021 9.82291C12.8912 9.58498 12.8322 9.35172 12.7287 9.13719C12.6252 8.92266 12.4794 8.73129 12.3 8.57461C12.1206 8.41793 11.9113 8.29918 11.6848 8.22552C11.4583 8.15186 11.2192 8.1248 10.982 8.14598C10.8587 7.99787 10.7071 7.87585 10.5361 7.78707C10.3651 7.6983 10.1781 7.64455 9.986 7.62898ZM42.353 29.415C42.1116 29.3955 41.8698 29.4484 41.6585 29.5668C41.4472 29.6853 41.2759 29.8639 41.1665 30.08C41.0571 30.2962 41.0145 30.54 41.0442 30.7804C41.0738 31.0208 41.1744 31.2469 41.333 31.43C41.2213 31.5594 41.138 31.711 41.0888 31.8747C41.0395 32.0385 41.0252 32.2107 41.0469 32.3804C41.0686 32.55 41.1258 32.7131 41.2147 32.8592C41.3036 33.0053 41.4223 33.131 41.563 33.2281C41.7038 33.3253 41.8634 33.3917 42.0315 33.4231C42.1996 33.4545 42.3724 33.4501 42.5387 33.4103C42.705 33.3705 42.861 33.2961 42.9967 33.192C43.1323 33.0879 43.2445 32.9563 43.326 32.806C43.527 32.8071 43.7262 32.7674 43.9114 32.6892C44.0966 32.6109 44.2639 32.4958 44.4032 32.3509C44.5425 32.2059 44.6508 32.0341 44.7216 31.846C44.7925 31.6578 44.8242 31.4572 44.8151 31.2564C44.8059 31.0556 44.756 30.8587 44.6683 30.6778C44.5807 30.4969 44.4571 30.3357 44.3052 30.204C44.1533 30.0724 43.9761 29.973 43.7846 29.912C43.593 29.8509 43.3911 29.8295 43.191 29.849C43.0873 29.7244 42.9597 29.6219 42.8158 29.5474C42.6719 29.4728 42.5146 29.4278 42.353 29.415ZM43.016 18.57C43.0871 18.2535 43.0581 17.9228 42.933 17.6235C42.8079 17.3242 42.593 17.0712 42.3178 16.8995C42.0427 16.7277 41.721 16.6456 41.3972 16.6647C41.0734 16.6837 40.7635 16.8029 40.5104 17.0057C40.2573 17.2085 40.0735 17.485 39.9843 17.7968C39.8952 18.1087 39.9051 18.4406 40.0128 18.7465C40.1205 19.0525 40.3206 19.3174 40.5854 19.5047C40.8502 19.692 41.1666 19.7924 41.491 19.792C41.7397 19.79 41.9842 19.7283 42.204 19.612C42.3257 19.7263 42.486 19.7906 42.653 19.792C42.831 19.792 43.0016 19.7213 43.1275 19.5955C43.2533 19.4696 43.324 19.2989 43.324 19.121C43.3226 19.0109 43.2937 18.9029 43.2399 18.8068C43.1861 18.7108 43.1091 18.6287 43.016 18.57ZM6.146 20.87C6.42444 20.7036 6.6443 20.4548 6.77516 20.158C6.90603 19.8612 6.94145 19.5311 6.87651 19.2133C6.81157 18.8955 6.64949 18.6057 6.41268 18.384C6.17587 18.1624 5.87604 18.0198 5.55465 17.9759C5.23325 17.9321 4.90618 17.9892 4.61867 18.1394C4.33115 18.2896 4.09741 18.5254 3.94975 18.8142C3.80209 19.103 3.74782 19.4305 3.79444 19.7515C3.84107 20.0725 3.98628 20.3711 4.21 20.606C4.3825 20.7849 4.59549 20.9197 4.831 20.999C4.83241 21.166 4.89668 21.3263 5.011 21.448C5.0718 21.512 5.14464 21.5634 5.22533 21.5992C5.30602 21.635 5.39298 21.6545 5.48123 21.6566C5.56948 21.6588 5.65728 21.6435 5.73961 21.6116C5.82194 21.5798 5.89717 21.532 5.961 21.471C6.03956 21.394 6.09763 21.2986 6.12994 21.1935C6.16225 21.0883 6.16777 20.9768 6.146 20.869V20.87ZM14.57 43.27C14.8942 43.2604 15.2074 43.1502 15.4663 42.9548C15.7252 42.7594 15.917 42.4884 16.0152 42.1792C16.1133 41.8701 16.113 41.5381 16.0142 41.2291C15.9155 40.9201 15.7231 40.6495 15.4638 40.4546C15.2045 40.2597 14.8911 40.1502 14.5669 40.1413C14.2426 40.1323 13.9236 40.2243 13.6539 40.4045C13.3843 40.5848 13.1772 40.8443 13.0615 41.1474C12.9458 41.4504 12.9271 41.7819 13.008 42.096C13.0712 42.3363 13.1912 42.5578 13.358 42.742C13.3127 42.8229 13.2848 42.9124 13.2761 43.0047C13.2675 43.097 13.2783 43.1901 13.3078 43.278C13.3373 43.3659 13.3849 43.4467 13.4476 43.5151C13.5102 43.5835 13.5865 43.638 13.6714 43.6751C13.7564 43.7122 13.8482 43.7311 13.941 43.7306C14.0337 43.7301 14.1253 43.7101 14.2098 43.6721C14.2944 43.634 14.37 43.5786 14.4319 43.5096C14.4938 43.4405 14.5405 43.3592 14.569 43.271L14.57 43.27Z" stroke="black" stroke-linecap="round" stroke-linejoin="round"/>
    <path d="M20.175 44.3142C21.0294 44.3142 21.722 43.6216 21.722 42.7672C21.722 41.9128 21.0294 41.2202 20.175 41.2202C19.3206 41.2202 18.628 41.9128 18.628 42.7672C18.628 43.6216 19.3206 44.3142 20.175 44.3142Z" stroke="black" stroke-linecap="round" stroke-linejoin="round"/>
    <path d="M9.972 39.424C10.8424 39.424 11.548 38.7184 11.548 37.848C11.548 36.9776 10.8424 36.272 9.972 36.272C9.1016 36.272 8.396 36.9776 8.396 37.848C8.396 38.7184 9.1016 39.424 9.972 39.424Z" stroke="black" stroke-linecap="round" stroke-linejoin="round"/>
    <path d="M5.461 27.192C6.21045 27.192 6.818 26.5845 6.818 25.835C6.818 25.0856 6.21045 24.478 5.461 24.478C4.71155 24.478 4.104 25.0856 4.104 25.835C4.104 26.5845 4.71155 27.192 5.461 27.192Z" stroke="black" stroke-linecap="round" stroke-linejoin="round"/>
    <path d="M7.979 16.2892C8.61965 16.2892 9.139 15.7699 9.139 15.1292C9.139 14.4886 8.61965 13.9692 7.979 13.9692C7.33835 13.9692 6.819 14.4886 6.819 15.1292C6.819 15.7699 7.33835 16.2892 7.979 16.2892Z" stroke="black" stroke-linecap="round" stroke-linejoin="round"/>
    <path d="M19.339 6.88177C19.994 6.88177 20.525 6.35078 20.525 5.69577C20.525 5.04076 19.994 4.50977 19.339 4.50977C18.684 4.50977 18.153 5.04076 18.153 5.69577C18.153 6.35078 18.684 6.88177 19.339 6.88177Z" stroke="black" stroke-linecap="round" stroke-linejoin="round"/>
    <path d="M36.662 11.3549C37.2706 11.3549 37.764 10.8615 37.764 10.2529C37.764 9.64426 37.2706 9.15088 36.662 9.15088C36.0534 9.15088 35.56 9.64426 35.56 10.2529C35.56 10.8615 36.0534 11.3549 36.662 11.3549Z" stroke="black" stroke-linecap="round" stroke-linejoin="round"/>
    <path d="M39.756 15.0188C40.5016 15.0188 41.106 14.4144 41.106 13.6688C41.106 12.9233 40.5016 12.3188 39.756 12.3188C39.0104 12.3188 38.406 12.9233 38.406 13.6688C38.406 14.4144 39.0104 15.0188 39.756 15.0188Z" stroke="black" stroke-linecap="round" stroke-linejoin="round"/>
    <path d="M43.958 25.835C44.8096 25.835 45.5 25.1446 45.5 24.293C45.5 23.4414 44.8096 22.751 43.958 22.751C43.1064 22.751 42.416 23.4414 42.416 24.293C42.416 25.1446 43.1064 25.835 43.958 25.835Z" stroke="black" stroke-linecap="round" stroke-linejoin="round"/>
    <path d="M35.956 34.6229C36.8176 34.6229 37.516 33.9245 37.516 33.0629C37.516 32.2014 36.8176 31.5029 35.956 31.5029C35.0944 31.5029 34.396 32.2014 34.396 33.0629C34.396 33.9245 35.0944 34.6229 35.956 34.6229Z" stroke="black" stroke-linecap="round" stroke-linejoin="round"/>
    <path d="M27.252 40.1401C27.8849 40.1401 28.398 39.6271 28.398 38.9941C28.398 38.3612 27.8849 37.8481 27.252 37.8481C26.6191 37.8481 26.106 38.3612 26.106 38.9941C26.106 39.6271 26.6191 40.1401 27.252 40.1401Z" stroke="black" stroke-linecap="round" stroke-linejoin="round"/>
    <path d="M14.964 27.9951C14.9637 27.7048 14.8483 27.4266 14.6429 27.2215C14.4376 27.0163 14.1592 26.9011 13.869 26.9011C13.846 26.9011 13.825 26.9061 13.802 26.9071C13.7901 26.7345 13.7428 26.5663 13.663 26.4128C13.5832 26.2594 13.4726 26.124 13.3381 26.0152C13.2036 25.9065 13.0481 25.8266 12.8814 25.7806C12.7146 25.7346 12.5402 25.7235 12.369 25.748C12.1978 25.7725 12.0334 25.832 11.8862 25.9228C11.739 26.0137 11.6122 26.1339 11.5135 26.276C11.4149 26.4181 11.3466 26.579 11.313 26.7487C11.2793 26.9183 11.281 27.0931 11.318 27.2621C11.1506 27.3179 10.997 27.4087 10.8674 27.5284C10.7379 27.6481 10.6352 27.7941 10.5664 27.9566C10.4976 28.119 10.4642 28.2943 10.4684 28.4707C10.4725 28.6471 10.5142 28.8206 10.5906 28.9796C10.667 29.1386 10.7764 29.2796 10.9115 29.3931C11.0466 29.5066 11.2043 29.59 11.3742 29.6378C11.544 29.6856 11.7221 29.6967 11.8965 29.6704C12.071 29.6441 12.2378 29.5809 12.386 29.4851C12.5139 29.7562 12.737 29.971 13.0127 30.0886C13.2885 30.2062 13.5979 30.2185 13.8821 30.1232C14.1664 30.0279 14.4057 29.8315 14.5548 29.5714C14.7039 29.3113 14.7524 29.0055 14.691 28.7121C14.8663 28.5143 14.9634 28.2594 14.964 27.9951Z" stroke="black" stroke-linecap="round" stroke-linejoin="round"/>
    <path d="M23.152 12.2888C23.8451 12.2888 24.407 11.7269 24.407 11.0338C24.407 10.3407 23.8451 9.77881 23.152 9.77881C22.4589 9.77881 21.897 10.3407 21.897 11.0338C21.897 11.7269 22.4589 12.2888 23.152 12.2888Z" stroke="black" stroke-linecap="round" stroke-linejoin="round"/>
    <path d="M31.699 12.0561C32.3479 12.0561 32.874 11.53 32.874 10.8811C32.874 10.2321 32.3479 9.70605 31.699 9.70605C31.0501 9.70605 30.524 10.2321 30.524 10.8811C30.524 11.53 31.0501 12.0561 31.699 12.0561Z" stroke="black" stroke-linecap="round" stroke-linejoin="round"/>
    <path d="M27.507 34.4759C27.8616 34.4759 28.149 34.1885 28.149 33.8339C28.149 33.4793 27.8616 33.1919 27.507 33.1919C27.1524 33.1919 26.865 33.4793 26.865 33.8339C26.865 34.1885 27.1524 34.4759 27.507 34.4759Z" stroke="black" stroke-linecap="round" stroke-linejoin="round"/>
    <path d="M29.899 35.503C30.2685 35.503 30.568 35.2035 30.568 34.834C30.568 34.4646 30.2685 34.165 29.899 34.165C29.5295 34.165 29.23 34.4646 29.23 34.834C29.23 35.2035 29.5295 35.503 29.899 35.503Z" stroke="black" stroke-linecap="round" stroke-linejoin="round"/>
    <path d="M12.687 15.6082C13.2945 15.6082 13.787 15.1157 13.787 14.5082C13.787 13.9007 13.2945 13.4082 12.687 13.4082C12.0795 13.4082 11.587 13.9007 11.587 14.5082C11.587 15.1157 12.0795 15.6082 12.687 15.6082Z" stroke="black" stroke-linecap="round" stroke-linejoin="round"/>
    <path d="M27.6 7.39114L27.179 8.94914M35.884 11.0341L34.15 12.5681M38.728 14.5411L36.796 15.7001M40.018 18.7551L38.432 19.1411M42.415 24.2931L39.924 24.2481M41.333 31.4301L38.035 29.8791M30.346 39.5251L29.803 38.1641M20.384 41.2201L20.834 39.0871M15.218 40.3031L16.582 37.5761M10.964 36.6271L12.892 34.8341M7.268 31.0171L9.678 30.1001M6.819 25.8351L8.498 25.6131M6.868 19.8871L8.829 20.4011M8.999 15.6761L10.369 16.4581M11.963 11.4581L13.217 12.8021M19.502 6.86914L19.859 9.09014" stroke="black" stroke-linecap="round" stroke-linejoin="round"/>
    <path d="M36.612 39.2969C37.2333 39.2969 37.737 38.7932 37.737 38.1719C37.737 37.5506 37.2333 37.0469 36.612 37.0469C35.9907 37.0469 35.487 37.5506 35.487 38.1719C35.487 38.7932 35.9907 39.2969 36.612 39.2969Z" stroke="black" stroke-linecap="round" stroke-linejoin="round"/>
    <path d="M34.147 35.3882L35.956 37.2602" stroke="black" stroke-linecap="round" stroke-linejoin="round"/>
    </svg>
    