<svg width="592" height="517" viewBox="0 0 592 517" fill="none" xmlns="http://www.w3.org/2000/svg">
    <path d="M51 154C51 68.9482 119.948 0 205 0H334V287H51V154Z" fill="#8E1D1D"/>
    <path d="M92 183C92 106.232 154.232 44 231 44H400C485.052 44 554 112.948 554 198V339C554 424.052 485.052 493 400 493H246C160.948 493 92 424.052 92 339V183Z" fill="#A6D9E9"/>
    <ellipse cx="317.5" cy="443.5" rx="245.5" ry="73.5" fill="#4F8E1D"/>
    <mask id="mask0_0_1" style="mask-type:luminance" maskUnits="userSpaceOnUse" x="0" y="78" width="592" height="415">
    <path d="M591.026 78.2029H0V492.742H591.026V78.2029Z" fill="white"/>
    </mask>
    <g mask="url(#mask0_0_1)">
    <path d="M351.597 320.78H338.335C337.535 320.78 336.885 320.129 336.885 319.327C336.885 318.524 337.535 317.873 338.335 317.873H351.597C352.398 317.873 353.047 318.524 353.047 319.327C353.047 320.129 352.398 320.78 351.597 320.78Z" fill="#D8AF28"/>
    <path d="M281.601 395.382C281.368 395.382 281.179 395.192 281.179 394.959C281.179 394.726 281.368 394.536 281.601 394.536C296.958 394.536 310.672 384.215 314.952 369.437L328.076 324.126C329.184 320.197 332.807 317.451 336.886 317.451H352.748C352.98 317.451 353.17 317.639 353.17 317.873C353.17 318.107 352.98 318.296 352.748 318.296H336.886C333.183 318.296 329.893 320.788 328.887 324.358L315.763 369.673C313.598 377.146 309.172 383.565 302.963 388.238C296.754 392.911 289.367 395.382 281.601 395.382Z" fill="white"/>
    <path d="M312.172 453.268C301.551 453.268 291.57 448.544 284.067 439.966C276.577 431.404 272.452 420.025 272.452 407.923C272.452 395.821 276.577 384.44 284.067 375.879C291.57 367.301 301.551 362.577 312.172 362.577C322.792 362.577 332.774 367.301 340.277 375.879C347.767 384.44 351.892 395.821 351.892 407.923C351.892 420.025 347.767 431.404 340.277 439.966C332.774 448.544 322.792 453.268 312.172 453.268ZM312.172 363.422C290.735 363.422 273.295 383.385 273.295 407.923C273.295 432.46 290.735 452.423 312.172 452.423C333.608 452.423 351.049 432.46 351.049 407.923C351.049 383.385 333.608 363.422 312.172 363.422Z" fill="white"/>
    <path d="M309.405 394.959H299.297L328.364 323.58H356.788L344.096 368.65C339.713 384.212 325.542 394.959 309.405 394.959Z" fill="white"/>
    <path d="M289.006 414.835V407.892C289.006 400.749 294.785 394.959 301.913 394.959H309.433C334.31 394.959 351.702 370.299 343.397 346.803L334.298 321.059C331.482 313.091 323.962 307.766 315.525 307.766C309.001 307.766 302.891 310.968 299.168 316.337L284.985 336.798C281.806 341.385 282.656 347.646 286.943 351.214L288.776 352.74H282.679C266.399 352.74 253.201 365.964 253.201 382.276V408.213L289.006 414.835Z" fill="#79A7D6"/>
    <path d="M313.899 308.438L324.487 309.59C324.487 309.59 322.315 318.499 317.542 320.23C313.801 321.588 309.936 320.338 308.931 317.495C308.908 317.43 308.887 317.367 308.868 317.302C308.197 317.801 307.367 318.094 306.468 318.094C304.239 318.094 302.431 316.284 302.431 314.05C302.431 311.816 305.733 310.005 307.962 310.005L313.899 308.438Z" fill="white"/>
    <path d="M300.527 353.123C300.441 353.123 300.355 353.094 300.283 353.035L298.45 351.509C295.744 349.256 294.285 345.942 294.447 342.416C294.457 342.205 294.631 342.043 294.845 342.052C295.056 342.062 295.22 342.241 295.21 342.452C295.059 345.736 296.418 348.822 298.938 350.92L300.771 352.446C300.933 352.581 300.955 352.822 300.821 352.985C300.745 353.076 300.636 353.123 300.527 353.123Z" fill="white"/>
    <path d="M293.409 353.163H288.776C288.542 353.163 288.353 352.973 288.353 352.74C288.353 352.507 288.542 352.317 288.776 352.317H293.409C293.642 352.317 293.83 352.507 293.83 352.74C293.83 352.973 293.642 353.163 293.409 353.163Z" fill="#79A7D6"/>
    <path d="M315.792 351.861C315.654 351.861 315.52 351.793 315.439 351.669C315.312 351.474 315.366 351.211 315.561 351.084L328.734 342.466C328.929 342.338 329.19 342.392 329.318 342.588C329.445 342.783 329.39 343.046 329.195 343.173L316.023 351.792C315.952 351.838 315.871 351.861 315.792 351.861Z" fill="#79A7D6"/>
    <path d="M325.751 344.996C325.744 344.996 325.738 344.996 325.731 344.996C325.499 344.985 325.318 344.787 325.329 344.554L325.494 340.973C325.504 340.74 325.706 340.558 325.934 340.57C326.166 340.581 326.346 340.779 326.335 341.012L326.171 344.593C326.162 344.82 325.975 344.996 325.751 344.996Z" fill="#79A7D6"/>
    <path d="M304.681 325.244C304.609 325.244 304.536 325.225 304.47 325.187C304.268 325.07 304.2 324.811 304.316 324.609L308.324 317.662C308.44 317.459 308.698 317.39 308.9 317.507C309.102 317.624 309.17 317.882 309.054 318.085L305.046 325.032C304.968 325.168 304.827 325.244 304.681 325.244Z" fill="#79A7D6"/>
    <path d="M335.314 358.632H322.947C322.714 358.632 322.524 358.443 322.524 358.21C322.524 357.977 322.714 357.787 322.947 357.787H335.314C338.086 357.787 340.593 356.486 342.193 354.219C343.792 351.951 344.178 349.149 343.253 346.531C343.176 346.311 343.291 346.069 343.51 345.991C343.731 345.914 343.971 346.028 344.049 346.248C345.066 349.128 344.641 352.211 342.881 354.706C341.122 357.201 338.363 358.632 335.314 358.632Z" fill="#79A7D6"/>
    <path d="M289.006 414.835V429.311C289.006 431.981 286.693 434.06 284.043 433.773L253.201 430.345V408.213L289.006 414.835Z" fill="#B3702D"/>
    <path d="M266.161 431.812L243.33 429.227L243.343 428.771C243.343 427.04 244.218 425.801 245.682 424.881L253.206 420.157C253.206 420.157 262.586 421.508 266.161 431.812Z" fill="#A4D3F1"/>
    <path d="M281.29 433.475L258.483 430.785V430.415C258.483 429.048 259.185 427.777 260.341 427.051L268.359 422.016C268.359 422.016 277.715 423.171 281.29 433.475Z" fill="#A4D3F1"/>
    <path d="M258.483 431.208C258.249 431.208 258.061 431.018 258.061 430.785V430.415C258.061 428.893 258.83 427.502 260.117 426.693L268.136 421.658C268.333 421.535 268.594 421.595 268.717 421.792C268.841 421.99 268.781 422.25 268.584 422.374L260.565 427.41C259.525 428.062 258.905 429.186 258.905 430.415V430.785C258.905 431.018 258.716 431.208 258.483 431.208Z" fill="#56303C"/>
    <path d="M268.359 422.439C268.152 422.439 267.972 422.285 267.942 422.075L264.66 398.693C264.628 398.462 264.788 398.248 265.019 398.216C265.249 398.183 265.463 398.344 265.496 398.575L268.777 421.957C268.81 422.189 268.65 422.403 268.419 422.435C268.399 422.438 268.379 422.439 268.359 422.439Z" fill="#56303C"/>
    <path d="M326.954 357.59H320.187C318.575 357.59 317.199 358.753 316.927 360.344L316.816 360.993C316.685 361.761 315.896 362.227 315.162 361.97L309.381 359.946C308.54 359.652 308.005 358.823 308.083 357.933L308.21 356.828C308.342 355.681 309.022 354.67 310.033 354.115L315.482 351.128C315.482 351.128 327.099 350.797 326.954 357.59Z" fill="#B3702D"/>
    <path d="M309.999 360.368C309.983 360.368 309.968 360.367 309.952 360.365C309.72 360.34 309.554 360.132 309.579 359.899L309.969 356.369C309.995 356.137 310.204 355.971 310.435 355.996C310.667 356.021 310.834 356.23 310.808 356.462L310.418 359.992C310.394 360.208 310.211 360.368 309.999 360.368Z" fill="#56303C"/>
    <path d="M312.009 360.988C311.994 360.988 311.978 360.987 311.962 360.985C311.731 360.96 311.564 360.751 311.59 360.519L311.98 356.989C312.005 356.757 312.215 356.591 312.446 356.615C312.677 356.641 312.844 356.85 312.818 357.082L312.428 360.612C312.404 360.828 312.221 360.988 312.009 360.988Z" fill="#56303C"/>
    <path d="M314.02 361.608C314.004 361.608 313.988 361.606 313.973 361.605C313.741 361.579 313.574 361.371 313.6 361.139L313.99 357.608C314.016 357.376 314.224 357.21 314.455 357.235C314.687 357.26 314.853 357.47 314.828 357.702L314.439 361.231C314.415 361.448 314.232 361.608 314.02 361.608Z" fill="#56303C"/>
    <path d="M308.998 317.873L300.465 310.08C297.462 307.337 297.067 302.742 299.558 299.526L306.923 290.018L323.692 309C323.977 309.323 323.721 309.83 323.292 309.791C317.8 309.29 312.507 311.987 309.679 316.73L308.998 317.873Z" fill="#B3702D"/>
    <path d="M307.39 301.024C307.39 301.447 307.049 301.789 306.627 301.789C306.204 301.789 305.863 301.447 305.863 301.024C305.863 300.601 306.204 300.259 306.627 300.259C307.049 300.259 307.39 300.601 307.39 301.024Z" fill="#56303C"/>
    <path d="M301.382 301.024C301.382 301.386 301.088 301.68 300.727 301.68C300.366 301.68 300.072 301.386 300.072 301.024C300.072 300.662 300.366 300.368 300.727 300.368C301.088 300.368 301.382 300.662 301.382 301.024Z" fill="#56303C"/>
    <path d="M304.727 307.228C304.5 307.228 304.296 307.204 304.135 307.168C303.907 307.117 303.765 306.891 303.815 306.663C303.865 306.436 304.089 306.293 304.316 306.342C304.375 306.355 305.763 306.637 306.361 305.468C306.467 305.26 306.721 305.178 306.928 305.284C307.135 305.391 307.218 305.645 307.111 305.853C306.556 306.941 305.505 307.228 304.727 307.228Z" fill="#56303C"/>
    <path d="M303.266 305.768C302.129 305.768 301.206 304.837 301.206 303.691C301.206 302.712 301.895 301.856 302.845 301.657L302.844 300.057C302.844 299.823 303.032 299.635 303.266 299.635C303.499 299.635 303.688 299.823 303.688 300.057V301.646C303.688 302.051 303.406 302.404 303.018 302.485C302.456 302.602 302.049 303.11 302.049 303.691C302.049 304.371 302.595 304.923 303.266 304.923C303.499 304.923 303.688 305.112 303.688 305.346C303.688 305.58 303.499 305.768 303.266 305.768Z" fill="#56303C"/>
    <path d="M309.022 299.77C308.872 300.081 308.066 300.002 307.223 299.593C306.379 299.184 305.818 298.6 305.968 298.29C306.118 297.979 306.924 298.058 307.767 298.467C308.611 298.876 309.172 299.46 309.022 299.77Z" fill="#EBDFC3"/>
    <path d="M302.362 298.314C302.44 298.645 301.772 299.088 300.87 299.303C299.967 299.519 299.171 299.426 299.093 299.094C299.014 298.763 299.681 298.32 300.584 298.105C301.487 297.889 302.284 297.982 302.362 298.314Z" fill="#EBDFC3"/>
    <path d="M330.565 306.058C330.368 306.073 330.172 306.082 329.977 306.083C328.487 308.341 325.888 309.837 322.932 309.837C318.309 309.837 314.561 306.178 314.561 301.662C314.561 300.802 314.697 299.973 314.95 299.195C314.313 299.342 313.644 299.419 312.955 299.419C308.615 299.419 305.091 296.314 305.03 292.462L300.954 297.725C297.695 297.151 295.107 294.43 294.835 290.972C294.514 286.871 297.57 283.286 301.664 282.964C302.405 282.906 303.129 282.959 303.82 283.108C304.182 279.6 306.999 276.742 310.632 276.456C312.61 276.3 314.467 276.936 315.896 278.097C317.641 276.866 319.791 276.326 321.953 276.761C324.188 277.212 326.009 278.619 327.137 280.523C331.453 280.196 335.224 283.43 335.562 287.757C335.679 289.228 335.382 290.637 334.769 291.869C336.482 293.189 337.652 295.204 337.834 297.533C338.177 301.898 334.922 305.714 330.565 306.058Z" fill="#EBDFC3"/>
    <path d="M325.3 302.045C325.224 302.045 325.147 302.022 325.08 301.975C323.64 300.961 323.291 298.961 324.304 297.518C324.425 297.345 324.662 297.303 324.836 297.425C325.008 297.546 325.05 297.785 324.929 297.958C324.556 298.49 324.412 299.136 324.523 299.776C324.634 300.416 324.988 300.975 325.519 301.349C325.691 301.471 325.734 301.709 325.612 301.882C325.538 301.988 325.42 302.045 325.3 302.045Z" fill="white"/>
    <path d="M309.746 293.317C309.696 293.317 309.646 293.308 309.598 293.287C307.714 292.49 306.905 290.127 307.793 288.019C307.874 287.824 308.098 287.734 308.293 287.816C308.488 287.898 308.578 288.122 308.496 288.316C307.771 290.036 308.399 291.949 309.894 292.582C310.089 292.664 310.179 292.889 310.097 293.084C310.035 293.23 309.895 293.317 309.746 293.317Z" fill="white"/>
    <path d="M306.555 291.602C306.244 291.602 305.932 291.556 305.626 291.464C304.81 291.217 304.138 290.666 303.736 289.912C303.636 289.725 303.707 289.494 303.892 289.394C304.079 289.294 304.31 289.365 304.409 289.551C304.716 290.124 305.226 290.543 305.847 290.732C306.468 290.92 307.125 290.855 307.698 290.547C307.884 290.447 308.115 290.518 308.215 290.704C308.314 290.889 308.244 291.122 308.059 291.222C307.588 291.474 307.074 291.602 306.555 291.602Z" fill="white"/>
    <path d="M379.739 320.78H366.478C365.677 320.78 365.027 320.129 365.027 319.327C365.027 318.524 365.677 317.873 366.478 317.873H379.739C380.539 317.873 381.189 318.524 381.189 319.327C381.189 320.129 380.539 320.78 379.739 320.78Z" fill="#D8AF28"/>
    <path d="M289.396 436.531L241.812 431.146L242.045 429.082L289.628 434.468L289.396 436.531Z" fill="#56303C"/>
    <path d="M337.221 453.268C326.601 453.268 316.62 448.544 309.116 439.966C301.626 431.404 297.501 420.025 297.501 407.923C297.501 395.821 301.626 384.44 309.116 375.879C316.62 367.301 326.601 362.577 337.221 362.577C347.842 362.577 357.823 367.301 365.327 375.879C372.816 384.44 376.941 395.821 376.941 407.923C376.941 420.025 372.816 431.404 365.327 439.966C357.823 448.544 347.842 453.268 337.221 453.268ZM337.221 363.422C315.784 363.422 298.345 383.385 298.345 407.923C298.345 432.46 315.784 452.423 337.221 452.423C358.658 452.423 376.097 432.46 376.097 407.923C376.097 383.385 358.658 363.422 337.221 363.422Z" fill="white"/>
    <path d="M309.743 395.382H299.297C299.064 395.382 298.875 395.192 298.875 394.959C298.875 394.726 299.064 394.536 299.297 394.536H309.743C325.099 394.536 338.814 384.215 343.095 369.437L356.218 324.126C357.326 320.197 360.949 317.451 365.027 317.451H380.89C381.122 317.451 381.312 317.639 381.312 317.873C381.312 318.107 381.122 318.295 380.89 318.295H365.027C361.325 318.295 358.036 320.788 357.029 324.358L343.904 369.673C341.74 377.146 337.315 383.565 331.105 388.238C324.896 392.911 317.508 395.382 309.743 395.382Z" fill="#56303C"/>
    <path d="M337.456 411.367C335.456 411.367 333.828 409.737 333.828 407.733C333.828 405.73 335.456 404.099 337.456 404.099C339.455 404.099 341.082 405.73 341.082 407.733C341.082 409.737 339.455 411.367 337.456 411.367ZM337.456 404.944C335.921 404.944 334.672 406.196 334.672 407.733C334.672 409.271 335.921 410.522 337.456 410.522C338.99 410.522 340.238 409.271 340.238 407.733C340.238 406.196 338.99 404.944 337.456 404.944Z" fill="white"/>
    <path d="M342.235 361.3H319.295C318.273 361.3 317.444 360.47 317.444 359.445C317.444 358.421 318.273 357.59 319.295 357.59H342.235C343.257 357.59 344.086 358.421 344.086 359.445C344.086 360.47 343.257 361.3 342.235 361.3Z" fill="#56303C"/>
    <path d="M419.325 242.668L391.815 254.159L396.494 228.481H394.77C393.864 228.481 393.167 227.675 393.295 226.776L393.683 224.065C394.208 220.382 397.356 217.646 401.069 217.646H410.672C415.292 217.646 419.047 221.378 419.087 226.006L419.325 242.668Z" fill="#56303C"/>
    <path d="M418.598 242.953L411.033 245.918C410.132 246.271 409.547 247.151 409.57 248.12L409.749 255.973H405.514L403.808 245.196L402.789 238.746H402.788C400.798 238.883 398.21 237.188 398.403 235.199L398.707 227.406H411.762L410.539 236.543C409.936 241.055 414.364 244.564 418.598 242.953Z" fill="#F7ACB0"/>
    <path d="M402.542 233.13C402.124 233.13 401.721 232.953 401.437 232.646C401.153 232.338 401.009 231.923 401.041 231.505L401.044 231.48L401.697 226.754C401.729 226.523 401.942 226.361 402.172 226.393C402.403 226.425 402.564 226.638 402.532 226.87L401.881 231.581C401.87 231.764 401.932 231.937 402.056 232.072C402.183 232.209 402.355 232.284 402.542 232.284C402.774 232.284 402.964 232.474 402.964 232.707C402.964 232.941 402.774 233.13 402.542 233.13Z" fill="#56303C"/>
    <path d="M405.808 229.751C405.808 230.113 405.514 230.407 405.153 230.407C404.792 230.407 404.499 230.113 404.499 229.751C404.499 229.389 404.792 229.095 405.153 229.095C405.514 229.095 405.808 229.389 405.808 229.751Z" fill="#56303C"/>
    <path d="M400.078 229.751C400.078 230.083 399.858 230.353 399.587 230.353C399.315 230.353 399.096 230.083 399.096 229.751C399.096 229.419 399.315 229.15 399.587 229.15C399.858 229.15 400.078 229.419 400.078 229.751Z" fill="#56303C"/>
    <path d="M402.205 234.659C401.973 234.659 401.784 234.471 401.784 234.237C401.784 234.003 401.973 233.814 402.205 233.814C402.675 233.814 403.548 233.815 404.217 233.044C404.37 232.868 404.636 232.849 404.812 233.002C404.987 233.155 405.006 233.422 404.853 233.598C403.932 234.659 402.722 234.659 402.205 234.659Z" fill="#56303C"/>
    <path d="M398.835 232.128C397.682 232.128 396.744 231.016 396.744 229.648C396.744 228.281 397.682 227.168 398.835 227.168C399.989 227.168 400.927 228.281 400.927 229.648C400.927 231.016 399.989 232.128 398.835 232.128ZM398.835 227.644C397.944 227.644 397.218 228.543 397.218 229.648C397.218 230.754 397.944 231.653 398.835 231.653C399.727 231.653 400.452 230.754 400.452 229.648C400.452 228.543 399.727 227.644 398.835 227.644Z" fill="white"/>
    <path d="M405.33 232.192C403.99 232.192 402.9 231.051 402.9 229.648C402.9 228.245 403.99 227.104 405.33 227.104C406.67 227.104 407.76 228.245 407.76 229.648C407.76 231.051 406.67 232.192 405.33 232.192ZM405.33 227.601C404.264 227.601 403.395 228.52 403.395 229.648C403.395 230.777 404.264 231.695 405.33 231.695C406.396 231.695 407.264 230.777 407.264 229.648C407.264 228.52 406.396 227.601 405.33 227.601Z" fill="white"/>
    <path d="M407.167 237.306C407.167 237.306 404.796 238.754 402.425 238.754L403.288 241.903L407.167 237.306Z" fill="#56303C"/>
    <path d="M423.078 229.426C420.945 232.797 413.854 232.125 407.24 227.924C400.626 223.724 396.993 217.585 399.126 214.214C401.259 210.842 408.349 211.515 414.963 215.716C421.577 219.916 425.211 226.054 423.078 229.426Z" fill="black"/>
    <path d="M413.188 220.513C413.118 220.513 413.048 220.494 412.984 220.453C412.806 220.34 412.753 220.104 412.866 219.925C412.954 219.787 412.982 219.624 412.946 219.464C412.911 219.305 412.815 219.169 412.677 219.082C412.54 218.994 412.376 218.966 412.217 219.002C412.058 219.037 411.923 219.133 411.836 219.271C411.723 219.449 411.487 219.502 411.308 219.389C411.13 219.276 411.077 219.04 411.19 218.861C411.386 218.551 411.692 218.335 412.05 218.255C412.409 218.175 412.776 218.239 413.086 218.436C413.396 218.632 413.612 218.939 413.692 219.297C413.772 219.656 413.707 220.025 413.511 220.335C413.439 220.45 413.314 220.513 413.188 220.513Z" fill="white"/>
    <path d="M448.687 379.036H395.322L392.285 375.435C387.552 369.823 385.341 362.503 386.173 355.204L391.154 311.492L381.633 317.073L375.4 311.42L392.735 297.607L393.569 290.29L388.791 284.654L382.166 295.797L351.819 316.111L344.484 310.16L372.501 286.387L385.017 258.977C386.176 256.439 388.345 254.506 390.997 253.652L400.318 250.645C401.732 250.189 402.691 248.87 402.691 247.382V246.56C402.691 245.896 403.159 245.324 403.808 245.195L405.514 255.972H409.749L409.57 248.12C409.547 247.151 410.132 246.271 411.033 245.918L420.414 242.242C421.284 241.901 422.254 242.419 422.458 243.333L423.431 247.704L430.632 252.175C433.94 254.23 435.452 258.261 434.311 261.991L425.322 291.364C424.617 293.669 424.721 296.147 425.618 298.385L448.687 379.036Z" fill="#79A7D6"/>
    <path d="M393.569 290.713C393.449 290.713 393.331 290.662 393.247 290.564L390.586 287.426C389.158 285.741 388.566 283.529 388.96 281.354L390.873 270.804C390.915 270.575 391.135 270.423 391.363 270.464C391.592 270.506 391.745 270.726 391.703 270.956L389.79 281.505C389.441 283.43 389.966 285.389 391.23 286.879L393.89 290.017C394.041 290.195 394.019 290.461 393.842 290.613C393.763 290.68 393.665 290.713 393.569 290.713Z" fill="#56303C"/>
    <path d="M415.83 379.459C415.628 379.459 415.449 379.313 415.414 379.107L403.023 305.227C402.985 304.997 403.14 304.78 403.37 304.741C403.6 304.703 403.817 304.857 403.855 305.087L416.246 378.966C416.285 379.196 416.13 379.414 415.9 379.453C415.876 379.457 415.853 379.459 415.83 379.459Z" fill="white"/>
    <path d="M401.212 291.276C401.011 291.276 400.832 291.131 400.797 290.925L395.706 261.597C395.482 260.07 395.927 258.536 396.927 257.376C397.926 256.216 399.376 255.551 400.906 255.551H409.749C409.982 255.551 410.171 255.739 410.171 255.973C410.171 256.207 409.982 256.396 409.749 256.396H400.906C399.622 256.396 398.404 256.953 397.565 257.928C396.725 258.902 396.352 260.19 396.539 261.463L401.628 290.78C401.668 291.009 401.514 291.229 401.285 291.269C401.26 291.273 401.236 291.276 401.212 291.276Z" fill="white"/>
    <path d="M396.981 294.647C396.857 294.647 396.734 294.593 396.65 294.488C396.505 294.305 396.536 294.039 396.718 293.894L406.459 286.132L413.761 265.018C413.838 264.797 414.077 264.68 414.298 264.757C414.518 264.834 414.634 265.074 414.558 265.295L407.175 286.641L397.243 294.555C397.166 294.617 397.073 294.647 396.981 294.647Z" fill="#56303C"/>
    <path d="M393.393 311.843C393.252 311.843 393.115 311.772 393.035 311.643C392.912 311.445 392.973 311.184 393.171 311.061L413.246 298.546C414.934 297.556 416.298 296.123 417.199 294.397L424.968 279.495C425.076 279.288 425.33 279.208 425.537 279.316C425.743 279.424 425.823 279.68 425.715 279.886L417.946 294.788C416.972 296.656 415.498 298.206 413.683 299.27L393.616 311.778C393.547 311.821 393.469 311.843 393.393 311.843Z" fill="#56303C"/>
    <path d="M415.036 251.692L410.804 247.458C410.639 247.293 410.638 247.026 410.803 246.86C410.967 246.695 411.234 246.695 411.399 246.86L415.218 250.679L423.874 246.699C424.085 246.603 424.337 246.695 424.434 246.907C424.531 247.12 424.438 247.37 424.226 247.468L415.036 251.692Z" fill="white"/>
    <path d="M397.859 266.623H395.29C395.057 266.623 394.868 266.435 394.868 266.201C394.868 265.967 395.057 265.778 395.29 265.778H397.859C398.092 265.778 398.28 265.967 398.28 266.201C398.28 266.435 398.092 266.623 397.859 266.623Z" fill="#56303C"/>
    <path d="M399.405 276.229H396.836C396.603 276.229 396.414 276.04 396.414 275.806C396.414 275.573 396.603 275.384 396.836 275.384H399.405C399.638 275.384 399.827 275.573 399.827 275.806C399.827 276.04 399.638 276.229 399.405 276.229Z" fill="#56303C"/>
    <path d="M369.616 322.029C368.742 322.029 368.034 321.319 368.034 320.444V319.042C368.034 317.983 368.515 316.983 369.343 316.324L375.498 311.42L380.921 316.337L378.033 317.868C377.234 318.293 376.735 318.814 376.735 319.719V319.927C376.735 320.398 377.116 320.78 377.586 320.78H379.319L378.496 321.611C378.231 321.879 377.87 322.029 377.494 322.029H369.616Z" fill="#F7ACB0"/>
    <path d="M350.123 314.604L347.483 317.493H338.067C338.459 316.567 339.024 315.714 339.742 314.984L344.484 310.16L350.123 314.604Z" fill="#F7ACB0"/>
    <path d="M346.665 321.61H339.954C339.68 321.61 339.416 321.529 339.213 321.386L338.345 320.772H338.88C339.425 320.772 339.904 320.483 340.041 320.069L340.113 319.855C340.315 319.247 341.016 318.823 341.818 318.823H347.975C348.621 318.823 349.093 319.302 348.929 319.792L348.744 320.351C348.497 321.092 347.642 321.61 346.665 321.61Z" fill="#F7ACB0"/>
    <path d="M346.233 321.682C346.169 321.682 346.104 321.668 346.042 321.637C345.834 321.531 345.752 321.276 345.858 321.068L346.913 318.992C347.02 318.784 347.273 318.702 347.481 318.808C347.688 318.914 347.771 319.168 347.665 319.376L346.609 321.452C346.535 321.598 346.386 321.682 346.233 321.682Z" fill="#56303C"/>
    <path d="M344.069 321.682C344.004 321.682 343.939 321.668 343.877 321.637C343.669 321.531 343.587 321.276 343.693 321.068L344.749 318.992C344.855 318.784 345.108 318.702 345.316 318.808C345.524 318.914 345.606 319.168 345.5 319.376L344.445 321.452C344.37 321.598 344.222 321.682 344.069 321.682Z" fill="#56303C"/>
    <path d="M341.903 321.682C341.839 321.682 341.774 321.668 341.712 321.637C341.504 321.531 341.423 321.276 341.528 321.068L342.584 318.992C342.691 318.784 342.944 318.702 343.152 318.808C343.359 318.914 343.441 319.168 343.336 319.376L342.279 321.452C342.205 321.598 342.057 321.682 341.903 321.682Z" fill="#56303C"/>
    <path d="M416.013 378.812L415.975 378.929L415.929 379.062L414.127 384.631L413.982 385.072L413.814 385.598L413.41 386.848L412.188 390.608L412.051 391.049L410.256 396.584L410.111 397.026L408.317 402.561L408.18 403.003L408.172 403.003L408.096 403.245L408.096 403.253L407.691 404.495L407.24 405.887L406.309 408.763L406.24 408.98L404.369 414.74L404.301 414.957L402.613 420.159L402.415 420.767L402.376 420.884L402.361 420.934L400.498 426.677L400.422 426.911L398.536 432.729L398.467 432.954L397.138 437.039L396.909 437.748L396.727 437.719L391.219 436.89L390.788 436.827L383.797 435.78L384.33 433.146L384.381 432.888L385.551 427.122L385.602 426.864L386.786 421.023L386.808 420.915L387.926 415.389L388.013 414.957L389.131 409.432L389.219 409L389.965 405.335L390.345 403.474L390.345 403.458L390.433 403.034L391.551 397.516L391.639 397.076L393.97 385.56L394.05 385.161L397.646 367.413L397.675 367.255L398.793 361.738L398.889 361.297L400.036 355.622L400.094 355.34L400.445 353.603L400.825 351.725L401.213 349.822L401.3 349.382L402.418 343.865L402.506 343.424L404.83 331.949L404.917 331.509L405.685 327.737L405.692 327.687L405.934 326.507L406.888 331.457L406.974 331.893L408.024 337.353L408.11 337.789L409.16 343.249L409.245 343.684L410.296 349.144L410.381 349.58L411.432 355.04L411.517 355.476L412.568 360.936L412.653 361.372L412.758 361.922L413.264 364.546L414.839 372.727L414.925 373.163L416.013 378.812Z" fill="black"/>
    <path d="M382.863 440.573L395.498 442.228L391.912 453.288L371.284 451.529C370.57 451.468 370.535 450.435 371.242 450.323L375.497 449.654C378.953 449.109 381.7 446.456 382.367 443.017L382.863 440.573Z" fill="#B3702D"/>
    <path d="M396.811 438.171L395.495 442.227L382.861 440.571L383.744 436.21L396.811 438.171Z" fill="#F7ACB0"/>
    <path d="M395.411 442.946C395.389 442.946 395.367 442.944 395.345 442.942L382.728 441.29C382.497 441.259 382.334 441.048 382.364 440.817C382.394 440.586 382.606 440.423 382.837 440.453L395.454 442.104C395.685 442.135 395.848 442.347 395.818 442.578C395.791 442.787 395.615 442.94 395.411 442.946Z" fill="#8E1D1D"/>
    <path d="M385.287 444.235C385.265 444.235 385.242 444.233 385.22 444.231L381.865 443.791C381.634 443.761 381.471 443.549 381.502 443.317C381.532 443.086 381.744 442.923 381.975 442.953L385.33 443.393C385.561 443.423 385.723 443.636 385.693 443.867C385.666 444.076 385.491 444.229 385.287 444.235Z" fill="#8E1D1D"/>
    <path d="M384.718 446.109C384.695 446.11 384.673 446.108 384.651 446.106L381.296 445.665C381.065 445.635 380.902 445.423 380.932 445.192C380.962 444.96 381.173 444.798 381.405 444.828L384.76 445.268C384.991 445.298 385.154 445.51 385.124 445.741C385.096 445.95 384.921 446.104 384.718 446.109Z" fill="#8E1D1D"/>
    <path d="M391.924 453.712C391.909 453.713 391.893 453.712 391.877 453.711L370.941 451.959C370.708 451.939 370.537 451.736 370.556 451.503C370.576 451.271 370.78 451.096 371.012 451.118L391.948 452.869C392.181 452.889 392.353 453.093 392.333 453.326C392.315 453.542 392.136 453.706 391.924 453.712Z" fill="#8E1D1D"/>
    <path d="M396.899 437.793L396.769 438.201L383.701 436.242L383.79 435.827L396.899 437.793Z" fill="black"/>
    <path d="M390.351 403.474L391.23 437.056L390.801 437.067L389.97 405.335L390.351 403.474Z" fill="#B3702D"/>
    <path d="M397.175 438.101L396.739 438.113L395.203 379.492L395.64 379.48L397.175 438.101Z" fill="#B3702D"/>
    <path d="M400.822 351.725L402.634 420.879L402.204 420.89L400.442 353.602L400.822 351.725Z" fill="#B3702D"/>
    <path d="M406.113 327.678L408.092 403.258L407.687 404.5L405.675 327.69L406.113 327.678Z" fill="#B3702D"/>
    <path d="M415.974 379.064L395.576 379.602L395.565 379.165L415.963 378.627L415.974 379.064Z" fill="#B3702D"/>
    <path d="M414.922 373.166L396.616 373.649L396.605 373.212L414.911 372.729L414.922 373.166Z" fill="#B3702D"/>
    <path d="M413.572 367.276L397.656 367.696L397.645 367.26L413.56 366.84L413.572 367.276Z" fill="#B3702D"/>
    <path d="M412.809 360.93L412.82 361.367L398.791 361.737L398.887 361.298L412.809 360.93Z" fill="#B3702D"/>
    <path d="M412.066 355.463L400.035 355.781L400.023 355.345L412.054 355.027L412.066 355.463Z" fill="#B3702D"/>
    <path d="M410.701 349.134L410.713 349.571L401.209 349.822L401.296 349.382L410.701 349.134Z" fill="#B3702D"/>
    <path d="M409.351 343.243L409.362 343.68L402.414 343.864L402.501 343.424L409.351 343.243Z" fill="#B3702D"/>
    <path d="M408.314 337.785L403.786 337.905L403.774 337.469L408.303 337.349L408.314 337.785Z" fill="#B3702D"/>
    <path d="M406.964 331.895L404.791 331.953L404.78 331.516L406.953 331.459L406.964 331.895Z" fill="#B3702D"/>
    <path d="M400.506 426.912L385.565 427.307L385.553 426.871L400.494 426.476L400.506 426.912Z" fill="#B3702D"/>
    <path d="M398.549 432.952L384.342 433.327L384.33 432.891L398.538 432.516L398.549 432.952Z" fill="#B3702D"/>
    <path d="M402.422 420.936L386.805 421.348L386.794 420.912L402.41 420.5L402.422 420.936Z" fill="#B3702D"/>
    <path d="M388.021 414.957L387.933 415.389L387.842 415.392L387.83 414.962L388.021 414.957Z" fill="black"/>
    <path d="M404.366 414.527L404.377 414.955L387.933 415.39L388.02 414.959L404.366 414.527Z" fill="#B3702D"/>
    <path d="M406.304 408.55L406.315 408.978L389.137 409.431L389.225 409L406.304 408.55Z" fill="#B3702D"/>
    <path d="M408.324 402.563L408.179 403.004L390.35 403.474L390.35 403.457L390.438 403.034L408.324 402.563Z" fill="#B3702D"/>
    <path d="M410.271 396.586L410.126 397.027L391.555 397.516L391.642 397.077L410.271 396.586Z" fill="#B3702D"/>
    <path d="M412.216 390.611L412.071 391.052L392.898 391.558L392.887 391.121L412.216 390.611Z" fill="#B3702D"/>
    <path d="M414.155 384.635L414.018 385.075L393.971 385.604L393.96 385.167L414.155 384.635Z" fill="#B3702D"/>
    <path d="M413.166 361.048L413.811 385.702L413.406 386.944L412.728 361.06L413.166 361.048Z" fill="#B3702D"/>
    <path d="M398.086 438.405C398.058 438.604 397.881 438.757 397.683 438.763C397.658 438.763 397.633 438.764 397.609 438.756L382.677 436.517C382.446 436.482 382.292 436.271 382.327 436.039C382.362 435.807 382.581 435.644 382.804 435.68L383.79 435.827L396.899 437.792L397.735 437.919C397.967 437.954 398.121 438.173 398.086 438.405Z" fill="#8E1D1D"/>
    <path d="M433.433 428.473L430.125 430.711L429.681 431.007L427.629 432.398L427 432.822L424.203 434.709L423.759 435.013L422.243 436.036L422.125 436.116L422.062 435.991L418.412 429.189L417.993 428.403L413.812 420.606L412.735 418.59L412.316 417.812L405.855 405.757L406.442 404.209L406.907 402.98L407.021 402.677L407.188 402.243L409.24 396.802L409.248 396.802L409.407 396.368L415.931 379.145L417.901 384.71L417.924 384.769L418.91 387.543L419.321 388.701L420.027 390.684L420.174 391.109L422.145 396.657L422.3 397.099L424.263 402.63L424.418 403.072L424.473 403.222L424.884 404.38L426.389 408.612L426.544 409.053L428.507 414.585L428.662 415.018L430.625 420.558L430.78 420.992L432.743 426.532L432.828 426.765L433.387 428.339L433.433 428.473Z" fill="black"/>
    <path d="M433.63 428.681L422.373 436.291L422.176 435.915L433.482 428.273L433.63 428.681Z" fill="black"/>
    <path d="M432.818 426.966L417.067 426.609L417.076 426.173L432.827 426.53L432.818 426.966Z" fill="#B3702D"/>
    <path d="M427.946 432.843L420.313 432.67L420.323 432.233L427.956 432.407L427.946 432.843Z" fill="#B3702D"/>
    <path d="M430.777 420.991L413.812 420.607L413.822 420.178L430.622 420.559L430.777 420.991Z" fill="#B3702D"/>
    <path d="M428.66 415.018L410.64 414.609L410.649 414.181L428.505 414.585L428.66 415.018Z" fill="#B3702D"/>
    <path d="M426.543 409.053L407.426 408.62L407.436 408.183L426.388 408.612L426.543 409.053Z" fill="#B3702D"/>
    <path d="M424.418 403.071L412.654 402.804L412.664 402.367L424.263 402.63L424.418 403.071Z" fill="#B3702D"/>
    <path d="M422.301 397.098L412.788 396.882L412.798 396.445L422.146 396.657L422.301 397.098Z" fill="#B3702D"/>
    <path d="M420.176 391.108L420.175 391.124L412.921 390.96L412.931 390.522L420.029 390.683L420.176 391.108Z" fill="#B3702D"/>
    <path d="M430.105 431.414L429.667 431.404L429.909 420.68L430.346 420.69L430.105 431.414Z" fill="#B3702D"/>
    <path d="M413.366 390.537L412.731 418.745L412.294 418.735L412.928 390.527L413.366 390.537Z" fill="#B3702D"/>
    <path d="M419.322 388.7L418.408 429.356L417.97 429.346L418.911 387.542L419.322 388.7Z" fill="#B3702D"/>
    <path d="M424.883 404.379L424.19 435.172L423.753 435.162L424.471 403.221L424.883 404.379Z" fill="#B3702D"/>
    <path d="M412.796 396.449L412.786 396.887L409.241 396.806L409.408 396.372L412.796 396.449Z" fill="#B3702D"/>
    <path d="M412.663 402.372L412.653 402.809L407.006 402.681L407.172 402.247L412.663 402.372Z" fill="#B3702D"/>
    <path d="M417.926 384.715L417.917 385.152L413.712 385.057L413.87 384.623L417.926 384.715Z" fill="#B3702D"/>
    <path d="M434.07 428.889L422.252 436.882C422.177 436.93 422.094 436.953 422.012 436.951C421.871 436.948 421.749 436.888 421.669 436.77C421.533 436.577 421.589 436.314 421.781 436.178L422.175 435.914L433.482 428.273L433.599 428.193C433.792 428.057 434.055 428.112 434.182 428.305C434.318 428.498 434.263 428.761 434.07 428.889Z" fill="#56303C"/>
    <path d="M413.477 385.672L413.367 390.537L412.929 390.527L413.011 386.892L413.477 385.672Z" fill="#B3702D"/>
    <path d="M412.929 390.527L412.919 390.964L411.477 390.932L411.643 390.498L412.929 390.527Z" fill="#B3702D"/>
    <path d="M406.911 402.927L406.868 404.827L406.43 404.817L406.445 404.148L406.911 402.927Z" fill="#B3702D"/>
    <path d="M438.609 443.257L432.063 453.472L421.152 453.224C420.553 453.21 420.458 452.356 421.04 452.211L421.797 452.024C425.717 451.056 427.672 446.647 425.762 443.084L424.991 441.644L435.27 433.854L438.609 443.257Z" fill="#B3702D"/>
    <path d="M435.272 433.853L424.993 441.642L422.304 436.627L433.558 429.022L435.272 433.853Z" fill="#F7ACB0"/>
    <path d="M424.983 442.065C424.857 442.062 424.735 442.004 424.654 441.896C424.515 441.708 424.553 441.443 424.74 441.304L435.017 433.631C435.204 433.491 435.468 433.53 435.607 433.717C435.747 433.904 435.709 434.169 435.522 434.308L425.244 441.982C425.166 442.04 425.073 442.067 424.983 442.065Z" fill="#56303C"/>
    <path d="M425.841 445.186C425.716 445.183 425.592 445.124 425.512 445.016C425.372 444.829 425.41 444.564 425.597 444.425L427.93 442.682C428.118 442.543 428.381 442.582 428.521 442.768C428.66 442.956 428.622 443.22 428.435 443.36L426.102 445.102C426.024 445.161 425.932 445.188 425.841 445.186Z" fill="#56303C"/>
    <path d="M426.417 447.059C426.292 447.056 426.169 446.997 426.088 446.889C425.949 446.701 425.987 446.437 426.174 446.297L428.508 444.555C428.695 444.415 428.959 444.454 429.098 444.641C429.237 444.828 429.198 445.093 429.011 445.232L426.678 446.975C426.6 447.034 426.508 447.061 426.417 447.059Z" fill="#56303C"/>
    <path d="M432.289 453.9L420.833 453.639C420.601 453.634 420.415 453.44 420.42 453.208C420.426 452.975 420.619 452.789 420.852 452.794L431.834 453.045L438.252 443.032C438.378 442.836 438.64 442.778 438.835 442.904C439.031 443.03 439.088 443.292 438.962 443.488L432.289 453.9Z" fill="#56303C"/>
    <path d="M373.053 379.775C372.911 379.773 372.774 379.7 372.695 379.57C368.544 372.677 362.813 367.285 356.122 363.975C355.913 363.872 355.827 363.618 355.93 363.409C356.034 363.2 356.286 363.114 356.494 363.218C363.33 366.599 369.183 372.102 373.418 379.133C373.538 379.334 373.474 379.593 373.274 379.714C373.205 379.755 373.128 379.775 373.053 379.775Z" fill="white"/>
    <path d="M363.155 135.02H278.532C278.532 123.994 286.497 115.057 296.325 115.057C301.933 115.057 306.935 117.967 310.195 122.516C312.159 121.955 314.292 121.647 316.518 121.647C323.698 121.647 329.884 124.845 332.695 129.449C335.921 127.77 340.406 126.556 345.363 126.556C355.19 126.556 363.155 131.326 363.155 135.02Z" fill="#76C0EF"/>
    <path d="M252.371 153.211C252.371 174.313 235.296 191.421 214.236 191.421C193.175 191.421 176.102 174.313 176.102 153.211C176.102 132.109 193.175 115 214.236 115C235.296 115 252.371 132.109 252.371 153.211Z" fill="#F4EED9"/>
    <path d="M217.887 168.772H115C115 160.811 124.372 154.359 135.933 154.359C138.552 154.359 141.06 154.692 143.37 155.297C147.206 150.395 153.093 147.256 159.69 147.256C169.599 147.256 177.899 154.331 180.07 163.836C183.878 161.498 190.023 159.651 196.954 159.651C208.515 159.651 217.887 164.792 217.887 168.772Z" fill="#76C0EF"/>
    <path d="M193.953 242.934C193.816 246.243 191.804 248.848 189.459 248.751C187.114 248.653 185.323 245.891 185.46 242.582C185.597 239.273 187.609 236.67 189.954 236.767C192.299 236.864 194.09 239.625 193.953 242.934Z" fill="#F7ACB0"/>
    <path d="M181.929 251.941C179.74 251.459 178.229 249.862 178.556 248.374C178.882 246.886 180.923 246.07 183.112 246.552C185.302 247.034 186.812 248.632 186.486 250.12C186.16 251.607 184.118 252.423 181.929 251.941Z" fill="#F7ACB0"/>
    <path d="M189.524 252.843C187.666 253.817 185.907 254.127 185.597 253.533C185.287 252.94 186.543 251.668 188.401 250.693C190.259 249.718 192.018 249.409 192.328 250.003C192.637 250.596 191.382 251.868 189.524 252.843Z" fill="#56303C"/>
    <path d="M193.887 249.819C193.499 250.023 193.005 249.841 192.783 249.416C192.561 248.991 192.694 248.482 193.082 248.278C193.47 248.074 193.964 248.256 194.186 248.681C194.408 249.106 194.274 249.615 193.887 249.819Z" fill="#56303C"/>
    </g>
    </svg>
    