<svg width="136" height="136" viewBox="0 0 136 136" fill="none" xmlns="http://www.w3.org/2000/svg">
    <g opacity="0.25">
    <path d="M93.6638 44.9792C106.34 59.1724 105.108 80.988 90.9144 93.6638C76.7212 106.34 54.9056 105.108 42.2298 90.9143C29.554 76.7211 30.786 54.9056 44.9793 42.2298C59.1725 29.554 80.988 30.786 93.6638 44.9792Z" fill="#151414"/>
    </g>
    <g opacity="0.207397">
    <path d="M99.4629 39.8002C114.997 57.1939 113.487 83.9287 96.0934 99.4629C78.6998 114.997 51.9649 113.487 36.4308 96.0935C20.8967 78.6998 22.4065 51.9649 39.8002 36.4308C57.1939 20.8967 83.9287 22.4065 99.4629 39.8002Z" fill="#151414"/>
    </g>
    <g opacity="0.155314">
    <path d="M103.839 35.892C121.53 55.7008 119.81 86.1478 100.002 103.839C80.1928 121.53 49.7458 119.81 32.0548 100.002C14.3638 80.1927 16.0832 49.7458 35.892 32.0548C55.7008 14.3637 86.1478 16.0832 103.839 35.892Z" fill="#151414"/>
    </g>
    <path d="M94.0797 44.6077C106.96 59.0305 105.709 81.1988 91.2858 94.0796C76.8631 106.96 54.6947 105.708 41.8139 91.2857C28.9331 76.863 30.1851 54.6946 44.6078 41.8138C59.0306 28.9331 81.1989 30.185 94.0797 44.6077Z" fill="#151414"/>
    <path d="M68.2064 46.9344C65.4141 47.8222 61.1318 49.3762 58.7901 58.0008C56.8363 64.1792 56.5889 73.8323 56.5889 73.8323C56.5889 73.8323 57.097 85.803 66.3182 88.0305C74.1936 90.459 72.9452 79.8881 71.8141 77.7971C68.9328 75.5276 67.6049 77.5085 65.5724 75.4937C63.5398 73.4789 65.9657 61.3747 67.1239 60.1067C70.1053 58.9004 70.9334 60.1036 73.1997 58.6184C75.0055 57.2681 78.3306 44.325 68.2064 46.9344Z" fill="white"/>
    </svg>
    