<svg width="55" height="48" viewBox="0 0 55 48" fill="none" xmlns="http://www.w3.org/2000/svg">
    <path d="M12.24 47.28C8.34667 47.28 5.36 46.1333 3.28 43.84C1.25333 41.4933 0.240001 37.8933 0.240001 33.04C0.240001 27.2267 1.12 21.52 2.88 15.92C4.64 10.2667 6.88 5.2 9.6 0.719995H19.36C17.2267 5.89333 15.5733 10.72 14.4 15.2C13.2267 19.68 12.64 24.2133 12.64 28.8L9.36 25.52H11.6C15.0133 25.52 17.76 26.5067 19.84 28.48C21.9733 30.4 23.04 33.0667 23.04 36.48C23.04 39.7867 22.0533 42.4267 20.08 44.4C18.1067 46.32 15.4933 47.28 12.24 47.28ZM44.08 47.28C40.1867 47.28 37.2 46.1333 35.12 43.84C33.0933 41.4933 32.08 37.8933 32.08 33.04C32.08 27.2267 32.96 21.52 34.72 15.92C36.48 10.2667 38.72 5.2 41.44 0.719995H51.2C49.0667 5.89333 47.4133 10.72 46.24 15.2C45.0667 19.68 44.48 24.2133 44.48 28.8L41.2 25.52H43.44C46.8533 25.52 49.6 26.5067 51.68 28.48C53.8133 30.4 54.88 33.0667 54.88 36.48C54.88 39.7867 53.8933 42.4267 51.92 44.4C49.9467 46.32 47.3333 47.28 44.08 47.28Z" fill="black"/>
    <path d="M3.28 43.84L2.52318 44.4936L2.53112 44.5028L2.53928 44.5118L3.28 43.84ZM2.88 15.92L3.834 16.2198L3.8348 16.2172L2.88 15.92ZM9.6 0.719995V-0.280005H9.03726L8.74521 0.201017L9.6 0.719995ZM19.36 0.719995L20.2845 1.10122L20.8541 -0.280005H19.36V0.719995ZM14.4 15.2L13.4326 14.9466L13.4326 14.9466L14.4 15.2ZM12.64 28.8L11.9329 29.5071L13.64 31.2142V28.8H12.64ZM9.36 25.52V24.52H6.94579L8.65289 26.2271L9.36 25.52ZM19.84 28.48L19.1517 29.2055L19.1613 29.2145L19.171 29.2233L19.84 28.48ZM20.08 44.4L20.7774 45.1168L20.7871 45.1071L20.08 44.4ZM35.12 43.84L34.3632 44.4936L34.3711 44.5028L34.3793 44.5118L35.12 43.84ZM34.72 15.92L35.674 16.2198L35.6748 16.2172L34.72 15.92ZM41.44 0.719995V-0.280005H40.8773L40.5852 0.201017L41.44 0.719995ZM51.2 0.719995L52.1245 1.10122L52.6941 -0.280005H51.2V0.719995ZM44.48 28.8L43.7729 29.5071L45.48 31.2142V28.8H44.48ZM41.2 25.52V24.52H38.7858L40.4929 26.2271L41.2 25.52ZM51.68 28.48L50.9917 29.2055L51.0013 29.2145L51.011 29.2233L51.68 28.48ZM51.92 44.4L52.6174 45.1168L52.6271 45.1071L51.92 44.4ZM12.24 46.28C8.55101 46.28 5.86454 45.2011 4.02072 43.1682L2.53928 44.5118C4.85547 47.0656 8.14232 48.28 12.24 48.28V46.28ZM4.03682 43.1864C2.23464 41.0996 1.24 37.7824 1.24 33.04H-0.759999C-0.759999 38.0043 0.272027 41.887 2.52318 44.4936L4.03682 43.1864ZM1.24 33.04C1.24 27.3294 2.10418 21.7238 3.83399 16.2198L1.92601 15.6202C0.135816 21.3162 -0.759999 27.124 -0.759999 33.04H1.24ZM3.8348 16.2172C5.57368 10.6317 7.78207 5.6411 10.4548 1.23897L8.74521 0.201017C5.97793 4.75889 3.70632 9.90157 1.9252 15.6227L3.8348 16.2172ZM9.6 1.72H19.36V-0.280005H9.6V1.72ZM18.4355 0.338766C16.2884 5.54546 14.6194 10.4152 13.4326 14.9466L15.3674 15.4534C16.5272 11.0247 18.1649 6.2412 20.2845 1.10122L18.4355 0.338766ZM13.4326 14.9466C12.2378 19.5085 11.64 24.127 11.64 28.8H13.64C13.64 24.2997 14.2155 19.8515 15.3674 15.4534L13.4326 14.9466ZM13.3471 28.0929L10.0671 24.8129L8.65289 26.2271L11.9329 29.5071L13.3471 28.0929ZM9.36 26.52H11.6V24.52H9.36V26.52ZM11.6 26.52C14.8092 26.52 17.2921 27.4412 19.1517 29.2055L20.5283 27.7545C18.2279 25.5722 15.2175 24.52 11.6 24.52V26.52ZM19.171 29.2233C21.0537 30.9177 22.04 33.2916 22.04 36.48H24.04C24.04 32.8418 22.893 29.8823 20.509 27.7367L19.171 29.2233ZM22.04 36.48C22.04 39.5741 21.1245 41.9413 19.3729 43.6929L20.7871 45.1071C22.9822 42.912 24.04 39.9992 24.04 36.48H22.04ZM19.3826 43.6833C17.6294 45.3891 15.2835 46.28 12.24 46.28V48.28C15.7031 48.28 18.5839 47.2509 20.7774 45.1167L19.3826 43.6833ZM44.08 46.28C40.391 46.28 37.7045 45.2011 35.8607 43.1682L34.3793 44.5118C36.6955 47.0656 39.9823 48.28 44.08 48.28V46.28ZM35.8768 43.1864C34.0746 41.0996 33.08 37.7824 33.08 33.04H31.08C31.08 38.0043 32.112 41.887 34.3632 44.4936L35.8768 43.1864ZM33.08 33.04C33.08 27.3294 33.9442 21.7238 35.674 16.2198L33.766 15.6202C31.9758 21.3162 31.08 27.124 31.08 33.04H33.08ZM35.6748 16.2172C37.4137 10.6317 39.6221 5.6411 42.2948 1.23897L40.5852 0.201017C37.8179 4.75889 35.5463 9.90157 33.7652 15.6227L35.6748 16.2172ZM41.44 1.72H51.2V-0.280005H41.44V1.72ZM50.2755 0.338767C48.1284 5.54546 46.4594 10.4152 45.2726 14.9466L47.2074 15.4534C48.3672 11.0247 50.0049 6.2412 52.1245 1.10122L50.2755 0.338767ZM45.2726 14.9466C44.0778 19.5085 43.48 24.127 43.48 28.8H45.48C45.48 24.2997 46.0555 19.8515 47.2074 15.4534L45.2726 14.9466ZM45.1871 28.0929L41.9071 24.8129L40.4929 26.2271L43.7729 29.5071L45.1871 28.0929ZM41.2 26.52H43.44V24.52H41.2V26.52ZM43.44 26.52C46.6492 26.52 49.1321 27.4412 50.9917 29.2055L52.3683 27.7545C50.0679 25.5722 47.0575 24.52 43.44 24.52V26.52ZM51.011 29.2233C52.8937 30.9177 53.88 33.2916 53.88 36.48H55.88C55.88 32.8418 54.733 29.8823 52.349 27.7367L51.011 29.2233ZM53.88 36.48C53.88 39.5741 52.9645 41.9413 51.2129 43.6929L52.6271 45.1071C54.8222 42.912 55.88 39.9992 55.88 36.48H53.88ZM51.2226 43.6833C49.4694 45.3891 47.1235 46.28 44.08 46.28V48.28C47.5431 48.28 50.4239 47.2509 52.6174 45.1167L51.2226 43.6833Z" fill="black"/>
    </svg>
    