<svg width="517" height="586" viewBox="0 0 517 586" fill="none" xmlns="http://www.w3.org/2000/svg">
    <path d="M517 154C517 68.9482 448.052 0 363 0H222V287H517V154Z" fill="#151414"/>
    <rect x="17" y="43" width="453" height="508" rx="154" fill="#A6D9E9"/>
    <ellipse cx="245.5" cy="512.5" rx="245.5" ry="73.5" fill="#4F8E1D"/>
    <path d="M391.385 110.686C391.385 130.233 375.569 146.079 356.06 146.079C336.552 146.079 320.737 130.233 320.737 110.686C320.737 91.1388 336.552 75.2913 356.06 75.2913C375.569 75.2913 391.385 91.1388 391.385 110.686Z" fill="#F4EED9"/>
    <path d="M414.552 157.62H306.829C309.335 150.453 318.172 146.722 325.763 149.512C329.724 144.354 334.707 138.755 341.592 137.21C346.961 136.004 351.133 137.953 355.769 133.434C358.324 130.94 359.999 128.468 363.485 126.863C376.803 120.732 390.136 129.36 393.756 141.318C396.736 138.236 401.705 137.31 406.158 139.056C413.389 141.893 414.804 149.936 414.349 156.465C414.611 156.779 414.672 157.221 414.552 157.62Z" fill="#76C0EF"/>
    <path d="M85.2385 233.154C85.5855 229.207 86.4094 225.255 87.7267 221.36C92.1696 208.265 101.955 196.615 115.305 192.975C116.476 192.666 117.663 192.411 118.869 192.21C119.162 192.156 119.455 192.118 119.747 192.08C107.604 175.711 93.9071 154.335 103.709 133.688C109.396 121.672 121.065 113.166 133.428 106.712C137.377 104.627 141.4 102.779 145.333 101.079C147.965 99.9272 150.562 98.8484 153.05 97.8404C173.99 89.3371 197.835 85.1161 219.471 93.728C236.879 100.659 251.457 114.833 257.93 132.517C262.812 145.867 262.776 160.588 258.388 173.903C255.975 181.327 252.189 188.334 247.141 194.406C247.342 194.533 247.526 194.642 247.727 194.788C262.963 204.462 268.154 225.147 262.302 241.823C255.17 262.234 233.992 274.158 213.565 277.102C213.291 277.137 213.053 277.064 212.852 276.92C212.833 277.083 212.779 277.248 212.651 277.413C191.237 301.094 154.807 311.74 125.033 298.041C104.788 288.749 88.7678 268.27 85.5855 246.122C84.9646 241.84 84.8183 237.491 85.2385 233.154Z" fill="#79A7D6"/>
    <path d="M103.199 272.712C112.526 284.325 126.589 288.841 140.598 292.424C156.015 296.357 172.144 293.121 186.83 287.616C194.273 284.835 203.289 278.123 200.966 268.926C199.502 263.182 193.633 259.927 192.189 254.058C191.988 253.18 193.067 252.526 193.726 253.163C207.569 266.822 230.062 266.896 243.504 252.632C257.474 237.802 254.349 213.916 248.003 196.23C247.507 195.92 247.399 195.189 247.727 194.787C262.963 204.462 268.157 225.146 262.304 241.822C255.173 262.233 233.995 274.157 213.567 277.101C213.294 277.136 213.055 277.063 212.854 276.919C212.836 277.082 212.781 277.247 212.654 277.413C191.24 301.093 154.809 311.74 125.036 298.04C104.79 288.749 88.7703 268.269 85.5881 246.121C91.8794 254.7 96.5229 264.41 103.199 272.712Z" fill="#79A7D6"/>
    <path d="M103.711 133.688C109.398 121.672 121.065 113.166 133.428 106.712C113.605 129.134 106.547 161.1 119.384 189.044C119.734 189.391 119.457 192.118 119.75 192.08C107.607 175.711 93.9096 154.334 103.711 133.688Z" fill="#79A7D6"/>
    <path d="M165.175 287.505C161.792 358.83 156.898 507.713 156.02 519.963H177.182C177.328 501.658 177.996 314.026 177.996 238.551C186.337 229.59 193.23 219.403 198.204 208.209C198.369 207.826 198.534 207.425 198.7 207.04C206.582 205.156 211.995 199.141 217.389 193.506C217.829 193.051 217.663 192.501 217.297 192.172C216.986 191.84 216.455 191.731 216.053 192.172C211.738 196.927 206.488 200.385 200.454 202.451C204.422 191.478 206.655 179.882 212.177 169.547C212.543 168.874 211.993 168.251 211.407 168.178C211.079 167.63 210.003 167.555 209.672 168.379C205.3 179.424 201.294 190.692 196.358 201.483C191.75 211.559 185.128 220.024 177.996 228.419C177.996 198.884 175.491 178.931 175.437 177.76C175.437 177.76 175.326 177.741 175.161 177.741C174.483 177.67 172.805 177.581 172.968 177.76C173.407 185.204 168.067 225.51 165.855 273.261C165.709 273.098 165.56 272.949 165.413 272.786C157.732 264.484 152.446 254.644 148.643 244.146C150.947 239.592 152.175 234.729 152.264 229.59C152.283 228.419 150.456 228.419 150.437 229.59C150.437 229.882 150.399 230.156 150.38 230.428C150.345 230.52 150.291 230.595 150.272 230.688C149.578 233.65 148.442 236.391 146.924 238.99C143.87 229.259 141.896 219.073 140.378 209.054C140.213 208.01 138.567 208.301 138.586 209.306C138.806 237.524 148.168 264.923 165.104 287.416C165.142 287.453 165.159 287.468 165.175 287.505Z" fill="#855E4F"/>
    <path d="M153.053 97.8404C173.992 89.3371 197.838 85.1161 219.474 93.728C236.882 100.659 251.459 114.83 257.932 132.515C262.814 145.864 262.779 160.586 258.39 173.9C259.122 167.059 258.225 160.003 255.956 153.327C251.31 139.611 237.071 118.61 224.818 111.28C199.653 96.228 176.662 97.3045 145.335 101.079C147.968 99.9272 150.564 98.8484 153.053 97.8404Z" fill="#79A7D6"/>
    <path d="M87.727 221.36C92.1699 208.265 101.955 196.615 115.305 192.975C116.45 192.635 118.452 192.184 119.75 192.08C120.916 191.985 117.793 195.354 116.823 195.699C110.13 198.883 103.492 202.396 98.0598 207.479C90.6897 214.393 88.1637 223.848 85.2388 233.154C85.5858 229.207 86.4097 225.255 87.727 221.36Z" fill="#79A7D6"/>
    <path d="M143.749 144.037C151.129 137.066 163.924 135.272 173.192 138.78C173.631 138.948 173.806 139.335 173.799 139.71C174.075 140.26 173.829 141.075 173.036 141.044C164.774 140.754 155.838 142.862 149.691 148.716C143.449 154.665 142.616 163.492 141.972 171.601C141.887 172.673 140.569 172.788 140.175 171.844C136.547 163.161 136.405 150.975 143.749 144.037Z" fill="#79A7D6"/>
    <path d="M165.855 273.261C168.067 225.511 173.407 185.204 172.968 177.76C172.805 177.581 174.483 177.671 175.161 177.741C174.703 210.589 172.691 243.36 169.089 275.985C169.016 276.698 168.102 277.302 167.536 276.644C166.603 275.546 165.909 274.231 165.416 272.786C165.562 272.949 165.708 273.098 165.855 273.261Z" fill="#613D44"/>
    <path d="M156.02 519.96C156.898 507.711 161.792 358.829 165.175 287.505C165.159 287.467 165.14 287.453 165.102 287.415C165.65 286.976 166.75 287.484 166.584 288.4C164.335 300.234 161.91 509.757 162.404 519.96H156.02Z" fill="#613D44"/>
    <path d="M35.9274 197.222C35.6087 195.003 35.5167 192.604 35.8354 192.104C38.0049 188.707 39.7896 188.532 42.7074 186.148C46.1706 183.322 46.9732 179.535 49.917 176.086C55.9227 169.051 64.9761 167.637 73.4959 170.68C77.4029 172.075 80.8071 174.316 83.9563 176.986C87.953 180.376 91.3429 186.835 96.7419 186.65C106.435 186.32 113.47 185.848 121.853 191.464C122.15 191.464 122.457 191.518 122.778 191.717C124.811 192.975 125.715 195.116 124.582 197.222H35.9274Z" fill="#76C0EF"/>
    <path d="M369.881 508.044L363.679 509.478C363.679 509.478 361.312 502.918 359.177 497.377C357.044 491.836 341.727 463.669 341.727 463.669C337.535 451.699 351.734 435.701 351.734 435.701L366.056 444.89C366.056 444.89 359.85 453.847 360.042 454.36C360.359 455.195 360.709 456.092 361.093 457.066C362.627 461.012 364.458 466.132 364.873 473.355C365.128 477.604 367.16 490.97 368.564 499.802C369.314 504.591 369.881 508.044 369.881 508.044Z" fill="#F7ACB0"/>
    <path d="M364.875 473.353C364.46 466.13 362.629 461.011 361.095 457.065C360.348 456.77 359.487 456.65 358.496 456.772C358.053 456.435 357.303 456.617 357.185 457.203C357.034 457.457 357.067 457.792 357.238 458.06C358.044 464.56 360.016 470.657 362.214 476.815C364.802 484.117 366.176 491.539 367.299 499.201C367.393 499.893 368.1 500.076 368.567 499.802C367.162 490.968 365.131 477.604 364.875 473.353Z" fill="#F7ACB0"/>
    <path d="M339.633 458.311C339.649 458.375 334.791 512.537 334.791 512.537L329.102 511.523C329.102 511.523 328.295 505.804 327.28 499.955C326.262 494.103 321.302 461.713 321.302 461.713C319.534 449.164 339.508 457.673 339.633 458.311Z" fill="#F7ACB0"/>
    <path d="M326.405 460.136C325.719 460.152 325.522 460.931 325.801 461.439C326.182 462.073 326.501 462.727 326.82 463.377C325.479 462.579 324.003 461.85 322.376 461.2C321.403 460.795 320.703 462.315 321.692 462.713C323.865 463.593 326.056 464.536 327.902 465.92C332.075 477.201 329.62 490.18 333.785 501.617C333.944 502.072 334.972 505.929 335.345 506.032C335.33 505.797 339.516 464.343 338.94 460.524C336.253 459.649 328.895 460.048 326.405 460.136Z" fill="#F7ACB0"/>
    <path d="M369.29 503.132C369.29 503.132 374.325 506.44 373.47 510.959C373.47 510.959 359.978 516.406 354.62 517.631C354.62 517.631 349.684 514.398 353.8 512.15C357.915 509.901 362.531 506.326 362.531 506.326C362.531 506.326 367.508 507.793 369.29 503.132Z" fill="#1F0D52"/>
    <path d="M335.058 507.466C335.058 507.466 338.227 512.064 335.886 515.918C335.886 515.918 321.628 516.275 316.284 515.555C316.284 515.555 312.867 510.89 317.42 510.241C321.973 509.592 328.521 508.309 328.521 508.309C328.521 508.309 331.816 511.131 335.058 507.466Z" fill="#1F0D52"/>
    <path d="M190.152 389.273C190.448 389.733 190.814 389.864 191.222 389.847C191.041 390.561 191.004 391.282 191.316 391.838C191.768 392.65 192.291 392.615 192.94 392.349C193.052 392.305 193.162 392.239 193.273 392.167C193.302 392.22 193.314 392.272 193.346 392.322C193.474 392.524 193.713 392.63 193.914 392.606C195.047 392.472 195.948 391.546 196.696 390.717C198.922 388.259 200.462 387.876 201.627 387.944C201.225 389.08 201.198 389.374 200.56 389.737C200.248 389.916 199.94 390.323 199.989 390.832C200.048 391.441 200.449 391.586 200.838 391.635C201.509 391.72 202.645 391.123 203.271 390.851C203.718 390.656 204.003 390.252 204.16 389.687C205.626 384.383 204.638 382.583 203.273 380.827C202.702 380.09 191.777 383.215 192.176 385.066C190.514 386.155 189.112 387.659 190.152 389.273Z" fill="#F7ACB0"/>
    <path d="M259.959 504.773C259.959 504.773 262.73 509.993 259.863 513.472C259.863 513.472 242.256 512.148 237.071 510.677C237.071 510.677 237.726 504.205 242.324 504.213C246.924 504.22 251.437 504.934 251.437 504.934C251.437 504.934 256.229 507.938 259.959 504.773Z" fill="#1F0D52"/>
    <path d="M306.836 503.936C306.836 503.936 310.508 508.565 308.323 512.508C308.323 512.508 290.768 514.404 285.402 513.899C285.402 513.899 284.87 507.418 289.393 506.589C293.916 505.761 298.487 505.645 298.487 505.645C298.487 505.645 303.744 507.728 306.836 503.936Z" fill="#1F0D52"/>
    <path d="M252.277 497.866C253.052 497.107 260.235 498.702 260.255 499.147C260.314 500.513 260.029 505.682 259.252 506.275C258.498 506.851 251.241 505.934 251.259 504.618C251.274 503.483 251.528 498.596 252.277 497.866Z" fill="#F7ACB0"/>
    <path d="M283.511 406.251C282.971 407.464 282.377 408.744 281.781 410.053C277.641 419.03 272.595 429.481 271.808 435.022C262.29 445.855 263.308 467.991 262.611 480.221C262.065 490.251 261.434 501.211 261.163 502.109C261.143 502.141 250.679 503.089 250.679 503.089C248.292 489.881 242.924 447.583 242.924 438.397C242.924 428.889 251.375 391.916 257.918 379.826C264.141 368.331 284.781 391.179 287.154 394.234C288.064 395.405 286.208 400.212 283.511 406.251Z" fill="#D2E7EB"/>
    <path d="M283.256 406.055C283.002 405.856 282.718 405.856 282.463 405.941C280.424 402.84 275.813 399.648 273.016 403.801C271.442 406.132 272.892 409.081 272.888 411.591C272.895 416.666 269.421 421.01 267.178 425.314C259.191 440.656 263.827 458.399 260.899 474.768C259.378 483.34 254.076 493.913 254.218 502.769C258.571 503.149 260.261 502.633 261.161 502.11C263.92 490.175 266.033 454.183 271.808 435.023C273.421 429.666 277.641 419.033 281.78 410.056C282.376 408.746 282.969 407.468 283.508 406.253C283.429 406.182 283.336 406.127 283.256 406.055Z" fill="#B8DAE0"/>
    <path d="M255.343 329.102C250.211 332.421 239.037 359.303 238.532 360.48C237.456 363.08 231.589 375 231.589 375C231.589 375 231.611 375.048 231.656 375.139C221.544 379.376 199.841 381.56 199.841 381.56L200.174 387.028C200.174 387.028 231.811 394.312 241.245 387.052C248.241 381.669 259.325 360.155 259.341 358.025C259.355 354.905 258.839 352.799 258.839 352.799C258.839 352.799 260.447 325.82 255.343 329.102Z" fill="#F7ACB0"/>
    <path d="M258.838 352.798C258.838 352.798 259.352 354.907 259.338 358.025C259.325 361.652 258.609 366.636 255.563 371.214C252.455 375.887 236.99 357.416 239.897 351.819C244.325 343.297 250.295 332.36 255.34 329.1C260.444 325.818 258.838 352.798 258.838 352.798Z" fill="#B0A6FF"/>
    <path d="M254.649 329.596C254.649 329.596 251.277 331.89 251.235 337.553C251.192 343.216 252.241 358.624 254.456 364.135C256.216 368.516 256.623 369.325 256.661 369.321L256.669 369.317L259.225 364.068C259.225 364.068 261.938 358.252 261.226 357.062C260.514 355.875 254.649 329.596 254.649 329.596Z" fill="#9E89FF"/>
    <path d="M297.211 499.486C297.654 498.495 304.923 497.339 305.104 497.746C305.66 498.994 307.295 503.908 306.79 504.746C306.301 505.558 299.214 507.372 298.746 506.144C298.343 505.08 296.784 500.442 297.211 499.486Z" fill="#F7ACB0"/>
    <path d="M306.886 499.486C304.281 502.461 297.137 503.981 297.137 503.981C290.783 490.055 284.439 462.88 283.478 447.139C281.99 422.694 277.796 398.839 277.978 392.433C278.015 391.404 278.028 390.856 278.028 390.856C284.356 383.921 292.063 380.166 296.583 379.869C298.369 379.747 299.644 380.163 300.158 381.121C301.823 384.266 303.103 387.156 304.076 389.867C304.178 390.138 304.263 390.408 304.349 390.679C310.36 407.729 308.522 416.859 307.51 438.896C307.02 449.294 303.106 493.677 306.886 499.486Z" fill="#D2E7EB"/>
    <path d="M305.042 477.008C305.1 465.534 307.019 449.295 307.51 438.898C308.522 416.861 310.36 407.729 304.349 390.679C302.545 390.518 300.581 390.866 298.487 391.856C297.891 392.123 297.989 392.76 298.387 393.114C298.279 393.275 298.253 393.489 298.355 393.743C301.738 402.829 303.697 412.487 302.743 422.209C302.268 427.187 300.872 431.987 299.868 436.888C298.843 441.905 298.214 446.975 297.735 452.053C296.935 460.721 295.784 469.736 296.961 478.425C298.173 487.397 298.297 494.258 300.332 503.09C300.452 503.644 306.187 500.852 306.886 499.486C306.356 498.311 304.945 496.052 305.042 477.008Z" fill="#B8DAE0"/>
    <path d="M254.353 386.788C254.708 387.528 257.682 388.533 261.964 389.423C266.744 390.394 273.16 391.202 279.491 391.286C288.057 391.405 296.485 390.189 300.869 388.701C302.661 388.096 303.775 387.436 303.972 386.807C304.579 384.809 304.099 373.396 302.756 361.214C302.491 358.853 302.205 356.464 301.877 354.128C300.229 341.922 297.769 330.622 294.71 328.889C294.016 328.484 293.22 328.073 292.339 327.643C291.023 326.99 289.506 326.335 287.813 325.735C285.165 324.783 282.103 323.988 278.749 323.621C273.586 323.022 267.724 323.412 261.551 325.769C261.551 325.769 261.553 325.784 261.537 325.786C260.041 326.35 258.527 327.031 257.002 327.865C256.642 328.05 256.285 328.253 255.911 328.456C250.825 331.384 253.247 343.013 255.501 352.735C256.538 357.251 257.533 361.35 257.734 363.971C257.79 364.849 257.814 365.735 257.77 366.612C257.572 374.032 254.516 381.386 254.353 386.788Z" fill="#B0A6FF"/>
    <path d="M265.436 319.07L266.177 324.342C266.177 324.342 265.252 326.803 266.533 326.878C269.35 327.04 272.871 323.406 272.871 323.406L271.74 315.357L265.436 319.07Z" fill="#F7ACB0"/>
    <path d="M272.298 319.324L271.798 315.767C271.798 315.767 269.363 319.955 266.101 320.604C266.101 320.604 269.822 321.531 272.298 319.324Z" fill="#F7ACB0"/>
    <path d="M298.282 372.807C299.647 377.745 298.538 383.933 300.868 388.703C302.66 388.098 303.775 387.438 303.971 386.809C304.579 384.811 304.098 373.398 302.755 361.216C302.49 358.855 302.205 356.466 301.877 354.13C300.661 352.157 299.224 350.281 297.524 348.324C292.803 342.884 288.452 337.209 284.445 331.237C284.129 330.777 287.675 327.982 287.986 327.806C287.571 327.714 284.786 328.055 283.126 330.918C278.253 339.298 278.1 350.616 284.725 357.798C289.249 362.678 296.375 365.916 298.282 372.807Z" fill="#9E89FF"/>
    <path d="M261.891 305.775C261.891 305.775 260.128 311.122 260.166 315.865C260.192 319.234 266.861 322.748 271.138 317.396C275.415 312.046 273.043 305.117 273.043 305.117L261.891 305.775Z" fill="#F7ACB0"/>
    <path d="M257.556 304.482C258.105 308.677 262.786 308.387 265.848 307.76C266.105 307.707 266.221 307.363 266.443 307.316C266.844 307.23 267.059 307.444 267.51 307.458C268.531 307.491 269.225 307.484 270.234 307.325C270.677 307.256 271.131 307.291 271.584 307.345C271.399 307.934 271.448 308.691 271.414 309.226C271.312 310.845 270.604 312.87 271.322 314.427C271.802 315.467 272.955 315.993 274.033 315.504C275.332 314.914 275.013 313.675 275.328 312.573C275.515 311.917 275.665 311.451 275.389 310.781C275.306 310.58 275.157 310.415 275.035 310.241C275.065 310.205 275.067 310.01 275.12 309.785C275.349 308.81 275.081 307.812 274.502 307.029C275.574 306.261 275.783 304.864 275.145 303.72C274.354 302.301 272.873 302.019 271.42 302.145C270.144 300.66 268.166 300.963 266.69 301.988C265.877 301.321 264.96 301.095 264.079 301.282C261.748 298.264 257.036 300.517 257.556 304.482Z" fill="#D2E7EB"/>
    <path d="M272.937 313.414C273.002 313.316 273.077 313.232 273.139 313.134C273.716 312.218 272.266 311.341 271.69 312.26C271.005 313.348 270.179 314.232 268.996 314.834C267.434 315.625 266.591 315.254 265.321 314.365C264.949 314.102 264.368 314.271 264.137 314.634C263.308 315.939 260.23 314.718 260.129 316.566C260.05 318.031 261.991 320.321 263.804 320.616C268.634 321.399 271.512 317.873 273.651 314.67C274.051 314.069 273.53 313.434 272.937 313.414Z" fill="#D2E7EB"/>
    <path d="M333.455 375.023C330.951 379.779 327.542 385.682 323.449 390.313C320.639 393.497 317.503 396.071 314.121 397.24C313.986 397.285 313.851 397.33 313.701 397.357L313.7 397.372L313.684 397.372C303.084 400.532 294.144 384.44 294.144 384.44C294.278 383.963 295.213 378.051 295.213 378.051C296.041 378.116 303.81 386.424 307.517 385.482C308.74 385.196 319.248 357.333 324.517 351.467C324.76 351.194 325.054 350.889 325.365 350.568C326.523 349.366 328.089 347.896 329.757 346.827C332.022 345.336 334.46 344.53 336.317 345.959C342.048 350.393 339.928 362.69 333.455 375.023Z" fill="#D2E7EB"/>
    <path d="M329.774 347.228C329.796 347.095 329.785 346.946 329.756 346.828C328.088 347.895 326.522 349.365 325.364 350.568C324.128 352.531 323.26 354.776 323.058 357.149C322.584 362.734 321.654 367.189 321.525 372.4C321.389 377.827 319.02 383.436 316.496 388.325C315.027 391.194 312.697 393.965 313.7 397.357C313.851 397.331 313.985 397.284 314.12 397.239C317.502 396.072 320.638 393.498 323.448 390.312C325.416 386.532 326.381 382.05 327.103 377.824C328.121 371.916 329.09 366.005 330.091 360.096C330.82 355.705 331.744 351.404 329.774 347.228Z" fill="#B8DAE0"/>
    <path d="M371.25 484.092C371.25 484.092 366.654 484.884 361.211 486.891C347.847 491.856 334.579 492.427 312.182 482.847C312.182 482.847 323.803 457.499 321.212 440.484C317.909 418.725 319.064 390.992 331.827 386.593C344.608 382.178 361.257 386.593 361.257 386.593C361.257 386.593 364.878 388.785 367.864 393.814C369.972 397.366 371.779 402.346 371.779 408.953C371.779 422.066 361.573 455.591 371.25 484.092Z" fill="#B0A6FF"/>
    <path d="M371.783 408.952C371.783 402.346 369.973 397.368 367.865 393.816C365.757 394.28 363.666 395.142 361.79 396.038C361.541 396.154 361.408 396.337 361.342 396.553C360.844 396.704 360.495 397.25 360.91 397.748C370.471 409.318 361.143 423.742 357.474 435.644C355.814 441.022 355.117 446.483 356.379 452.046C357.109 455.233 358.288 458.287 359.549 461.29C359.898 462.12 360.748 485.961 361.212 486.891C366.657 484.882 371.252 484.092 371.252 484.092C361.574 455.591 371.783 422.064 371.783 408.952Z" fill="#9E89FF"/>
    <path d="M350.46 326.613C350.311 324.721 348.637 324.282 346.932 324.304C347.17 323.595 347.095 322.779 346.516 321.968C345.55 320.609 344.091 320.438 342.686 320.779C343.085 317.716 338.56 315.595 336.204 318.632C335.359 317.62 333.99 317.298 332.563 318.349C330.004 320.234 330.585 323.886 332.033 326.238C330.2 328.023 330.955 330.263 332.348 332.2C330.385 333.672 328.646 336.104 330.154 338.564C330.895 339.775 332.148 340.255 333.325 340.065C333.623 340.536 334.085 340.952 334.726 341.182C337.123 342.038 340.184 340.677 341.686 338.604C343.305 340.32 346.692 338.524 346.265 335.376C348.089 335.312 349.969 333.286 349.747 331.181C349.677 330.524 349.422 329.917 349.055 329.413C349.944 328.782 350.56 327.872 350.46 326.613Z" fill="#D2E7EB"/>
    <path d="M331.996 324.364C331.996 324.364 329.852 329.57 329.547 334.305C329.332 337.667 335.728 341.651 340.38 336.624C345.032 331.597 343.164 324.51 343.164 324.51L331.996 324.364Z" fill="#F7ACB0"/>
    <path d="M329.588 324.349C329.914 324.114 330.355 324.073 330.664 323.842C331.634 323.123 331.192 322.843 331.735 322.16C332.204 321.569 332.656 321.171 333.341 320.863C335.107 320.067 337.215 320.189 339.073 320.506C339.656 320.607 339.766 321.134 339.578 321.557C341.408 321.796 343.492 323.383 344.341 324.503C346.03 326.727 346.485 330.609 345.088 333.092C343.992 335.04 341.796 336.722 340.397 334.331C339.328 332.506 339.363 330.737 339.377 328.706C339.383 327.959 339.362 327.33 339.245 326.767C338.176 325.498 336.781 324.652 335.287 324.745C334.934 325.146 334.653 325.734 334.326 326.134C333.835 326.733 333.23 327.226 332.535 327.574C331.461 328.109 329.932 328.311 329.09 327.246C328.333 326.287 328.656 325.021 329.588 324.349Z" fill="#D2E7EB"/>
    <path d="M338.931 329.252C338.931 329.252 340.867 328.188 341.373 329.764C341.878 331.342 340.483 332.388 339.692 332.149C338.902 331.908 338.509 329.956 338.931 329.252Z" fill="#F7ACB0"/>
    <path d="M291.879 519.041C291.83 519.042 291.781 519.041 291.734 519.04C290.359 518.984 289.29 517.826 289.345 516.453L293.441 413.907C293.651 408.636 297.153 403.967 302.157 402.289L306.205 401.029C307.521 400.618 308.915 401.353 309.322 402.666C309.731 403.979 308.996 405.374 307.683 405.782L303.689 407.026C300.685 408.036 298.545 410.886 298.416 414.106L294.32 516.651C294.268 517.977 293.19 519.019 291.879 519.041Z" fill="#796CEC"/>
    <path d="M315.147 404.076C314.978 405.251 314.02 405.068 313.19 405.65C312.179 406.359 310.467 410.006 309.017 410.075C307.085 410.166 310.12 407.417 308.961 407.094C308.545 406.98 304.776 411.655 304.962 408.702C305.002 408.049 306.963 405.489 305.831 405.797C304.844 406.725 302.909 409.119 301.984 408.123C301.548 407.654 302.539 406.127 303.159 405.538C306.229 402.615 304.267 403.445 302.333 405.522C301.331 406.602 300.36 406.23 300.888 404.698C301.989 401.524 306.179 399.856 309.148 399.587C310.401 399.475 315.523 401.455 315.147 404.076Z" fill="#F7ACB0"/>
    <path d="M308.196 400.39C307.706 400.362 307.191 400.137 306.695 400.065C306.147 399.987 305.449 399.841 305.003 399.48C304.268 398.884 304.998 398.392 305.647 398.292C306.836 398.106 309.393 399.306 310.434 399.805C310.571 399.87 308.701 400.42 308.196 400.39Z" fill="#F7ACB0"/>
    <path d="M321.619 380.725C320.287 383.293 317.422 384.972 313.852 386.044C302.447 389.457 283.713 386.642 283.713 386.642L283.381 381.174C283.381 381.174 301.834 380.088 304.615 373.513C305.117 372.32 301.41 360.014 297.567 357.237C295.851 356.001 294.056 354.798 292.507 353.791C288.742 351.336 285.776 347.764 284.403 343.481C283.072 339.379 283.181 335.739 283.81 332.818C284.681 328.757 289.389 326.838 292.943 328.987C298.752 332.512 308.085 341.31 310.931 344.026C311.434 344.508 311.725 344.786 311.765 344.832C322.136 355.057 327.255 369.894 321.619 380.725Z" fill="#F7ACB0"/>
    <path d="M311.766 344.833C311.726 344.788 311.435 344.509 310.932 344.027C308.222 344.308 306.348 346.833 305.8 349.376C305.473 349.556 305.239 349.922 305.438 350.38C306.367 352.581 307.838 353.984 309.525 355.606C311.947 357.931 313.61 360.463 314.821 363.595C316.147 367.064 317.724 371.132 317.228 374.874C316.812 378.116 314.672 380.547 313.804 383.552C313.518 384.498 313.558 385.38 313.852 386.043C317.423 384.971 320.288 383.293 321.62 380.726C327.256 369.895 322.137 355.059 311.766 344.833Z" fill="#F7ACB0"/>
    <path d="M297.933 359.933C296.35 358.794 286.36 351.421 283.811 343.056C282.653 339.25 282.537 329.685 287.224 327.881C294.733 324.994 306.687 334.801 315.039 342.302C312.794 350.171 306.32 356.362 297.933 359.933Z" fill="#B0A6FF"/>
    <path d="M287.279 384.011C287.255 385.197 286.282 385.132 285.529 385.811C284.613 386.639 283.361 390.471 281.931 390.717C280.024 391.042 282.699 387.942 281.509 387.766C281.083 387.702 277.916 392.803 277.738 389.851C277.697 389.196 279.33 386.416 278.244 386.86C277.378 387.902 275.751 390.514 274.711 389.64C274.22 389.227 275.019 387.59 275.563 386.928C278.251 383.652 276.404 384.717 274.739 387.016C273.876 388.208 272.867 387.959 273.204 386.375C273.908 383.09 277.862 380.921 280.776 380.291C282.006 380.026 287.331 381.362 287.279 384.011Z" fill="#F7ACB0"/>
    <path d="M279.928 381.202C279.436 381.233 278.899 381.074 278.398 381.064C277.845 381.052 277.136 380.993 276.648 380.688C275.845 380.187 276.51 379.611 277.141 379.43C278.299 379.101 280.983 379.978 282.078 380.347C282.224 380.395 280.432 381.17 279.928 381.202Z" fill="#F7ACB0"/>
    <path d="M318.684 402.306C344.326 411.491 370.334 395.53 370.446 395.47C369.922 394.607 364.351 386.018 362.596 382.691C361.738 381.068 361.171 379.075 360.834 377.037C360.248 373.78 360.187 370.407 360.27 368.189C360.297 367.106 360.358 366.288 360.382 365.905C360.395 365.853 360.408 365.8 360.406 365.767C361.737 355.662 365.295 343.545 353.473 340.682C352.017 340.315 350.306 340.114 348.34 340.064L348.323 340.065C346.207 340.008 343.771 340.156 340.983 340.51C340.983 340.51 337.555 341.973 333.651 344.283C332.324 345.071 330.92 345.963 329.588 346.934C325.591 349.833 324.574 355.225 325.425 358.711C329.372 374.869 324.125 379.389 320.954 394.769C320.643 396.273 320.375 398.765 318.684 402.306Z" fill="#D2E7EB"/>
    <path d="M332.938 389.38C329.884 392.83 315.737 401.857 320.087 403.194C323.91 404.384 342.842 397.839 351.974 380.055C350.091 376.713 360.187 370.407 360.27 368.188C360.234 368.143 360.179 368.096 360.143 368.064C360.212 367.36 360.282 366.642 360.382 365.905C360.379 365.855 360.375 365.819 360.388 365.77C359.585 364.475 358.352 362.961 356.416 361.396C351.307 357.182 353.953 342.701 353.953 342.701C346.144 342.707 343.482 355.197 343.008 362.497C342.844 365.004 338.811 382.745 332.938 389.38Z" fill="#B8DAE0"/>
    <path d="M334.573 337.878L334.888 342.55C334.888 342.55 333.788 344.939 335.06 345.106C337.858 345.471 341.551 340.896 341.551 340.896L341.128 334.629L334.573 337.878Z" fill="#F7ACB0"/>
    <path d="M341.396 338.609L341.155 335.045C341.155 335.045 337.945 338.554 334.645 338.964C334.645 338.964 338.767 340.631 341.396 338.609Z" fill="#F7ACB0"/>
    <path d="M296.694 377.428C296.628 377.972 296.56 378.518 296.494 379.062C296.364 380.123 298.011 380.337 298.14 379.276C298.206 378.731 298.274 378.186 298.34 377.642C298.471 376.581 296.825 376.367 296.694 377.428Z" fill="#F7ACB0"/>
    <path d="M295.743 377.302C295.69 377.274 295.636 377.274 295.585 377.257C295.194 377.048 294.671 377.13 294.368 377.399C294.116 377.357 293.842 377.391 293.621 377.518C293.386 377.569 293.173 377.698 293.017 377.865C292.664 377.835 292.276 377.956 292.05 378.246C291.549 377.96 290.688 378.106 290.542 378.808C290.411 379.43 290.31 380.055 290.233 380.682C290.126 381.574 291.388 381.839 291.888 381.283C292.189 381.921 293.229 381.879 293.571 381.35C293.611 381.443 293.626 381.541 293.671 381.632C293.895 382.084 294.643 382.315 295.106 381.932C295.568 381.548 295.684 381.135 295.597 380.646C295.621 380.669 295.639 380.695 295.663 380.717C296.169 381.208 297.235 381.041 297.333 380.283C297.488 379.073 296.929 377.908 295.743 377.302Z" fill="#F7ACB0"/>
    <path d="M362.847 359.135C362.796 363.004 362.254 367.264 361.265 371.662C359.273 380.544 355.619 393.223 348.364 398.145C342.258 402.28 328.818 404.683 320.238 405.839C315.683 406.48 312.483 406.75 312.483 406.75C312.475 406.252 311.844 400.302 311.844 400.302C312.655 400.156 335.599 390.373 338.921 388.507C340.04 387.893 342.944 358.275 346.511 351.242C348.117 348.027 352.3 341.1 356.48 342.856C360.994 344.741 362.993 351.047 362.847 359.135Z" fill="#D2E7EB"/>
    <path d="M356.296 374.303C353.752 379.991 352.762 386.25 348.829 391.263C341.531 400.517 329.239 398.151 320.622 404.986C320.343 405.207 320.2 405.541 320.238 405.84C328.818 404.684 342.258 402.281 348.364 398.144C355.619 393.224 359.273 380.545 361.265 371.663C362.254 367.264 362.796 363.004 362.847 359.135C361.076 364.378 358.584 369.185 356.296 374.303Z" fill="#B8DAE0"/>
    </svg>
    